{
.appVersion = "921";
DisplayStrings = (
H/Placeholder
);
classes = (
{
automatic = 1;

glyphs = (
{
color = 3;
glyphname = A;
lastChange = "2016-09-13 09:36:22 +0000";
layers = (
{
anchors = (
{
name = bottom;
position = "{359, 0}";
},
{
name = ogonek;
position = "{683, 10}";
},
{
name = top;
position = "{414, 705}";
}
);
background = {
anchors = (
{
name = bottom;
position = "{359, 0}";
},
{
name = ogonek;
position = "{683, 10}";
},
{
name = top;
position = "{414, 705}";
}
);
paths = (
{
closed = 1;
nodes = (
"425 669 LINE",
"399 669 LINE",
"633 0 LINE",
"689 0 LINE",
"439 705 LINE",
"389 705 LINE",
"29 0 LINE",
"85 0 LINE"
);
},
{
closed = 1;
nodes = (
"581 191 LINE",
"568 239 LINE",
"190 239 LINE",
"170 191 LINE"
);
}
);
};
layerId = "9E718F8A-2CEA-4931-B05D-987794BD97DA";
paths = (
{
closed = 1;
nodes = (
"425 669 LINE",
"398 669 LINE",
"633 0 LINE",
"689 0 LINE",
"439 705 LINE",
"389 705 LINE",
"29 0 LINE",
"87 0 LINE"
);
},
{
closed = 1;
nodes = (
"581 191 LINE",
"568 239 LINE",
"190 239 LINE",
"170 191 LINE"
);
}
);
width = 718;
},
{
anchors = (
{
name = bottom;
position = "{377, 0}";
},
{
name = ogonek;
position = "{707, 10}";
},
{
name = top;
position = "{431, 705}";
}
);
background = {
anchors = (
{
name = bottom;
position = "{377, 0}";
},
{
name = ogonek;
position = "{707, 10}";
},
{
name = top;
position = "{431, 705}";
}
);
paths = (
{
closed = 1;
nodes = (
"442 577 LINE",
"404 577 LINE",
"607 0 LINE",
"766 0 LINE",
"496 705 LINE",
"367 705 LINE",
"-13 0 LINE",
"149 0 LINE"
);
},
{
closed = 1;
nodes = (
"621 154 LINE",
"570 276 LINE",
"218 276 LINE",
"147 154 LINE"
);
}
);
};
layerId = "E1B555A7-F4E1-459C-9C1A-AE952106EEF9";
paths = (
{
closed = 1;
nodes = (
"442 577 LINE",
"404 577 LINE",
"607 0 LINE",
"766 0 LINE",
"496 705 LINE",
"367 705 LINE",
"-13 0 LINE",
"149 0 LINE"
);
},
{
closed = 1;
nodes = (
"621 154 LINE",
"570 276 LINE",
"218 276 LINE",
"147 154 LINE"
);
}
);
width = 753;
}
);
leftKerningGroup = A;
rightKerningGroup = A;
unicode = 0041;
userData = {
anchors = (
);
b = {
};
com.typemytype.robofont.layerData = {
b = {
anchors = (
);
components = (
);
contours = (
{
points = (
{
segmentType = line;
smooth = 0;
x = 403;
y = 502;
},
{
segmentType = line;
smooth = 0;
x = 703;
y = 1275;
},
{
segmentType = line;
smooth = 0;
x = 705;
y = 1275;
},
{
segmentType = line;
smooth = 0;
x = 1004;
y = 502;
}
);
},
{
points = (
{
segmentType = curve;
smooth = 1;
x = 150;
y = 0;
},
{
smooth = 0;
x = 181;
y = 0;
},
{
smooth = 0;
x = 214;
y = 15;
},
{
segmentType = curve;
smooth = 1;
x = 229;
y = 53;
},
{
segmentType = line;
smooth = 0;
x = 356;
y = 373;
},
{
segmentType = line;
smooth = 0;
x = 1051;
y = 373;
},
{
segmentType = line;
smooth = 1;
x = 1179;
y = 53;
},
{
smooth = 0;
x = 1193;
y = 17;
},
{
smooth = 0;
x = 1228;
y = 0;
},
{
segmentType = curve;
smooth = 1;
x = 1260;
y = 0;
},
{
smooth = 0;
x = 1306;
y = 0;
},
{
smooth = 0;
x = 1354;
y = 31;
},
{
segmentType = curve;
smooth = 1;
x = 1354;
y = 80;
},
{
smooth = 0;
x = 1354;
y = 87;
},
{
smooth = 0;
x = 1352;
y = 97;
},
{
segmentType = curve;
smooth = 0;
x = 1349;
y = 108;
},
{
segmentType = line;
smooth = 1;
x = 871;
y = 1288;
},
{
smooth = 0;
x = 817;
y = 1420;
},
{
smooth = 0;
x = 777;
y = 1430;
},
{
segmentType = curve;
smooth = 1;
x = 710;
y = 1430;
},
{
smooth = 0;
x = 644;
y = 1430;
},
{
smooth = 0;
x = 596;
y = 1413;
},
{
segmentType = curve;
smooth = 1;
x = 542;
y = 1280;
},
{
segmentType = line;
smooth = 1;
x = 66;
y = 108;
},
{
smooth = 0;
x = 62;
y = 97;
},
{
smooth = 0;
x = 60;
y = 87;
},
{
segmentType = curve;
smooth = 1;
x = 60;
y = 78;
},
{
smooth = 0;
x = 60;
y = 32;
},
{
smooth = 0;
x = 106;
y = 0;
}
);
}
);
lib = {
};
name = A;
unicodes = (
);
width = 1414;
};
};
components = (
);
contours = {
};
lib = {
};
name = A;
points = {
};
segmentType = line;
unicodes = (
);
width = 1445;
x = 718;
y = 1232;
};
},
{
color = 9;
glyphname = Aogonek;
lastChange = "2016-09-13 09:42:37 +0000";
layers = (
{
background = {
paths = (
{
closed = 1;
nodes = (
"581 191 LINE",
"568 239 LINE",
"190 239 LINE",
"170 191 LINE"
);
},
{
closed = 1;
nodes = (
"685 -142 OFFCURVE",
"662 -148 OFFCURVE",
"646 -148 CURVE SMOOTH",
"606 -148 OFFCURVE",
"580 -125 OFFCURVE",
"584 -82 CURVE SMOOTH",
"587 -38 OFFCURVE",
"618 0 OFFCURVE",
"682 0 CURVE SMOOTH",
"689 0 LINE",
"439 705 LINE",
"389 705 LINE",
"29 0 LINE",
"85 0 LINE",
"425 669 LINE",
"399 669 LINE",
"633 0 LINE",
"659 38 LINE",
"582 21 OFFCURVE",
"538 -28 OFFCURVE",
"533 -88 CURVE SMOOTH",
"528 -148 OFFCURVE",
"570 -191 OFFCURVE",
"638 -191 CURVE SMOOTH",
"671 -191 OFFCURVE",
"700 -181 OFFCURVE",
"720 -168 CURVE",
"707 -130 LINE"
);
}
);
};
layerId = "9E718F8A-2CEA-4931-B05D-987794BD97DA";
paths = (
{
closed = 1;
nodes = (
"581 191 LINE",
"568 239 LINE",
"190 239 LINE",
"170 191 LINE"
);
},
{
closed = 1;
nodes = (
"685 -141 OFFCURVE",
"662 -148 OFFCURVE",
"645 -148 CURVE SMOOTH",
"609 -148 OFFCURVE",
"584 -123 OFFCURVE",
"584 -85 CURVE SMOOTH",
"584 -35 OFFCURVE",
"623 0 OFFCURVE",
"682 0 CURVE SMOOTH",
"689 0 LINE",
"439 705 LINE",
"389 705 LINE",
"29 0 LINE",
"87 0 LINE",
"425 669 LINE",
"398 669 LINE",
"633 0 LINE",
"657 38 LINE",
"579 23 OFFCURVE",
"534 -26 OFFCURVE",
"534 -91 CURVE SMOOTH",
"534 -151 OFFCURVE",
"577 -191 OFFCURVE",
"641 -191 CURVE SMOOTH",
"668 -191 OFFCURVE",
"698 -182 OFFCURVE",
"720 -168 CURVE",
"707 -129 LINE"
);
}
);
width = 718;
},
{
background = {
paths = (
{
closed = 1;
nodes = (
"621 154 LINE",
"570 276 LINE",
"218 276 LINE",
"147 154 LINE"
);
},
{
closed = 1;
nodes = (
"724 -113 OFFCURVE",
"706 -117 OFFCURVE",
"689 -117 CURVE SMOOTH",
"651 -117 OFFCURVE",
"631 -99 OFFCURVE",
"634 -64 CURVE SMOOTH",
"637 -27 OFFCURVE",
"668 0 OFFCURVE",
"713 0 CURVE SMOOTH",
"766 0 LINE",
"496 705 LINE",
"367 705 LINE",
"-13 0 LINE",
"149 0 LINE",
"442 577 LINE",
"404 577 LINE",
"607 0 LINE",
"631 33 LINE",
"572 11 OFFCURVE",
"537 -35 OFFCURVE",
"533 -87 CURVE SMOOTH",
"528 -154 OFFCURVE",
"580 -197 OFFCURVE",
"652 -197 CURVE SMOOTH",
"688 -197 OFFCURVE",
"724 -190 OFFCURVE",
"755 -177 CURVE",
"744 -105 LINE"
);
}
);
};
layerId = "E1B555A7-F4E1-459C-9C1A-AE952106EEF9";
paths = (
{
closed = 1;
nodes = (
"621 154 LINE",
"570 276 LINE",
"218 276 LINE",
"147 154 LINE"
);
},
{
closed = 1;
nodes = (
"724 -113 OFFCURVE",
"706 -117 OFFCURVE",
"689 -117 CURVE SMOOTH",
"651 -117 OFFCURVE",
"631 -99 OFFCURVE",
"634 -64 CURVE SMOOTH",
"637 -27 OFFCURVE",
"668 0 OFFCURVE",
"713 0 CURVE SMOOTH",
"766 0 LINE",
"496 705 LINE",
"367 705 LINE",
"-13 0 LINE",
"149 0 LINE",
"442 577 LINE",
"404 577 LINE",
"607 0 LINE",
"631 33 LINE",
"572 11 OFFCURVE",
"537 -35 OFFCURVE",
"533 -87 CURVE SMOOTH",
"528 -154 OFFCURVE",
"580 -197 OFFCURVE",
"652 -197 CURVE SMOOTH",
"688 -197 OFFCURVE",
"724 -190 OFFCURVE",
"755 -177 CURVE",
"744 -105 LINE"
);
}
);
width = 753;
}
);
leftKerningGroup = A;
leftMetricsKey = A;
widthMetricsKey = A;
rightKerningGroup = A;
unicode = 0104;
},
{
glyphname = Aring;
lastChange = "2016-09-13 09:43:47 +0000";
layers = (
{
background = {
paths = (
{
closed = 1;
nodes = (
"466 675 OFFCURVE",
"513 717 OFFCURVE",
"518 771 CURVE SMOOTH",
"522 825 OFFCURVE",
"481 867 OFFCURVE",
"427 867 CURVE SMOOTH",
"373 867 OFFCURVE",
"326 825 OFFCURVE",
"322 771 CURVE SMOOTH",
"317 717 OFFCURVE",
"358 675 OFFCURVE",
"412 675 CURVE SMOOTH"
);
},
{
closed = 1;
nodes = (
"387 719 OFFCURVE",
"367 742 OFFCURVE",
"370 771 CURVE SMOOTH",
"372 800 OFFCURVE",
"395 823 OFFCURVE",
"424 823 CURVE SMOOTH",
"453 823 OFFCURVE",
"472 800 OFFCURVE",
"470 771 CURVE SMOOTH",
"467 742 OFFCURVE",
"445 719 OFFCURVE",
"416 719 CURVE SMOOTH"
);
},
{
closed = 1;
nodes = (
"425 669 LINE",
"399 669 LINE",
"633 0 LINE",
"689 0 LINE",
"439 705 LINE",
"389 705 LINE",
"29 0 LINE",
"85 0 LINE"
);
},
{
closed = 1;
nodes = (
"581 191 LINE",
"568 239 LINE",
"190 239 LINE",
"170 191 LINE"
);
}
);
};
layerId = "9E718F8A-2CEA-4931-B05D-987794BD97DA";
paths = (
{
closed = 1;
nodes = (
"425 669 LINE",
"398 669 LINE",
"633 0 LINE",
"689 0 LINE",
"439 705 LINE",
"389 705 LINE",
"29 0 LINE",
"87 0 LINE"
);
},
{
closed = 1;
nodes = (
"581 191 LINE",
"568 239 LINE",
"190 239 LINE",
"170 191 LINE"
);
},
{
closed = 1;
nodes = (
"471 675 OFFCURVE",
"515 717 OFFCURVE",
"515 771 CURVE SMOOTH",
"515 825 OFFCURVE",
"471 867 OFFCURVE",
"417 867 CURVE SMOOTH",
"363 867 OFFCURVE",
"319 825 OFFCURVE",
"319 771 CURVE SMOOTH",
"319 717 OFFCURVE",
"363 675 OFFCURVE",
"417 675 CURVE SMOOTH"
);
},
{
closed = 1;
nodes = (
"388 719 OFFCURVE",
"367 742 OFFCURVE",
"367 771 CURVE SMOOTH",
"367 800 OFFCURVE",
"388 823 OFFCURVE",
"417 823 CURVE SMOOTH",
"446 823 OFFCURVE",
"467 800 OFFCURVE",
"467 771 CURVE SMOOTH",
"467 742 OFFCURVE",
"446 719 OFFCURVE",
"417 719 CURVE SMOOTH"
);
}
);
width = 718;
},
{
background = {
paths = (
{
closed = 1;
nodes = (
"491 670 OFFCURVE",
"543 717 OFFCURVE",
"548 778 CURVE SMOOTH",
"553 839 OFFCURVE",
"508 886 OFFCURVE",
"447 886 CURVE SMOOTH",
"386 886 OFFCURVE",
"333 839 OFFCURVE",
"328 778 CURVE SMOOTH",
"323 717 OFFCURVE",
"369 670 OFFCURVE",
"430 670 CURVE SMOOTH"
);
},
{
closed = 1;
nodes = (
"410 733 OFFCURVE",
"393 753 OFFCURVE",
"395 778 CURVE SMOOTH",
"397 803 OFFCURVE",
"417 823 OFFCURVE",
"442 823 CURVE SMOOTH",
"467 823 OFFCURVE",
"483 803 OFFCURVE",
"481 778 CURVE SMOOTH",
"479 753 OFFCURVE",
"460 733 OFFCURVE",
"435 733 CURVE SMOOTH"
);
},
{
closed = 1;
nodes = (
"442 577 LINE",
"404 577 LINE",
"607 0 LINE",
"766 0 LINE",
"496 705 LINE",
"367 705 LINE",
"-13 0 LINE",
"149 0 LINE"
);
},
{
closed = 1;
nodes = (
"621 154 LINE",
"570 276 LINE",
"218 276 LINE",
"147 154 LINE"
);
}
);
};
layerId = "E1B555A7-F4E1-459C-9C1A-AE952106EEF9";
paths = (
{
closed = 1;
nodes = (
"491 670 OFFCURVE",
"543 717 OFFCURVE",
"548 778 CURVE SMOOTH",
"553 839 OFFCURVE",
"508 886 OFFCURVE",
"447 886 CURVE SMOOTH",
"386 886 OFFCURVE",
"333 839 OFFCURVE",
"328 778 CURVE SMOOTH",
"323 717 OFFCURVE",
"369 670 OFFCURVE",
"430 670 CURVE SMOOTH"
);
},
{
closed = 1;
nodes = (
"410 733 OFFCURVE",
"393 753 OFFCURVE",
"395 778 CURVE SMOOTH",
"397 803 OFFCURVE",
"417 823 OFFCURVE",
"442 823 CURVE SMOOTH",
"467 823 OFFCURVE",
"483 803 OFFCURVE",
"481 778 CURVE SMOOTH",
"479 753 OFFCURVE",
"460 733 OFFCURVE",
"435 733 CURVE SMOOTH"
);
},
{
closed = 1;
nodes = (
"442 577 LINE",
"404 577 LINE",
"607 0 LINE",
"766 0 LINE",
"496 705 LINE",
"367 705 LINE",
"-13 0 LINE",
"149 0 LINE"
);
},
{
closed = 1;
nodes = (
"621 154 LINE",
"570 276 LINE",
"218 276 LINE",
"147 154 LINE"
);
}
);
width = 753;
}
);
leftKerningGroup = A;
leftMetricsKey = A;
widthMetricsKey = A;
rightKerningGroup = A;
unicode = 00C5;
},
{
color = 9;
glyphname = Aringacute;
lastChange = "2016-09-13 09:44:00 +0000";
layers = (
{
background = {
paths = (
{
closed = 1;
nodes = (
"85 0 LINE",
"425 669 LINE",
"399 669 LINE",
"633 0 LINE",
"689 0 LINE",
"439 705 LINE",
"389 705 LINE",
"29 0 LINE"
);
},
{
closed = 1;
nodes = (
"581 191 LINE",
"568 239 LINE",
"190 239 LINE",
"170 191 LINE"
);
},
{
closed = 1;
nodes = (
"466 675 OFFCURVE",
"513 717 OFFCURVE",
"518 771 CURVE SMOOTH",
"522 825 OFFCURVE",
"481 867 OFFCURVE",
"427 867 CURVE SMOOTH",
"373 867 OFFCURVE",
"326 825 OFFCURVE",
"322 771 CURVE SMOOTH",
"317 717 OFFCURVE",
"358 675 OFFCURVE",
"412 675 CURVE SMOOTH"
);
},
{
closed = 1;
nodes = (
"387 719 OFFCURVE",
"367 742 OFFCURVE",
"370 771 CURVE SMOOTH",
"372 800 OFFCURVE",
"395 823 OFFCURVE",
"424 823 CURVE SMOOTH",
"453 823 OFFCURVE",
"472 800 OFFCURVE",
"470 771 CURVE SMOOTH",
"467 742 OFFCURVE",
"445 719 OFFCURVE",
"416 719 CURVE SMOOTH"
);
},
{
closed = 1;
nodes = (
"646 939 LINE",
"573 939 LINE",
"464 835 LINE",
"495 818 LINE"
);
}
);
};
layerId = "9E718F8A-2CEA-4931-B05D-987794BD97DA";
paths = (
{
closed = 1;
nodes = (
"581 191 LINE",
"568 239 LINE",
"190 239 LINE",
"170 191 LINE"
);
},
{
closed = 1;
nodes = (
"646 939 LINE",
"573 939 LINE",
"464 835 LINE",
"495 818 LINE"
);
},
{
closed = 1;
nodes = (
"425 669 LINE",
"398 669 LINE",
"633 0 LINE",
"689 0 LINE",
"439 705 LINE",
"389 705 LINE",
"29 0 LINE",
"87 0 LINE"
);
},
{
closed = 1;
nodes = (
"471 675 OFFCURVE",
"515 717 OFFCURVE",
"515 771 CURVE SMOOTH",
"515 825 OFFCURVE",
"471 867 OFFCURVE",
"417 867 CURVE SMOOTH",
"363 867 OFFCURVE",
"319 825 OFFCURVE",
"319 771 CURVE SMOOTH",
"319 717 OFFCURVE",
"363 675 OFFCURVE",
"417 675 CURVE SMOOTH"
);
},
{
closed = 1;
nodes = (
"388 719 OFFCURVE",
"367 742 OFFCURVE",
"367 771 CURVE SMOOTH",
"367 800 OFFCURVE",
"388 823 OFFCURVE",
"417 823 CURVE SMOOTH",
"446 823 OFFCURVE",
"467 800 OFFCURVE",
"467 771 CURVE SMOOTH",
"467 742 OFFCURVE",
"446 719 OFFCURVE",
"417 719 CURVE SMOOTH"
);
}
);
width = 718;
},
{
background = {
paths = (
{
closed = 1;
nodes = (
"149 0 LINE",
"442 577 LINE",
"404 577 LINE",
"607 0 LINE",
"766 0 LINE",
"496 705 LINE",
"367 705 LINE",
"-13 0 LINE"
);
},
{
closed = 1;
nodes = (
"621 154 LINE",
"570 276 LINE",
"218 276 LINE",
"147 154 LINE"
);
},
{
closed = 1;
nodes = (
"491 670 OFFCURVE",
"543 717 OFFCURVE",
"548 778 CURVE SMOOTH",
"553 839 OFFCURVE",
"508 886 OFFCURVE",
"447 886 CURVE SMOOTH",
"386 886 OFFCURVE",
"333 839 OFFCURVE",
"328 778 CURVE SMOOTH",
"323 717 OFFCURVE",
"369 670 OFFCURVE",
"430 670 CURVE SMOOTH"
);
},
{
closed = 1;
nodes = (
"410 733 OFFCURVE",
"393 753 OFFCURVE",
"395 778 CURVE SMOOTH",
"397 803 OFFCURVE",
"417 823 OFFCURVE",
"442 823 CURVE SMOOTH",
"467 823 OFFCURVE",
"483 803 OFFCURVE",
"481 778 CURVE SMOOTH",
"479 753 OFFCURVE",
"460 733 OFFCURVE",
"435 733 CURVE SMOOTH"
);
},
{
closed = 1;
nodes = (
"703 946 LINE",
"560 946 LINE",
"475 859 LINE",
"534 814 LINE"
);
}
);
};
layerId = "E1B555A7-F4E1-459C-9C1A-AE952106EEF9";
paths = (
{
closed = 1;
nodes = (
"149 0 LINE",
"442 577 LINE",
"404 577 LINE",
"607 0 LINE",
"766 0 LINE",
"496 705 LINE",
"367 705 LINE",
"-13 0 LINE"
);
},
{
closed = 1;
nodes = (
"621 154 LINE",
"570 276 LINE",
"218 276 LINE",
"147 154 LINE"
);
},
{
closed = 1;
nodes = (
"491 670 OFFCURVE",
"543 717 OFFCURVE",
"548 778 CURVE SMOOTH",
"553 839 OFFCURVE",
"508 886 OFFCURVE",
"447 886 CURVE SMOOTH",
"386 886 OFFCURVE",
"333 839 OFFCURVE",
"328 778 CURVE SMOOTH",
"323 717 OFFCURVE",
"369 670 OFFCURVE",
"430 670 CURVE SMOOTH"
);
},
{
closed = 1;
nodes = (
"410 733 OFFCURVE",
"393 753 OFFCURVE",
"395 778 CURVE SMOOTH",
"397 803 OFFCURVE",
"417 823 OFFCURVE",
"442 823 CURVE SMOOTH",
"467 823 OFFCURVE",
"483 803 OFFCURVE",
"481 778 CURVE SMOOTH",
"479 753 OFFCURVE",
"460 733 OFFCURVE",
"435 733 CURVE SMOOTH"
);
},
{
closed = 1;
nodes = (
"703 946 LINE",
"560 946 LINE",
"475 859 LINE",
"534 814 LINE"
);
}
);
width = 753;
}
);
leftKerningGroup = A;
leftMetricsKey = A;
widthMetricsKey = A;
rightKerningGroup = A;
unicode = 01FA;
},
{
color = 3;
glyphname = AE;
lastChange = "2016-09-13 09:44:52 +0000";
layers = (
{
anchors = (
{
name = bottom;
position = "{497, 0}";
},
{
name = top;
position = "{551, 705}";
}
);
background = {
anchors = (
{
name = bottom;
position = "{497, 0}";
},
{
name = top;
position = "{551, 705}";
}
);
paths = (
{
closed = 1;
nodes = (
"934 0 LINE",
"938 49 LINE",
"622 49 LINE",
"537 682 LINE",
"527 656 LINE",
"986 656 LINE",
"989 705 LINE",
"487 705 LINE",
"9 0 LINE",
"67 0 LINE",
"513 665 LINE",
"489 665 LINE",
"577 0 LINE"
);
},
{
closed = 1;
nodes = (
"574 191 LINE",
"559 239 LINE",
"181 239 LINE",
"161 191 LINE"
);
},
{
closed = 1;
nodes = (
"940 334 LINE",
"944 382 LINE",
"568 382 LINE",
"564 334 LINE"
);
}
);
};
layerId = "9E718F8A-2CEA-4931-B05D-987794BD97DA";
paths = (
{
closed = 1;
nodes = (
"934 0 LINE",
"938 49 LINE",
"621 49 LINE",
"536 682 LINE",
"527 656 LINE",
"986 656 LINE",
"989 705 LINE",
"487 705 LINE",
"9 0 LINE",
"71 0 LINE",
"517 665 LINE",
"489 665 LINE",
"577 0 LINE"
);
},
{
closed = 1;
nodes = (
"574 191 LINE",
"559 239 LINE",
"191 239 LINE",
"171 191 LINE"
);
},
{
closed = 1;
nodes = (
"940 334 LINE",
"944 382 LINE",
"568 382 LINE",
"564 334 LINE"
);
}
);
width = 988;
},
{
anchors = (
{
name = bottom;
position = "{505, 0}";
},
{
name = top;
position = "{560, 705}";
}
);
background = {
anchors = (
{
name = bottom;
position = "{505, 0}";
},
{
name = top;
position = "{560, 705}";
}
);
paths = (
{
closed = 1;
nodes = (
"965 0 LINE",
"975 125 LINE",
"692 125 LINE",
"621 617 LINE",
"583 580 LINE",
"1011 580 LINE",
"1020 705 LINE",
"467 705 LINE",
"-33 0 LINE",
"142 0 LINE",
"525 571 LINE",
"482 571 LINE",
"563 0 LINE"
);
},
{
closed = 1;
nodes = (
"598 154 LINE",
"572 276 LINE",
"220 276 LINE",
"148 154 LINE"
);
},
{
closed = 1;
nodes = (
"968 296 LINE",
"978 421 LINE",
"600 421 LINE",
"590 296 LINE"
);
}
);
};
layerId = "E1B555A7-F4E1-459C-9C1A-AE952106EEF9";
paths = (
{
closed = 1;
nodes = (
"965 0 LINE",
"975 125 LINE",
"692 125 LINE",
"621 617 LINE",
"583 580 LINE",
"1011 580 LINE",
"1020 705 LINE",
"467 705 LINE",
"-33 0 LINE",
"142 0 LINE",
"525 571 LINE",
"482 571 LINE",
"563 0 LINE"
);
},
{
closed = 1;
nodes = (
"598 154 LINE",
"572 276 LINE",
"220 276 LINE",
"148 154 LINE"
);
},
{
closed = 1;
nodes = (
"968 296 LINE",
"978 421 LINE",
"600 421 LINE",
"590 296 LINE"
);
}
);
width = 1001;
}
);
leftKerningGroup = A;
rightKerningGroup = E;
rightMetricsKey = E;
unicode = 00C6;
userData = {
com.typemytype.robofont.layerData = {
b = {
anchors = (
);
components = (
);
contours = (
);
lib = {
};
name = AE;
unicodes = (
);
width = 1976;
};
};
};
},
{
color = 3;
glyphname = B;
lastChange = "2016-09-13 09:51:27 +0000";
layers = (
{
anchors = (
{
name = bottom;
position = "{338, 0}";
},
{
name = top;
position = "{392, 705}";
}
);
background = {
anchors = (
{
name = bottom;
position = "{338, 0}";
},
{
name = top;
position = "{392, 705}";
}
);
paths = (
{
closed = 1;
nodes = (
"371 0 LINE SMOOTH",
"518 0 OFFCURVE",
"606 66 OFFCURVE",
"616 191 CURVE SMOOTH",
"623 285 OFFCURVE",
"575 348 OFFCURVE",
"488 364 CURVE",
"487 356 LINE",
"567 380 OFFCURVE",
"619 438 OFFCURVE",
"626 520 CURVE SMOOTH",
"635 640 OFFCURVE",
"558 705 OFFCURVE",
"415 705 CURVE SMOOTH",
"148 705 LINE",
"93 0 LINE"
);
},
{
closed = 1;
nodes = (
"173 334 LINE",
"394 334 LINE SMOOTH",
"513 334 OFFCURVE",
"568 284 OFFCURVE",
"561 188 CURVE SMOOTH",
"553 93 OFFCURVE",
"493 48 OFFCURVE",
"372 48 CURVE SMOOTH",
"151 48 LINE"
);
},
{
closed = 1;
nodes = (
"199 657 LINE",
"405 657 LINE SMOOTH",
"524 657 OFFCURVE",
"578 612 OFFCURVE",
"571 523 CURVE SMOOTH",
"564 432 OFFCURVE",
"499 382 OFFCURVE",
"383 382 CURVE SMOOTH",
"177 382 LINE"
);
}
);
};
layerId = "9E718F8A-2CEA-4931-B05D-987794BD97DA";
paths = (
{
closed = 1;
nodes = (
"381 0 LINE SMOOTH",
"531 0 OFFCURVE",
"617 75 OFFCURVE",
"617 204 CURVE SMOOTH",
"617 290 OFFCURVE",
"570 348 OFFCURVE",
"478 363 CURVE",
"489 356 LINE",
"581 383 OFFCURVE",
"627 448 OFFCURVE",
"627 533 CURVE SMOOTH",
"627 644 OFFCURVE",
"552 705 OFFCURVE",
"405 705 CURVE SMOOTH",
"148 705 LINE",
"93 0 LINE"
);
},
{
closed = 1;
nodes = (
"199 657 LINE",
"405 657 LINE SMOOTH",
"516 657 OFFCURVE",
"572 615 OFFCURVE",
"572 533 CURVE SMOOTH",
"572 435 OFFCURVE",
"505 382 OFFCURVE",
"393 382 CURVE SMOOTH",
"165 382 LINE",
"161 334 LINE",
"394 334 LINE SMOOTH",
"508 334 OFFCURVE",
"562 287 OFFCURVE",
"562 198 CURVE SMOOTH",
"562 98 OFFCURVE",
"498 48 OFFCURVE",
"382 48 CURVE SMOOTH",
"151 48 LINE"
);
}
);
width = 668;
},
{
anchors = (
{
name = bottom;
position = "{349, 0}";
},
{
name = top;
position = "{404, 705}";
}
);
background = {
anchors = (
{
name = bottom;
position = "{349, 0}";
},
{
name = top;
position = "{404, 705}";
}
);
paths = (
{
closed = 1;
nodes = (
"407 0 LINE SMOOTH",
"560 0 OFFCURVE",
"660 74 OFFCURVE",
"669 193 CURVE SMOOTH",
"676 284 OFFCURVE",
"630 348 OFFCURVE",
"541 368 CURVE",
"540 360 LINE",
"620 383 OFFCURVE",
"671 444 OFFCURVE",
"677 522 CURVE SMOOTH",
"686 635 OFFCURVE",
"599 705 OFFCURVE",
"452 705 CURVE SMOOTH",
"124 705 LINE",
"69 0 LINE"
);
},
{
closed = 1;
nodes = (
"249 297 LINE",
"411 297 LINE SMOOTH",
"492 297 OFFCURVE",
"524 270 OFFCURVE",
"519 209 CURVE SMOOTH",
"515 149 OFFCURVE",
"479 123 OFFCURVE",
"398 123 CURVE SMOOTH",
"236 123 LINE"
);
},
{
closed = 1;
nodes = (
"272 582 LINE",
"416 582 LINE SMOOTH",
"494 582 OFFCURVE",
"528 556 OFFCURVE",
"523 500 CURVE SMOOTH",
"519 446 OFFCURVE",
"481 420 OFFCURVE",
"403 420 CURVE SMOOTH",
"259 420 LINE"
);
}
);
};
layerId = "E1B555A7-F4E1-459C-9C1A-AE952106EEF9";
paths = (
{
closed = 1;
nodes = (
"407 0 LINE SMOOTH",
"560 0 OFFCURVE",
"660 74 OFFCURVE",
"669 193 CURVE SMOOTH",
"676 284 OFFCURVE",
"630 348 OFFCURVE",
"541 368 CURVE",
"540 360 LINE",
"620 383 OFFCURVE",
"671 444 OFFCURVE",
"677 522 CURVE SMOOTH",
"686 635 OFFCURVE",
"599 705 OFFCURVE",
"452 705 CURVE SMOOTH",
"124 705 LINE",
"69 0 LINE"
);
},
{
closed = 1;
nodes = (
"272 582 LINE",
"416 582 LINE SMOOTH",
"494 582 OFFCURVE",
"528 556 OFFCURVE",
"523 500 CURVE SMOOTH",
"519 446 OFFCURVE",
"481 420 OFFCURVE",
"403 420 CURVE SMOOTH",
"243 420 LINE",
"233 297 LINE",
"411 297 LINE SMOOTH",
"492 297 OFFCURVE",
"524 270 OFFCURVE",
"519 209 CURVE SMOOTH",
"515 149 OFFCURVE",
"479 123 OFFCURVE",
"398 123 CURVE SMOOTH",
"236 123 LINE"
);
}
);
width = 690;
}
);
leftKerningGroup = H;
leftMetricsKey = H;
rightKerningGroup = B;
unicode = 0042;
userData = {
anchors = (
);
b = {
};
com.typemytype.robofont.layerData = {
b = {
anchors = (
);
components = (
);
contours = (
{
points = (
{
segmentType = curve;
smooth = 1;
x = 266;
y = 0;
},
{
segmentType = line;
smooth = 1;
x = 1035;
y = 0;
},
{
smooth = 0;
x = 1084;
y = 0;
},
{
smooth = 0;
x = 1108;
y = 36;
},
{
segmentType = curve;
smooth = 1;
x = 1108;
y = 73;
},
{
smooth = 0;
x = 1108;
y = 109;
},
{
smooth = 0;
x = 1084;
y = 145;
},
{
segmentType = curve;
smooth = 1;
x = 1035;
y = 145;
},
{
segmentType = line;
smooth = 0;
x = 353;
y = 145;
},
{
segmentType = line;
smooth = 0;
x = 353;
y = 662;
},
{
segmentType = line;
smooth = 1;
x = 975;
y = 662;
},
{
smooth = 0;
x = 1024;
y = 662;
},
{
smooth = 0;
x = 1049;
y = 698;
},
{
segmentType = curve;
smooth = 1;
x = 1049;
y = 734;
},
{
smooth = 0;
x = 1049;
y = 770;
},
{
smooth = 0;
x = 1026;
y = 806;
},
{
segmentType = curve;
smooth = 1;
x = 975;
y = 806;
},
{
segmentType = line;
smooth = 0;
x = 353;
y = 806;
},
{
segmentType = line;
smooth = 0;
x = 353;
y = 1281;
},
{
segmentType = line;
smooth = 1;
x = 1007;
y = 1281;
},
{
smooth = 0;
x = 1056;
y = 1281;
},
{
smooth = 0;
x = 1080;
y = 1317;
},
{
segmentType = curve;
smooth = 1;
x = 1080;
y = 1354;
},
{
smooth = 0;
x = 1080;
y = 1390;
},
{
smooth = 0;
x = 1056;
y = 1426;
},
{
segmentType = curve;
smooth = 1;
x = 1007;
y = 1426;
},
{
segmentType = line;
smooth = 1;
x = 261;
y = 1426;
},
{
smooth = 0;
x = 213;
y = 1426;
},
{
smooth = 0;
x = 178;
y = 1383;
},
{
segmentType = curve;
smooth = 1;
x = 178;
y = 1340;
},
{
segmentType = line;
smooth = 1;
x = 178;
y = 86;
},
{
smooth = 0;
x = 178;
y = 41;
},
{
smooth = 0;
x = 222;
y = 0;
}
);
}
);
lib = {
};
name = B;
unicodes = (
);
width = 1292;
};
};
components = (
);
contours = {
};
lib = {
};
name = B;
points = {
};
segmentType = curve;
unicodes = (
);
width = 1395;
x = 676;
y = 1260;
};
},
{
color = 3;
glyphname = C;
lastChange = "2016-09-13 09:57:33 +0000";
layers = (
{
anchors = (
{
name = bottom;
position = "{382, 0}";
},
{
name = top;
position = "{438, 705}";
}
);
background = {
anchors = (
{
name = bottom;
position = "{982, 0}";
},
{
name = top;
position = "{1038, 705}";
}
);
paths = (
{
closed = 1;
nodes = (
"1079 -8 OFFCURVE",
"1164 23 OFFCURVE",
"1230 85 CURVE",
"1209 129 LINE",
"1135 66 OFFCURVE",
"1069 41 OFFCURVE",
"986 41 CURVE SMOOTH",
"820 41 OFFCURVE",
"734 155 OFFCURVE",
"750 353 CURVE SMOOTH",
"766 550 OFFCURVE",
"870 664 OFFCURVE",
"1035 664 CURVE SMOOTH",
"1118 664 OFFCURVE",
"1180 639 OFFCURVE",
"1244 576 CURVE",
"1272 620 LINE",
"1216 682 OFFCURVE",
"1136 713 OFFCURVE",
"1039 713 CURVE SMOOTH",
"843 713 OFFCURVE",
"710 578 OFFCURVE",
"693 353 CURVE SMOOTH",
"676 128 OFFCURVE",
"786 -8 OFFCURVE",
"982 -8 CURVE SMOOTH"
);
},
{
closed = 1;
nodes = (
"585 -8 OFFCURVE",
"719 149 OFFCURVE",
"719 395 CURVE SMOOTH",
"719 594 OFFCURVE",
"610 713 OFFCURVE",
"430 713 CURVE SMOOTH",
"224 713 OFFCURVE",
"91 557 OFFCURVE",
"91 311 CURVE SMOOTH",
"91 112 OFFCURVE",
"200 -8 OFFCURVE",
"379 -8 CURVE SMOOTH"
);
},
{
closed = 1;
nodes = (
"233 42 OFFCURVE",
"148 142 OFFCURVE",
"148 315 CURVE SMOOTH",
"148 531 OFFCURVE",
"254 663 OFFCURVE",
"429 663 CURVE SMOOTH",
"577 663 OFFCURVE",
"662 565 OFFCURVE",
"662 394 CURVE SMOOTH",
"662 174 OFFCURVE",
"556 42 OFFCURVE",
"380 42 CURVE SMOOTH"
);
}
);
};
layerId = "9E718F8A-2CEA-4931-B05D-987794BD97DA";
paths = (
{
closed = 1;
nodes = (
"483 -8 OFFCURVE",
"565 24 OFFCURVE",
"630 85 CURVE",
"609 129 LINE",
"535 66 OFFCURVE",
"468 40 OFFCURVE",
"382 41 CURVE SMOOTH",
"233 42 OFFCURVE",
"148 142 OFFCURVE",
"148 315 CURVE SMOOTH",
"148 533 OFFCURVE",
"255 664 OFFCURVE",
"435 664 CURVE SMOOTH",
"517 664 OFFCURVE",
"579 638 OFFCURVE",
"644 576 CURVE",
"672 620 LINE",
"613 682 OFFCURVE",
"532 713 OFFCURVE",
"435 713 CURVE SMOOTH",
"224 713 OFFCURVE",
"91 557 OFFCURVE",
"91 311 CURVE SMOOTH",
"91 112 OFFCURVE",
"200 -8 OFFCURVE",
"382 -8 CURVE SMOOTH"
);
}
);
width = 677;
},
{
anchors = (
{
name = bottom;
position = "{395, 0}";
},
{
name = top;
position = "{450, 705}";
}
);
background = {
anchors = (
{
name = bottom;
position = "{395, 0}";
},
{
name = top;
position = "{450, 705}";
}
);
paths = (
{
closed = 1;
nodes = (
"494 -9 OFFCURVE",
"588 21 OFFCURVE",
"647 71 CURVE",
"605 186 LINE",
"539 140 OFFCURVE",
"478 120 OFFCURVE",
"414 120 CURVE SMOOTH",
"291 120 OFFCURVE",
"229 200 OFFCURVE",
"241 353 CURVE SMOOTH",
"253 506 OFFCURVE",
"328 585 OFFCURVE",
"451 585 CURVE SMOOTH",
"515 585 OFFCURVE",
"572 565 OFFCURVE",
"631 519 CURVE",
"691 634 LINE",
"640 684 OFFCURVE",
"551 714 OFFCURVE",
"458 714 CURVE SMOOTH",
"240 714 OFFCURVE",
"94 571 OFFCURVE",
"77 353 CURVE SMOOTH",
"60 135 OFFCURVE",
"183 -9 OFFCURVE",
"401 -9 CURVE SMOOTH"
);
}
);
};
layerId = "E1B555A7-F4E1-459C-9C1A-AE952106EEF9";
paths = (
{
closed = 1;
nodes = (
"494 -9 OFFCURVE",
"588 21 OFFCURVE",
"647 71 CURVE",
"605 186 LINE",
"539 140 OFFCURVE",
"478 120 OFFCURVE",
"414 120 CURVE SMOOTH",
"291 120 OFFCURVE",
"229 200 OFFCURVE",
"241 353 CURVE SMOOTH",
"253 506 OFFCURVE",
"328 585 OFFCURVE",
"451 585 CURVE SMOOTH",
"515 585 OFFCURVE",
"572 565 OFFCURVE",
"631 519 CURVE",
"691 634 LINE",
"640 684 OFFCURVE",
"551 714 OFFCURVE",
"458 714 CURVE SMOOTH",
"240 714 OFFCURVE",
"94 571 OFFCURVE",
"77 353 CURVE SMOOTH",
"60 135 OFFCURVE",
"183 -9 OFFCURVE",
"401 -9 CURVE SMOOTH"
);
}
);
width = 678;
}
);
leftKerningGroup = O;
leftMetricsKey = O;
rightKerningGroup = C;
unicode = 0043;
userData = {
anchors = (
);
b = {
};
com.typemytype.robofont.layerData = {
b = {
anchors = (
);
components = (
);
contours = (
);
lib = {
};
name = C;
unicodes = (
);
width = 1353.8900;
};
};
components = (
);
contours = (
);
lib = {
};
name = C;
unicodes = (
);
width = 1354;
};
},
{
color = 3;
glyphname = D;
lastChange = "2016-09-13 10:32:43 +0000";
layers = (
{
anchors = (
{
name = bottom;
position = "{365, 0}";
},
{
name = center;
position = "{393, 353}";
},
{
name = top;
position = "{419, 705}";
}
);
background = {
anchors = (
{
name = bottom;
position = "{1065, 0}";
},
{
name = center;
position = "{1093, 353}";
},
{
name = top;
position = "{1119, 705}";
}
);
paths = (
{
closed = 1;
nodes = (
"1016 0 LINE SMOOTH",
"1238 0 OFFCURVE",
"1374 127 OFFCURVE",
"1392 353 CURVE SMOOTH",
"1410 579 OFFCURVE",
"1294 705 OFFCURVE",
"1071 705 CURVE SMOOTH",
"848 705 LINE",
"793 0 LINE"
);
},
{
closed = 1;
nodes = (
"899 657 LINE",
"1066 657 LINE SMOOTH",
"1261 657 OFFCURVE",
"1351 555 OFFCURVE",
"1335 353 CURVE SMOOTH",
"1319 151 OFFCURVE",
"1212 48 OFFCURVE",
"1018 48 CURVE SMOOTH",
"851 48 LINE"
);
},
{
closed = 1;
nodes = (
"320 0 LINE SMOOTH",
"540 0 OFFCURVE",
"674 123 OFFCURVE",
"692 348 CURVE SMOOTH",
"710 575 OFFCURVE",
"592 705 OFFCURVE",
"367 705 CURVE SMOOTH",
"148 705 LINE",
"93 0 LINE"
);
},
{
closed = 1;
nodes = (
"199 657 LINE",
"366 657 LINE SMOOTH",
"559 657 OFFCURVE",
"651 551 OFFCURVE",
"635 348 CURVE SMOOTH",
"619 147 OFFCURVE",
"514 48 OFFCURVE",
"318 48 CURVE SMOOTH",
"151 48 LINE"
);
}
);
};
layerId = "9E718F8A-2CEA-4931-B05D-987794BD97DA";
paths = (
{
closed = 1;
nodes = (
"320 0 LINE SMOOTH",
"563 0 OFFCURVE",
"694 151 OFFCURVE",
"694 392 CURVE SMOOTH",
"694 592 OFFCURVE",
"577 705 OFFCURVE",
"367 705 CURVE SMOOTH",
"148 705 LINE",
"93 0 LINE"
);
},
{
closed = 1;
nodes = (
"199 657 LINE",
"366 657 LINE SMOOTH",
"545 657 OFFCURVE",
"637 566 OFFCURVE",
"637 392 CURVE SMOOTH",
"637 176 OFFCURVE",
"537 48 OFFCURVE",
"318 48 CURVE SMOOTH",
"151 48 LINE"
);
}
);
width = 729;
},
{
anchors = (
{
name = bottom;
position = "{382, 0}";
},
{
name = center;
position = "{410, 353}";
},
{
name = top;
position = "{437, 705}";
}
);
background = {
anchors = (
{
name = bottom;
position = "{382, 0}";
},
{
name = center;
position = "{410, 353}";
},
{
name = top;
position = "{437, 705}";
}
);
paths = (
{
closed = 1;
nodes = (
"345 0 LINE SMOOTH",
"579 0 OFFCURVE",
"726 131 OFFCURVE",
"744 353 CURVE SMOOTH",
"761 574 OFFCURVE",
"633 705 OFFCURVE",
"400 705 CURVE SMOOTH",
"124 705 LINE",
"69 0 LINE"
);
},
{
closed = 1;
nodes = (
"275 575 LINE",
"379 575 LINE SMOOTH",
"527 575 OFFCURVE",
"595 502 OFFCURVE",
"583 353 CURVE SMOOTH",
"571 204 OFFCURVE",
"492 130 OFFCURVE",
"344 130 CURVE SMOOTH",
"240 130 LINE"
);
}
);
};
layerId = "E1B555A7-F4E1-459C-9C1A-AE952106EEF9";
paths = (
{
closed = 1;
nodes = (
"345 0 LINE SMOOTH",
"579 0 OFFCURVE",
"726 131 OFFCURVE",
"744 353 CURVE SMOOTH",
"761 574 OFFCURVE",
"633 705 OFFCURVE",
"400 705 CURVE SMOOTH",
"124 705 LINE",
"69 0 LINE"
);
},
{
closed = 1;
nodes = (
"275 575 LINE",
"379 575 LINE SMOOTH",
"527 575 OFFCURVE",
"595 502 OFFCURVE",
"583 353 CURVE SMOOTH",
"571 204 OFFCURVE",
"492 130 OFFCURVE",
"344 130 CURVE SMOOTH",
"240 130 LINE"
);
}
);
width = 765;
}
);
leftKerningGroup = H;
leftMetricsKey = I;
rightKerningGroup = O;
rightMetricsKey = O;
unicode = 0044;
userData = {
anchors = (
);
b = {
};
com.typemytype.robofont.layerData = {
b = {
anchors = (
);
components = (
);
contours = (
{
points = (
{
segmentType = curve;
smooth = 1;
x = 266;
y = 0;
},
{
segmentType = line;
smooth = 1;
x = 1035;
y = 0;
},
{
smooth = 0;
x = 1084;
y = 0;
},
{
smooth = 0;
x = 1108;
y = 34;
},
{
segmentType = curve;
smooth = 1;
x = 1108;
y = 71;
},
{
smooth = 0;
x = 1108;
y = 107;
},
{
smooth = 0;
x = 1084;
y = 141;
},
{
segmentType = curve;
smooth = 1;
x = 1035;
y = 141;
},
{
segmentType = line;
smooth = 0;
x = 356;
y = 141;
},
{
segmentType = line;
smooth = 0;
x = 356;
y = 665;
},
{
segmentType = line;
smooth = 1;
x = 975;
y = 665;
},
{
smooth = 0;
x = 1024;
y = 665;
},
{
smooth = 0;
x = 1049;
y = 698;
},
{
segmentType = curve;
smooth = 1;
x = 1049;
y = 734;
},
{
smooth = 0;
x = 1049;
y = 770;
},
{
smooth = 0;
x = 1026;
y = 803;
},
{
segmentType = curve;
smooth = 1;
x = 975;
y = 803;
},
{
segmentType = line;
smooth = 0;
x = 356;
y = 803;
},
{
segmentType = line;
smooth = 0;
x = 356;
y = 1285;
},
{
segmentType = line;
smooth = 1;
x = 1007;
y = 1285;
},
{
smooth = 0;
x = 1056;
y = 1285;
},
{
smooth = 0;
x = 1080;
y = 1319;
},
{
segmentType = curve;
smooth = 1;
x = 1080;
y = 1356;
},
{
smooth = 0;
x = 1080;
y = 1392;
},
{
smooth = 0;
x = 1056;
y = 1426;
},
{
segmentType = curve;
smooth = 1;
x = 1007;
y = 1426;
},
{
segmentType = line;
smooth = 1;
x = 261;
y = 1426;
},
{
smooth = 0;
x = 213;
y = 1426;
},
{
smooth = 0;
x = 178;
y = 1383;
},
{
segmentType = curve;
smooth = 1;
x = 178;
y = 1340;
},
{
segmentType = line;
smooth = 1;
x = 178;
y = 86;
},
{
smooth = 0;
x = 178;
y = 41;
},
{
smooth = 0;
x = 222;
y = 0;
}
);
}
);
lib = {
};
name = D;
unicodes = (
);
width = 1499;
};
};
components = (
);
contours = (
);
lib = {
};
name = D;
unicodes = (
);
width = 1535;
};
},
{
color = 3;
glyphname = Eth;
lastChange = "2016-09-13 11:33:09 +0000";
layers = (
{
background = {
paths = (
{
closed = 1;
nodes = (
"375 335 LINE",
"379 381 LINE",
"35 381 LINE",
"31 335 LINE"
);
},
{
closed = 1;
nodes = (
"323 0 LINE SMOOTH",
"545 0 OFFCURVE",
"681 127 OFFCURVE",
"699 353 CURVE SMOOTH",
"717 579 OFFCURVE",
"601 705 OFFCURVE",
"378 705 CURVE SMOOTH",
"155 705 LINE",
"100 0 LINE"
);
},
{
closed = 1;
nodes = (
"206 657 LINE",
"373 657 LINE SMOOTH",
"568 657 OFFCURVE",
"658 555 OFFCURVE",
"642 353 CURVE SMOOTH",
"626 151 OFFCURVE",
"519 48 OFFCURVE",
"325 48 CURVE SMOOTH",
"158 48 LINE"
);
}
);
};
layerId = "9E718F8A-2CEA-4931-B05D-987794BD97DA";
paths = (
{
closed = 1;
nodes = (
"375 335 LINE",
"379 381 LINE",
"35 381 LINE",
"31 335 LINE"
);
},
{
closed = 1;
nodes = (
"327 0 LINE SMOOTH",
"570 0 OFFCURVE",
"701 151 OFFCURVE",
"701 392 CURVE SMOOTH",
"701 592 OFFCURVE",
"584 705 OFFCURVE",
"374 705 CURVE SMOOTH",
"155 705 LINE",
"100 0 LINE"
);
},
{
closed = 1;
nodes = (
"206 657 LINE",
"373 657 LINE SMOOTH",
"552 657 OFFCURVE",
"644 566 OFFCURVE",
"644 392 CURVE SMOOTH",
"644 176 OFFCURVE",
"544 48 OFFCURVE",
"325 48 CURVE SMOOTH",
"158 48 LINE"
);
}
);
width = 736;
},
{
background = {
paths = (
{
closed = 1;
nodes = (
"469 295 LINE",
"479 417 LINE",
"48 417 LINE",
"38 295 LINE"
);
},
{
closed = 1;
nodes = (
"376 0 LINE SMOOTH",
"610 0 OFFCURVE",
"757 131 OFFCURVE",
"775 353 CURVE SMOOTH",
"792 574 OFFCURVE",
"664 705 OFFCURVE",
"431 705 CURVE SMOOTH",
"155 705 LINE",
"100 0 LINE"
);
},
{
closed = 1;
nodes = (
"306 575 LINE",
"410 575 LINE SMOOTH",
"558 575 OFFCURVE",
"626 502 OFFCURVE",
"614 353 CURVE SMOOTH",
"602 204 OFFCURVE",
"523 130 OFFCURVE",
"375 130 CURVE SMOOTH",
"271 130 LINE"
);
}
);
};
layerId = "E1B555A7-F4E1-459C-9C1A-AE952106EEF9";
paths = (
{
closed = 1;
nodes = (
"469 295 LINE",
"479 417 LINE",
"48 417 LINE",
"38 295 LINE"
);
},
{
closed = 1;
nodes = (
"376 0 LINE SMOOTH",
"610 0 OFFCURVE",
"757 131 OFFCURVE",
"775 353 CURVE SMOOTH",
"792 574 OFFCURVE",
"664 705 OFFCURVE",
"431 705 CURVE SMOOTH",
"155 705 LINE",
"100 0 LINE"
);
},
{
closed = 1;
nodes = (
"306 575 LINE",
"410 575 LINE SMOOTH",
"558 575 OFFCURVE",
"626 502 OFFCURVE",
"614 353 CURVE SMOOTH",
"602 204 OFFCURVE",
"523 130 OFFCURVE",
"375 130 CURVE SMOOTH",
"271 130 LINE"
);
}
);
width = 796;
}
);
leftKerningGroup = H;
rightKerningGroup = O;
rightMetricsKey = O;
unicode = 00D0;
},
{
glyphname = E;
lastChange = "2016-09-13 11:37:10 +0000";
layers = (
{
anchors = (
{
name = bottom;
position = "{321, 0}";
},
{
name = ogonek;
position = "{506, 10}";
},
{
name = top;
position = "{376, 705}";
},
{
name = topleft;
position = "{81, 705}";
}
);
background = {
anchors = (
{
name = bottom;
position = "{321, 0}";
},
{
name = ogonek;
position = "{506, 10}";
},
{
name = top;
position = "{376, 705}";
},
{
name = topleft;
position = "{81, 705}";
}
);
paths = (
{
closed = 1;
nodes = (
"524 0 LINE",
"528 48 LINE",
"151 48 LINE",
"173 334 LINE",
"530 334 LINE",
"534 382 LINE",
"177 382 LINE",
"199 657 LINE",
"576 657 LINE",
"579 705 LINE",
"148 705 LINE",
"93 0 LINE"
);
}
);
};
guideLines = (
{
angle = 90;
position = "{568, 247}";
}
);
layerId = "9E718F8A-2CEA-4931-B05D-987794BD97DA";
paths = (
{
closed = 1;
nodes = (
"161 334 LINE",
"530 334 LINE",
"534 382 LINE",
"165 382 LINE"
);
},
{
closed = 1;
nodes = (
"199 657 LINE",
"576 657 LINE",
"579 705 LINE",
"148 705 LINE",
"93 0 LINE",
"524 0 LINE",
"528 48 LINE",
"151 48 LINE"
);
}
);
width = 578;
},
{
anchors = (
{
name = bottom;
position = "{331, 0}";
},
{
name = ogonek;
position = "{537, 10}";
},
{
name = top;
position = "{386, 705}";
},
{
name = topleft;
position = "{76, 705}";
}
);
background = {
anchors = (
{
name = bottom;
position = "{331, 0}";
},
{
name = ogonek;
position = "{537, 10}";
},
{
name = top;
position = "{386, 705}";
},
{
name = topleft;
position = "{76, 705}";
}
);
paths = (
{
closed = 1;
nodes = (
"558 0 LINE",
"568 125 LINE",
"236 125 LINE",
"249 296 LINE",
"561 296 LINE",
"571 421 LINE",
"259 421 LINE",
"272 580 LINE",
"604 580 LINE",
"613 705 LINE",
"124 705 LINE",
"69 0 LINE"
);
}
);
};
guideLines = (
{
angle = 90;
position = "{709, 607}";
}
);
layerId = "E1B555A7-F4E1-459C-9C1A-AE952106EEF9";
paths = (
{
closed = 1;
nodes = (
"272 580 LINE",
"604 580 LINE",
"613 705 LINE",
"124 705 LINE",
"69 0 LINE",
"558 0 LINE",
"568 125 LINE",
"236 125 LINE"
);
},
{
closed = 1;
nodes = (
"233 296 LINE",
"561 296 LINE",
"571 421 LINE",
"243 421 LINE"
);
}
);
width = 594;
}
);
leftKerningGroup = H;
leftMetricsKey = H;
rightKerningGroup = E;
unicode = 0045;
userData = {
anchors = (
);
b = {
};
com.typemytype.robofont.layerData = {
b = {
anchors = (
);
components = (
);
contours = (
);
lib = {
};
name = E;
unicodes = (
);
width = 1234;
};
};
components = (
);
contours = (
);
lib = {
};
name = E;
unicodes = (
);
width = 1258;
};
},
{
glyphname = Eogonek;
lastChange = "2016-09-13 11:37:38 +0000";
layers = (
{
anchors = (
{
name = top;
position = "{376, 705}";
}
);
background = {
anchors = (
{
name = top;
position = "{376, 705}";
}
);
paths = (
{
closed = 1;
nodes = (
"508 -142 OFFCURVE",
"485 -148 OFFCURVE",
"469 -148 CURVE SMOOTH",
"429 -148 OFFCURVE",
"403 -125 OFFCURVE",
"407 -82 CURVE SMOOTH",
"410 -36 OFFCURVE",
"445 0 OFFCURVE",
"511 0 CURVE SMOOTH",
"524 0 LINE",
"528 48 LINE",
"151 48 LINE",
"173 334 LINE",
"530 334 LINE",
"534 382 LINE",
"177 382 LINE",
"199 657 LINE",
"576 657 LINE",
"579 705 LINE",
"148 705 LINE",
"93 0 LINE",
"448 0 LINE",
"433 19 LINE",
"387 -5 OFFCURVE",
"360 -42 OFFCURVE",
"356 -88 CURVE SMOOTH",
"351 -148 OFFCURVE",
"393 -191 OFFCURVE",
"461 -191 CURVE SMOOTH",
"494 -191 OFFCURVE",
"523 -181 OFFCURVE",
"543 -168 CURVE",
"530 -130 LINE"
);
}
);
};
layerId = "9E718F8A-2CEA-4931-B05D-987794BD97DA";
paths = (
{
closed = 1;
nodes = (
"161 334 LINE",
"530 334 LINE",
"534 382 LINE",
"165 382 LINE"
);
},
{
closed = 1;
nodes = (
"199 657 LINE",
"576 657 LINE",
"579 705 LINE",
"148 705 LINE",
"93 0 LINE",
"448 0 LINE",
"433 19 LINE",
"387 -5 OFFCURVE",
"360 -42 OFFCURVE",
"356 -88 CURVE SMOOTH",
"351 -148 OFFCURVE",
"393 -191 OFFCURVE",
"461 -191 CURVE SMOOTH",
"494 -191 OFFCURVE",
"523 -181 OFFCURVE",
"543 -168 CURVE",
"530 -130 LINE",
"508 -142 OFFCURVE",
"485 -148 OFFCURVE",
"469 -148 CURVE SMOOTH",
"429 -148 OFFCURVE",
"403 -125 OFFCURVE",
"407 -82 CURVE SMOOTH",
"410 -36 OFFCURVE",
"445 0 OFFCURVE",
"511 0 CURVE SMOOTH",
"524 0 LINE",
"528 48 LINE",
"151 48 LINE"
);
}
);
width = 578;
},
{
anchors = (
{
name = top;
position = "{386, 705}";
}
);
background = {
anchors = (
{
name = top;
position = "{386, 705}";
}
);
paths = (
{
closed = 1;
nodes = (
"552 -113 OFFCURVE",
"534 -117 OFFCURVE",
"517 -117 CURVE SMOOTH",
"479 -117 OFFCURVE",
"459 -99 OFFCURVE",
"462 -64 CURVE SMOOTH",
"465 -25 OFFCURVE",
"494 0 OFFCURVE",
"536 0 CURVE SMOOTH",
"558 0 LINE",
"568 125 LINE",
"236 125 LINE",
"249 296 LINE",
"561 296 LINE",
"571 421 LINE",
"259 421 LINE",
"272 580 LINE",
"604 580 LINE",
"613 705 LINE",
"124 705 LINE",
"69 0 LINE",
"452 0 LINE",
"436 20 LINE",
"390 -5 OFFCURVE",
"365 -42 OFFCURVE",
"361 -87 CURVE SMOOTH",
"356 -151 OFFCURVE",
"405 -197 OFFCURVE",
"480 -197 CURVE SMOOTH",
"516 -197 OFFCURVE",
"552 -190 OFFCURVE",
"583 -177 CURVE",
"572 -105 LINE"
);
}
);
};
layerId = "E1B555A7-F4E1-459C-9C1A-AE952106EEF9";
paths = (
{
closed = 1;
nodes = (
"233 296 LINE",
"561 296 LINE",
"571 421 LINE",
"243 421 LINE"
);
},
{
closed = 1;
nodes = (
"272 580 LINE",
"604 580 LINE",
"613 705 LINE",
"124 705 LINE",
"69 0 LINE",
"452 0 LINE",
"436 20 LINE",
"390 -5 OFFCURVE",
"365 -42 OFFCURVE",
"361 -87 CURVE SMOOTH",
"356 -151 OFFCURVE",
"405 -197 OFFCURVE",
"480 -197 CURVE SMOOTH",
"516 -197 OFFCURVE",
"552 -190 OFFCURVE",
"583 -177 CURVE",
"572 -105 LINE",
"552 -113 OFFCURVE",
"534 -117 OFFCURVE",
"517 -117 CURVE SMOOTH",
"479 -117 OFFCURVE",
"459 -99 OFFCURVE",
"462 -64 CURVE SMOOTH",
"465 -25 OFFCURVE",
"494 0 OFFCURVE",
"536 0 CURVE SMOOTH",
"558 0 LINE",
"568 125 LINE",
"236 125 LINE"
);
}
);
width = 594;
}
);
leftKerningGroup = H;
leftMetricsKey = E;
widthMetricsKey = E;
rightKerningGroup = E;
unicode = 0118;
userData = {
com.typemytype.robofont.layerData = {
b = {
anchors = (
);
components = (
);
contours = (
);
lib = {
};
name = Eogonek;
unicodes = (
);
width = 1234;
};
};
};
},
{
glyphname = F;
lastChange = "2016-09-13 11:37:55 +0000";
layers = (
{
anchors = (
{
name = bottom;
position = "{306, 0}";
},
{
name = top;
position = "{340, 705}";
}
);
background = {
anchors = (
{
name = bottom;
position = "{306, 0}";
},
{
name = top;
position = "{340, 705}";
}
);
paths = (
{
closed = 1;
nodes = (
"147 0 LINE",
"173 334 LINE",
"520 334 LINE",
"524 382 LINE",
"177 382 LINE",
"199 657 LINE",
"566 657 LINE",
"569 705 LINE",
"148 705 LINE",
"93 0 LINE"
);
}
);
};
layerId = "9E718F8A-2CEA-4931-B05D-987794BD97DA";
paths = (
{
closed = 1;
nodes = (
"161 334 LINE",
"520 334 LINE",
"524 382 LINE",
"165 382 LINE"
);
},
{
closed = 1;
nodes = (
"199 657 LINE",
"566 657 LINE",
"569 705 LINE",
"148 705 LINE",
"93 0 LINE",
"147 0 LINE"
);
}
);
width = 551;
},
{
anchors = (
{
name = bottom;
position = "{316, 0}";
},
{
name = top;
position = "{343, 705}";
}
);
background = {
anchors = (
{
name = bottom;
position = "{316, 0}";
},
{
name = top;
position = "{343, 705}";
}
);
paths = (
{
closed = 1;
nodes = (
"228 0 LINE",
"251 295 LINE",
"551 295 LINE",
"561 422 LINE",
"261 422 LINE",
"273 578 LINE",
"593 578 LINE",
"603 705 LINE",
"124 705 LINE",
"69 0 LINE"
);
}
);
};
layerId = "E1B555A7-F4E1-459C-9C1A-AE952106EEF9";
paths = (
{
closed = 1;
nodes = (
"235 295 LINE",
"551 295 LINE",
"561 422 LINE",
"245 422 LINE"
);
},
{
closed = 1;
nodes = (
"273 578 LINE",
"593 578 LINE",
"603 705 LINE",
"124 705 LINE",
"69 0 LINE",
"228 0 LINE"
);
}
);
width = 573;
}
);
leftKerningGroup = H;
leftMetricsKey = H;
rightKerningGroup = F;
unicode = 0046;
userData = {
anchors = (
);
b = {
};
com.typemytype.robofont.layerData = {
b = {
anchors = (
);
components = (
);
contours = (
{
points = (
{
segmentType = curve;
smooth = 1;
x = 266;
y = 0;
},
{
segmentType = line;
smooth = 1;
x = 1035;
y = 0;
},
{
smooth = 0;
x = 1084;
y = 0;
},
{
smooth = 0;
x = 1108;
y = 34;
},
{
segmentType = curve;
smooth = 1;
x = 1108;
y = 71;
},
{
smooth = 0;
x = 1108;
y = 107;
},
{
smooth = 0;
x = 1084;
y = 141;
},
{
segmentType = curve;
smooth = 1;
x = 1035;
y = 141;
},
{
segmentType = line;
smooth = 0;
x = 353;
y = 141;
},
{
segmentType = line;
smooth = 0;
x = 353;
y = 665;
},
{
segmentType = line;
smooth = 1;
x = 975;
y = 665;
},
{
smooth = 0;
x = 1024;
y = 665;
},
{
smooth = 0;
x = 1049;
y = 698;
},
{
segmentType = curve;
smooth = 1;
x = 1049;
y = 734;
},
{
smooth = 0;
x = 1049;
y = 770;
},
{
smooth = 0;
x = 1026;
y = 803;
},
{
segmentType = curve;
smooth = 1;
x = 975;
y = 803;
},
{
segmentType = line;
smooth = 0;
x = 353;
y = 803;
},
{
segmentType = line;
smooth = 0;
x = 353;
y = 1285;
},
{
segmentType = line;
smooth = 1;
x = 1007;
y = 1285;
},
{
smooth = 0;
x = 1056;
y = 1285;
},
{
smooth = 0;
x = 1080;
y = 1319;
},
{
segmentType = curve;
smooth = 1;
x = 1080;
y = 1356;
},
{
smooth = 0;
x = 1080;
y = 1392;
},
{
smooth = 0;
x = 1056;
y = 1426;
},
{
segmentType = curve;
smooth = 1;
x = 1007;
y = 1426;
},
{
segmentType = line;
smooth = 1;
x = 261;
y = 1426;
},
{
smooth = 0;
x = 213;
y = 1426;
},
{
smooth = 0;
x = 178;
y = 1383;
},
{
segmentType = curve;
smooth = 1;
x = 178;
y = 1340;
},
{
segmentType = line;
smooth = 1;
x = 178;
y = 86;
},
{
smooth = 0;
x = 178;
y = 41;
},
{
smooth = 0;
x = 222;
y = 0;
}
);
}
);
lib = {
};
name = F;
unicodes = (
);
width = 1142;
};
};
components = (
);
contours = (
);
lib = {
};
name = F;
unicodes = (
);
width = 1175;
};
},
{
color = 3;
glyphname = G;
lastChange = "2016-09-13 11:46:50 +0000";
layers = (
{
anchors = (
{
name = bottom;
position = "{393, 0}";
},
{
name = top;
position = "{441, 705}";
}
);
background = {
anchors = (
{
name = bottom;
position = "{393, 0}";
},
{
name = top;
position = "{441, 705}";
}
);
paths = (
{
closed = 1;
nodes = (
"1183 -8 OFFCURVE",
"1283 12 OFFCURVE",
"1336 40 CURVE",
"1361 359 LINE",
"1122 359 LINE",
"1118 311 LINE",
"1307 311 LINE",
"1286 41 LINE",
"1303 80 LINE",
"1248 56 OFFCURVE",
"1172 42 OFFCURVE",
"1096 42 CURVE SMOOTH",
"921 42 OFFCURVE",
"834 151 OFFCURVE",
"850 353 CURVE SMOOTH",
"866 551 OFFCURVE",
"970 664 OFFCURVE",
"1138 664 CURVE SMOOTH",
"1222 664 OFFCURVE",
"1284 639 OFFCURVE",
"1348 576 CURVE",
"1376 620 LINE",
"1320 682 OFFCURVE",
"1240 713 OFFCURVE",
"1144 713 CURVE SMOOTH",
"944 713 OFFCURVE",
"811 580 OFFCURVE",
"793 353 CURVE SMOOTH",
"775 126 OFFCURVE",
"886 -8 OFFCURVE",
"1092 -8 CURVE SMOOTH"
);
},
{
closed = 1;
nodes = (
"487 -8 OFFCURVE",
"569 24 OFFCURVE",
"634 85 CURVE",
"613 129 LINE",
"539 66 OFFCURVE",
"472 40 OFFCURVE",
"386 41 CURVE SMOOTH",
"237 43 OFFCURVE",
"152 142 OFFCURVE",
"152 315 CURVE SMOOTH",
"152 533 OFFCURVE",
"259 664 OFFCURVE",
"439 664 CURVE SMOOTH",
"521 664 OFFCURVE",
"583 638 OFFCURVE",
"648 576 CURVE",
"676 620 LINE",
"617 682 OFFCURVE",
"536 713 OFFCURVE",
"439 713 CURVE SMOOTH",
"228 713 OFFCURVE",
"95 557 OFFCURVE",
"95 311 CURVE SMOOTH",
"95 112 OFFCURVE",
"204 -8 OFFCURVE",
"386 -8 CURVE SMOOTH"
);
}
);
};
layerId = "9E718F8A-2CEA-4931-B05D-987794BD97DA";
paths = (
{
closed = 1;
nodes = (
"483 -8 OFFCURVE",
"579 12 OFFCURVE",
"636 40 CURVE",
"661 359 LINE",
"422 359 LINE",
"418 311 LINE",
"607 311 LINE",
"586 41 LINE",
"603 80 LINE",
"548 56 OFFCURVE",
"472 41 OFFCURVE",
"406 41 CURVE SMOOTH",
"231 42 OFFCURVE",
"148 142 OFFCURVE",
"148 315 CURVE SMOOTH",
"148 533 OFFCURVE",
"255 664 OFFCURVE",
"438 664 CURVE SMOOTH",
"521 664 OFFCURVE",
"583 638 OFFCURVE",
"648 576 CURVE",
"676 620 LINE",
"617 682 OFFCURVE",
"536 713 OFFCURVE",
"435 713 CURVE SMOOTH",
"224 713 OFFCURVE",
"91 557 OFFCURVE",
"91 311 CURVE SMOOTH",
"91 112 OFFCURVE",
"198 -8 OFFCURVE",
"407 -8 CURVE SMOOTH"
);
}
);
width = 718;
},
{
anchors = (
{
name = bottom;
position = "{415, 0}";
},
{
name = top;
position = "{463, 705}";
}
);
background = {
anchors = (
{
name = bottom;
position = "{415, 0}";
},
{
name = top;
position = "{463, 705}";
}
);
paths = (
{
closed = 1;
nodes = (
"510 -9 OFFCURVE",
"609 10 OFFCURVE",
"681 44 CURVE",
"709 391 LINE",
"429 391 LINE",
"420 279 LINE",
"556 279 LINE",
"541 88 LINE",
"580 139 LINE",
"531 123 OFFCURVE",
"479 115 OFFCURVE",
"431 115 CURVE SMOOTH",
"290 115 OFFCURVE",
"227 193 OFFCURVE",
"240 353 CURVE SMOOTH",
"252 509 OFFCURVE",
"325 586 OFFCURVE",
"459 586 CURVE SMOOTH",
"530 586 OFFCURVE",
"587 567 OFFCURVE",
"649 521 CURVE",
"709 636 LINE",
"656 685 OFFCURVE",
"565 714 OFFCURVE",
"464 714 CURVE SMOOTH",
"245 714 OFFCURVE",
"94 575 OFFCURVE",
"77 353 CURVE SMOOTH",
"59 127 OFFCURVE",
"187 -9 OFFCURVE",
"414 -9 CURVE SMOOTH"
);
}
);
};
layerId = "E1B555A7-F4E1-459C-9C1A-AE952106EEF9";
paths = (
{
closed = 1;
nodes = (
"510 -9 OFFCURVE",
"609 10 OFFCURVE",
"681 44 CURVE",
"709 391 LINE",
"429 391 LINE",
"420 279 LINE",
"556 279 LINE",
"541 88 LINE",
"580 139 LINE",
"531 123 OFFCURVE",
"479 115 OFFCURVE",
"431 115 CURVE SMOOTH",
"290 115 OFFCURVE",
"227 193 OFFCURVE",
"240 353 CURVE SMOOTH",
"252 509 OFFCURVE",
"325 586 OFFCURVE",
"459 586 CURVE SMOOTH",
"530 586 OFFCURVE",
"587 567 OFFCURVE",
"649 521 CURVE",
"709 636 LINE",
"656 685 OFFCURVE",
"565 714 OFFCURVE",
"464 714 CURVE SMOOTH",
"245 714 OFFCURVE",
"94 575 OFFCURVE",
"77 353 CURVE SMOOTH",
"59 127 OFFCURVE",
"187 -9 OFFCURVE",
"414 -9 CURVE SMOOTH"
);
}
);
width = 739;
}
);
leftKerningGroup = O;
leftMetricsKey = O;
rightKerningGroup = G;
unicode = 0047;
userData = {
anchors = (
);
b = {
};
com.typemytype.robofont.layerData = {
b = {
anchors = (
);
components = (
);
contours = (
{
points = (
{
segmentType = curve;
smooth = 1;
x = 783;
y = "-22";
},
{
smooth = 0;
x = 965;
y = "-22";
},
{
smooth = 0;
x = 1086;
y = 34;
},
{
segmentType = curve;
smooth = 1;
x = 1166;
y = 86;
},
{
smooth = 0;
x = 1270;
y = 154;
},
{
smooth = 0;
x = 1186;
y = 258;
},
{
segmentType = curve;
smooth = 1;
x = 1112;
y = 214;
},
{
smooth = 0;
x = 1024;
y = 162;
},
{
smooth = 0;
x = 939;
y = 120;
},
{
segmentType = curve;
smooth = 1;
x = 806;
y = 120;
},
{
smooth = 0;
x = 446;
y = 120;
},
{
smooth = 0;
x = 316;
y = 406;
},
{
segmentType = curve;
smooth = 1;
x = 316;
y = 706;
},
{
smooth = 0;
x = 316;
y = 1005;
},
{
smooth = 0;
x = 450;
y = 1296;
},
{
segmentType = curve;
smooth = 1;
x = 801;
y = 1296;
},
{
smooth = 0;
x = 980;
y = 1296;
},
{
smooth = 0;
x = 1053;
y = 1246;
},
{
segmentType = curve;
smooth = 1;
x = 1094;
y = 1225;
},
{
smooth = 0;
x = 1174;
y = 1184;
},
{
smooth = 0;
x = 1231;
y = 1300;
},
{
segmentType = curve;
smooth = 1;
x = 1156;
y = 1343;
},
{
smooth = 0;
x = 1106;
y = 1372;
},
{
smooth = 0;
x = 995;
y = 1438;
},
{
segmentType = curve;
smooth = 1;
x = 797;
y = 1438;
},
{
smooth = 0;
x = 359;
y = 1438;
},
{
smooth = 0;
x = 128;
y = 1093;
},
{
segmentType = curve;
smooth = 1;
x = 128;
y = 704;
},
{
smooth = 0;
x = 128;
y = 307;
},
{
smooth = 0;
x = 350;
y = "-22";
}
);
}
);
lib = {
};
name = G;
unicodes = (
);
width = 1448;
};
};
components = (
);
contours = (
);
lib = {
};
name = G;
unicodes = (
);
width = 1538;
};
},
{
glyphname = H;
lastChange = "2016-09-13 09:34:46 +0000";
layers = (
{
anchors = (
{
name = bottom;
position = "{377, 0}";
},
{
name = center;
position = "{405, 358}";
},
{
name = top;
position = "{431, 705}";
},
{
name = topleft;
position = "{81, 705}";
}
);
background = {
anchors = (
{
name = bottom;
position = "{377, 0}";
},
{
name = center;
position = "{405, 358}";
},
{
name = top;
position = "{431, 705}";
},
{
name = topleft;
position = "{81, 705}";
}
);
paths = (
{
closed = 1;
nodes = (
"660 0 LINE",
"715 705 LINE",
"661 705 LINE",
"606 0 LINE"
);
},
{
closed = 1;
nodes = (
"147 0 LINE",
"202 705 LINE",
"148 705 LINE",
"93 0 LINE"
);
},
{
closed = 1;
nodes = (
"641 334 LINE",
"645 382 LINE",
"157 382 LINE",
"153 334 LINE"
);
}
);
};
layerId = "9E718F8A-2CEA-4931-B05D-987794BD97DA";
paths = (
{
closed = 1;
nodes = (
"660 0 LINE",
"715 705 LINE",
"661 705 LINE",
"606 0 LINE"
);
},
{
closed = 1;
nodes = (
"147 0 LINE",
"202 705 LINE",
"148 705 LINE",
"93 0 LINE"
);
},
{
closed = 1;
nodes = (
"641 334 LINE",
"645 382 LINE",
"157 382 LINE",
"153 334 LINE"
);
}
);
width = 753;
},
{
anchors = (
{
name = bottom;
position = "{386, 0}";
},
{
name = center;
position = "{414, 358}";
},
{
name = top;
position = "{441, 705}";
},
{
name = topleft;
position = "{76, 705}";
}
);
background = {
anchors = (
{
name = bottom;
position = "{386, 0}";
},
{
name = center;
position = "{414, 358}";
},
{
name = top;
position = "{441, 705}";
},
{
name = topleft;
position = "{76, 705}";
}
);
paths = (
{
closed = 1;
nodes = (
"703 0 LINE",
"758 705 LINE",
"600 705 LINE",
"545 0 LINE"
);
},
{
closed = 1;
nodes = (
"227 0 LINE",
"282 705 LINE",
"124 705 LINE",
"69 0 LINE"
);
},
{
closed = 1;
nodes = (
"663 294 LINE",
"673 422 LINE",
"153 422 LINE",
"143 294 LINE"
);
}
);
};
layerId = "E1B555A7-F4E1-459C-9C1A-AE952106EEF9";
paths = (
{
closed = 1;
nodes = (
"703 0 LINE",
"758 705 LINE",
"600 705 LINE",
"545 0 LINE"
);
},
{
closed = 1;
nodes = (
"227 0 LINE",
"282 705 LINE",
"124 705 LINE",
"69 0 LINE"
);
},
{
closed = 1;
nodes = (
"663 294 LINE",
"673 422 LINE",
"153 422 LINE",
"143 294 LINE"
);
}
);
width = 772;
}
);
leftKerningGroup = H;
rightKerningGroup = H;
unicode = 0048;
userData = {
anchors = (
);
b = {
};
com.typemytype.robofont.layerData = {
b = {
anchors = (
);
components = (
);
contours = (
);
lib = {
};
name = H;
unicodes = (
);
width = 1464;
};
};
components = (
);
contours = (
);
lib = {
};
name = H;
unicodes = (
);
width = 1524;
};
},
{
glyphname = Hbar;
lastChange = "2016-09-13 09:34:46 +0000";
layers = (
{
background = {
paths = (
{
closed = 1;
nodes = (
"803 525 LINE",
"807 571 LINE",
"50 571 LINE",
"46 525 LINE"
);
},
{
closed = 1;
nodes = (
"667 0 LINE",
"722 705 LINE",
"668 705 LINE",
"613 0 LINE"
);
},
{
closed = 1;
nodes = (
"154 0 LINE",
"209 705 LINE",
"155 705 LINE",
"100 0 LINE"
);
},
{
closed = 1;
nodes = (
"649 334 LINE",
"653 382 LINE",
"165 382 LINE",
"161 334 LINE"
);
}
);
};
layerId = "9E718F8A-2CEA-4931-B05D-987794BD97DA";
paths = (
{
closed = 1;
nodes = (
"803 525 LINE",
"807 571 LINE",
"50 571 LINE",
"46 525 LINE"
);
},
{
closed = 1;
nodes = (
"667 0 LINE",
"722 705 LINE",
"668 705 LINE",
"613 0 LINE"
);
},
{
closed = 1;
nodes = (
"154 0 LINE",
"209 705 LINE",
"155 705 LINE",
"100 0 LINE"
);
},
{
closed = 1;
nodes = (
"649 334 LINE",
"653 382 LINE",
"165 382 LINE",
"161 334 LINE"
);
}
);
width = 767;
},
{
background = {
paths = (
{
closed = 1;
nodes = (
"859 507 LINE",
"868 625 LINE",
"64 625 LINE",
"55 507 LINE"
);
},
{
closed = 1;
nodes = (
"734 0 LINE",
"789 705 LINE",
"631 705 LINE",
"576 0 LINE"
);
},
{
closed = 1;
nodes = (
"258 0 LINE",
"313 705 LINE",
"155 705 LINE",
"100 0 LINE"
);
},
{
closed = 1;
nodes = (
"694 294 LINE",
"704 422 LINE",
"184 422 LINE",
"174 294 LINE"
);
}
);
};
layerId = "E1B555A7-F4E1-459C-9C1A-AE952106EEF9";
paths = (
{
closed = 1;
nodes = (
"859 507 LINE",
"868 625 LINE",
"64 625 LINE",
"55 507 LINE"
);
},
{
closed = 1;
nodes = (
"734 0 LINE",
"789 705 LINE",
"631 705 LINE",
"576 0 LINE"
);
},
{
closed = 1;
nodes = (
"258 0 LINE",
"313 705 LINE",
"155 705 LINE",
"100 0 LINE"
);
},
{
closed = 1;
nodes = (
"694 294 LINE",
"704 422 LINE",
"184 422 LINE",
"174 294 LINE"
);
}
);
width = 834;
}
);
leftKerningGroup = H;
rightKerningGroup = H;
unicode = 0126;
userData = {
com.typemytype.robofont.layerData = {
b = {
anchors = (
);
components = (
);
contours = (
);
lib = {
};
name = Hbar;
unicodes = (
);
width = 1464;
};
};
};
},
{
glyphname = I;
lastChange = "2016-09-13 09:34:46 +0000";
layers = (
{
anchors = (
{
name = bottom;
position = "{120, 0}";
},
{
name = ogonek;
position = "{145, 10}";
},
{
name = top;
position = "{175, 705}";
},
{
name = topleft;
position = "{81, 705}";
}
);
background = {
anchors = (
{
name = bottom;
position = "{120, 0}";
},
{
name = ogonek;
position = "{145, 10}";
},
{
name = top;
position = "{175, 705}";
},
{
name = topleft;
position = "{81, 705}";
}
);
paths = (
{
closed = 1;
nodes = (
"147 0 LINE",
"202 705 LINE",
"148 705 LINE",
"93 0 LINE"
);
}
);
};
layerId = "9E718F8A-2CEA-4931-B05D-987794BD97DA";
paths = (
{
closed = 1;
nodes = (
"147 0 LINE",
"202 705 LINE",
"148 705 LINE",
"93 0 LINE"
);
}
);
width = 240;
},
{
anchors = (
{
name = bottom;
position = "{149, 0}";
},
{
name = ogonek;
position = "{201, 10}";
},
{
name = top;
position = "{204, 705}";
},
{
name = topleft;
position = "{76, 705}";
}
);
background = {
anchors = (
{
name = bottom;
position = "{149, 0}";
},
{
name = ogonek;
position = "{201, 10}";
},
{
name = top;
position = "{204, 705}";
},
{
name = topleft;
position = "{76, 705}";
}
);
paths = (
{
closed = 1;
nodes = (
"230 0 LINE",
"285 705 LINE",
"124 705 LINE",
"69 0 LINE"
);
}
);
};
layerId = "E1B555A7-F4E1-459C-9C1A-AE952106EEF9";
paths = (
{
closed = 1;
nodes = (
"230 0 LINE",
"285 705 LINE",
"124 705 LINE",
"69 0 LINE"
);
}
);
width = 299;
}
);
leftKerningGroup = H;
leftMetricsKey = H;
rightKerningGroup = H;
rightMetricsKey = H;
unicode = 0049;
userData = {
anchors = (
);
b = {
};
com.typemytype.robofont.layerData = {
b = {
anchors = (
);
components = (
);
contours = (
);
lib = {
};
name = I;
unicodes = (
);
width = 592;
};
};
components = (
);
contours = (
);
lib = {
};
name = I;
unicodes = (
);
width = 637;
};
},
{
glyphname = Iogonek;
lastChange = "2016-09-13 09:34:46 +0000";
layers = (
{
background = {
paths = (
{
closed = 1;
nodes = (
"132 -191 OFFCURVE",
"161 -181 OFFCURVE",
"181 -168 CURVE",
"168 -130 LINE",
"146 -142 OFFCURVE",
"123 -148 OFFCURVE",
"107 -148 CURVE SMOOTH",
"67 -148 OFFCURVE",
"41 -125 OFFCURVE",
"45 -82 CURVE SMOOTH",
"48 -38 OFFCURVE",
"84 0 OFFCURVE",
"143 0 CURVE SMOOTH",
"147 0 LINE",
"202 705 LINE",
"148 705 LINE",
"93 0 LINE",
"110 0 LINE",
"133 38 LINE",
"48 24 OFFCURVE",
"-1 -27 OFFCURVE",
"-6 -88 CURVE SMOOTH",
"-11 -148 OFFCURVE",
"31 -191 OFFCURVE",
"99 -191 CURVE SMOOTH"
);
}
);
};
layerId = "9E718F8A-2CEA-4931-B05D-987794BD97DA";
paths = (
{
closed = 1;
nodes = (
"132 -191 OFFCURVE",
"161 -181 OFFCURVE",
"181 -168 CURVE",
"168 -130 LINE",
"146 -142 OFFCURVE",
"123 -148 OFFCURVE",
"107 -148 CURVE SMOOTH",
"67 -148 OFFCURVE",
"41 -125 OFFCURVE",
"45 -82 CURVE SMOOTH",
"48 -38 OFFCURVE",
"84 0 OFFCURVE",
"143 0 CURVE SMOOTH",
"147 0 LINE",
"202 705 LINE",
"148 705 LINE",
"93 0 LINE",
"110 0 LINE",
"133 38 LINE",
"48 24 OFFCURVE",
"-1 -27 OFFCURVE",
"-6 -88 CURVE SMOOTH",
"-11 -148 OFFCURVE",
"31 -191 OFFCURVE",
"99 -191 CURVE SMOOTH"
);
}
);
width = 240;
},
{
background = {
paths = (
{
closed = 1;
nodes = (
"181 -197 OFFCURVE",
"217 -190 OFFCURVE",
"248 -177 CURVE",
"237 -105 LINE",
"217 -113 OFFCURVE",
"199 -117 OFFCURVE",
"182 -117 CURVE SMOOTH",
"144 -117 OFFCURVE",
"124 -99 OFFCURVE",
"127 -64 CURVE SMOOTH",
"130 -27 OFFCURVE",
"164 0 OFFCURVE",
"215 0 CURVE SMOOTH",
"230 0 LINE",
"285 705 LINE",
"124 705 LINE",
"69 0 LINE",
"114 0 LINE",
"130 37 LINE",
"64 11 OFFCURVE",
"30 -35 OFFCURVE",
"26 -85 CURVE SMOOTH",
"21 -154 OFFCURVE",
"73 -197 OFFCURVE",
"145 -197 CURVE SMOOTH"
);
}
);
};
layerId = "E1B555A7-F4E1-459C-9C1A-AE952106EEF9";
paths = (
{
closed = 1;
nodes = (
"181 -197 OFFCURVE",
"217 -190 OFFCURVE",
"248 -177 CURVE",
"237 -105 LINE",
"217 -113 OFFCURVE",
"199 -117 OFFCURVE",
"182 -117 CURVE SMOOTH",
"144 -117 OFFCURVE",
"124 -99 OFFCURVE",
"127 -64 CURVE SMOOTH",
"130 -27 OFFCURVE",
"164 0 OFFCURVE",
"215 0 CURVE SMOOTH",
"230 0 LINE",
"285 705 LINE",
"124 705 LINE",
"69 0 LINE",
"114 0 LINE",
"130 37 LINE",
"64 11 OFFCURVE",
"30 -35 OFFCURVE",
"26 -85 CURVE SMOOTH",
"21 -154 OFFCURVE",
"73 -197 OFFCURVE",
"145 -197 CURVE SMOOTH"
);
}
);
width = 299;
}
);
leftKerningGroup = H;
rightKerningGroup = H;
unicode = 012E;
},
{
glyphname = J;
lastChange = "2016-09-13 09:34:46 +0000";
layers = (
{
anchors = (
{
name = bottom;
position = "{186, 0}";
},
{
name = top;
position = "{241, 705}";
}
);
background = {
anchors = (
{
name = bottom;
position = "{186, 0}";
},
{
name = top;
position = "{241, 705}";
}
);
paths = (
{
closed = 1;
nodes = (
"50 -2 LINE SMOOTH",
"155 5 OFFCURVE",
"219 70 OFFCURVE",
"227 180 CURVE SMOOTH",
"268 705 LINE",
"214 705 LINE",
"173 182 LINE SMOOTH",
"167 102 OFFCURVE",
"121 51 OFFCURVE",
"48 45 CURVE SMOOTH",
"-6 41 LINE",
"-5 -6 LINE"
);
}
);
};
layerId = "9E718F8A-2CEA-4931-B05D-987794BD97DA";
paths = (
{
closed = 1;
nodes = (
"50 -2 LINE SMOOTH",
"155 5 OFFCURVE",
"219 70 OFFCURVE",
"227 180 CURVE SMOOTH",
"268 705 LINE",
"214 705 LINE",
"173 182 LINE SMOOTH",
"167 102 OFFCURVE",
"121 51 OFFCURVE",
"48 45 CURVE SMOOTH",
"-6 41 LINE",
"-5 -6 LINE"
);
}
);
width = 306;
},
{
anchors = (
{
name = bottom;
position = "{231, 0}";
},
{
name = top;
position = "{286, 705}";
}
);
background = {
anchors = (
{
name = bottom;
position = "{231, 0}";
},
{
name = top;
position = "{286, 705}";
}
);
paths = (
{
closed = 1;
nodes = (
"100 -5 LINE SMOOTH",
"241 3 OFFCURVE",
"318 74 OFFCURVE",
"328 207 CURVE SMOOTH",
"367 705 LINE",
"205 705 LINE",
"166 205 LINE SMOOTH",
"162 152 OFFCURVE",
"136 127 OFFCURVE",
"83 124 CURVE SMOOTH",
"5 119 LINE",
"5 -10 LINE"
);
}
);
};
layerId = "E1B555A7-F4E1-459C-9C1A-AE952106EEF9";
paths = (
{
closed = 1;
nodes = (
"100 -5 LINE SMOOTH",
"241 3 OFFCURVE",
"318 74 OFFCURVE",
"328 207 CURVE SMOOTH",
"367 705 LINE",
"205 705 LINE",
"166 205 LINE SMOOTH",
"162 152 OFFCURVE",
"136 127 OFFCURVE",
"83 124 CURVE SMOOTH",
"5 119 LINE",
"5 -10 LINE"
);
}
);
width = 381;
}
);
leftKerningGroup = J;
rightKerningGroup = J;
rightMetricsKey = H;
unicode = 004A;
userData = {
anchors = (
);
b = {
};
com.typemytype.robofont.layerData = {
b = {
anchors = (
);
components = (
);
contours = (
);
lib = {
};
name = J;
unicodes = (
);
width = 1003;
};
};
components = (
);
contours = (
);
lib = {
};
name = J;
unicodes = (
);
width = 1126;
};
},
{
glyphname = K;
lastChange = "2016-09-13 09:34:46 +0000";
layers = (
{
anchors = (
{
name = bottom;
position = "{306, 0}";
},
{
name = top;
position = "{360, 705}";
}
);
background = {
anchors = (
{
name = bottom;
position = "{306, 0}";
},
{
name = top;
position = "{360, 705}";
}
);
paths = (
{
closed = 1;
nodes = (
"607 0 LINE",
"209 379 LINE",
"204 339 LINE",
"640 705 LINE",
"567 705 LINE",
"153 357 LINE",
"532 0 LINE"
);
},
{
closed = 1;
nodes = (
"147 0 LINE",
"202 705 LINE",
"148 705 LINE",
"93 0 LINE"
);
}
);
};
layerId = "9E718F8A-2CEA-4931-B05D-987794BD97DA";
paths = (
{
closed = 1;
nodes = (
"607 0 LINE",
"209 379 LINE",
"204 339 LINE",
"640 705 LINE",
"567 705 LINE",
"153 357 LINE",
"532 0 LINE"
);
},
{
closed = 1;
nodes = (
"147 0 LINE",
"202 705 LINE",
"148 705 LINE",
"93 0 LINE"
);
}
);
width = 608;
},
{
anchors = (
{
name = bottom;
position = "{343, 0}";
},
{
name = top;
position = "{398, 705}";
}
);
background = {
anchors = (
{
name = bottom;
position = "{343, 0}";
},
{
name = top;
position = "{398, 705}";
}
);
paths = (
{
closed = 1;
nodes = (
"725 0 LINE",
"386 405 LINE",
"367 321 LINE",
"767 705 LINE",
"577 705 LINE",
"224 360 LINE",
"532 0 LINE"
);
},
{
closed = 1;
nodes = (
"230 0 LINE",
"285 705 LINE",
"124 705 LINE",
"69 0 LINE"
);
}
);
};
layerId = "E1B555A7-F4E1-459C-9C1A-AE952106EEF9";
paths = (
{
closed = 1;
nodes = (
"725 0 LINE",
"386 405 LINE",
"367 321 LINE",
"767 705 LINE",
"577 705 LINE",
"224 360 LINE",
"532 0 LINE"
);
},
{
closed = 1;
nodes = (
"230 0 LINE",
"285 705 LINE",
"124 705 LINE",
"69 0 LINE"
);
}
);
width = 682;
}
);
leftKerningGroup = H;
leftMetricsKey = H;
rightKerningGroup = K;
unicode = 004B;
userData = {
anchors = (
);
b = {
};
com.typemytype.robofont.layerData = {
b = {
anchors = (
);
components = (
);
contours = (
);
lib = {
};
name = K;
unicodes = (
);
width = 1210;
};
};
components = (
);
contours = (
);
lib = {
};
name = K;
unicodes = (
);
width = 1329;
};
},
{
glyphname = L;
lastChange = "2016-09-13 09:34:46 +0000";
layers = (
{
anchors = (
{
name = bottom;
position = "{307, 0}";
},
{
name = center;
position = "{362, 353}";
},
{
name = top;
position = "{175, 705}";
},
{
name = topright;
position = "{292, 705}";
}
);
background = {
anchors = (
{
name = bottom;
position = "{307, 0}";
},
{
name = center;
position = "{362, 353}";
},
{
name = top;
position = "{175, 705}";
},
{
name = topright;
position = "{292, 705}";
}
);
paths = (
{
closed = 1;
nodes = (
"515 0 LINE",
"519 48 LINE",
"151 48 LINE",
"202 705 LINE",
"148 705 LINE",
"93 0 LINE"
);
}
);
};
layerId = "9E718F8A-2CEA-4931-B05D-987794BD97DA";
paths = (
{
closed = 1;
nodes = (
"515 0 LINE",
"519 48 LINE",
"151 48 LINE",
"202 705 LINE",
"148 705 LINE",
"93 0 LINE"
);
}
);
width = 531;
},
{
anchors = (
{
name = bottom;
position = "{313, 0}";
},
{
name = center;
position = "{422, 353}";
},
{
name = top;
position = "{204, 705}";
},
{
name = topright;
position = "{375, 705}";
}
);
background = {
anchors = (
{
name = bottom;
position = "{313, 0}";
},
{
name = center;
position = "{422, 353}";
},
{
name = top;
position = "{204, 705}";
},
{
name = topright;
position = "{375, 705}";
}
);
paths = (
{
closed = 1;
nodes = (
"542 0 LINE",
"552 131 LINE",
"240 131 LINE",
"285 705 LINE",
"124 705 LINE",
"69 0 LINE"
);
}
);
};
layerId = "E1B555A7-F4E1-459C-9C1A-AE952106EEF9";
paths = (
{
closed = 1;
nodes = (
"542 0 LINE",
"552 131 LINE",
"240 131 LINE",
"285 705 LINE",
"124 705 LINE",
"69 0 LINE"
);
}
);
width = 565;
}
);
leftKerningGroup = H;
leftMetricsKey = H;
rightKerningGroup = L;
unicode = 004C;
userData = {
anchors = (
);
b = {
};
com.typemytype.robofont.layerData = {
b = {
anchors = (
);
components = (
);
contours = (
{
points = (
{
segmentType = curve;
smooth = 1;
x = 266;
y = 0;
},
{
segmentType = line;
smooth = 1;
x = 1035;
y = 0;
},
{
smooth = 0;
x = 1084;
y = 0;
},
{
smooth = 0;
x = 1108;
y = 34;
},
{
segmentType = curve;
smooth = 1;
x = 1108;
y = 71;
},
{
smooth = 0;
x = 1108;
y = 107;
},
{
smooth = 0;
x = 1084;
y = 141;
},
{
segmentType = curve;
smooth = 1;
x = 1035;
y = 141;
},
{
segmentType = line;
smooth = 0;
x = 356;
y = 141;
},
{
segmentType = line;
smooth = 0;
x = 356;
y = 665;
},
{
segmentType = line;
smooth = 1;
x = 975;
y = 665;
},
{
smooth = 0;
x = 1024;
y = 665;
},
{
smooth = 0;
x = 1049;
y = 698;
},
{
segmentType = curve;
smooth = 1;
x = 1049;
y = 734;
},
{
smooth = 0;
x = 1049;
y = 770;
},
{
smooth = 0;
x = 1026;
y = 803;
},
{
segmentType = curve;
smooth = 1;
x = 975;
y = 803;
},
{
segmentType = line;
smooth = 0;
x = 356;
y = 803;
},
{
segmentType = line;
smooth = 0;
x = 356;
y = 1285;
},
{
segmentType = line;
smooth = 1;
x = 1007;
y = 1285;
},
{
smooth = 0;
x = 1056;
y = 1285;
},
{
smooth = 0;
x = 1080;
y = 1319;
},
{
segmentType = curve;
smooth = 1;
x = 1080;
y = 1356;
},
{
smooth = 0;
x = 1080;
y = 1392;
},
{
smooth = 0;
x = 1056;
y = 1426;
},
{
segmentType = curve;
smooth = 1;
x = 1007;
y = 1426;
},
{
segmentType = line;
smooth = 1;
x = 261;
y = 1426;
},
{
smooth = 0;
x = 213;
y = 1426;
},
{
smooth = 0;
x = 178;
y = 1383;
},
{
segmentType = curve;
smooth = 1;
x = 178;
y = 1340;
},
{
segmentType = line;
smooth = 1;
x = 178;
y = 86;
},
{
smooth = 0;
x = 178;
y = 41;
},
{
smooth = 0;
x = 222;
y = 0;
}
);
}
);
lib = {
};
name = L;
unicodes = (
);
width = 1095;
};
};
components = (
);
contours = (
);
lib = {
};
name = L;
unicodes = (
);
width = 1169;
};
},
{
glyphname = LJ;
lastChange = "2016-09-13 09:34:46 +0000";
layers = (
{
background = {
paths = (
{
closed = 1;
nodes = (
"485 0 LINE",
"489 48 LINE",
"151 48 LINE",
"202 705 LINE",
"148 705 LINE",
"93 0 LINE"
);
},
{
closed = 1;
nodes = (
"579 -2 LINE SMOOTH",
"687 5 OFFCURVE",
"747 64 OFFCURVE",
"755 171 CURVE SMOOTH",
"797 705 LINE",
"743 705 LINE",
"701 167 LINE SMOOTH",
"695 91 OFFCURVE",
"654 51 OFFCURVE",
"577 45 CURVE SMOOTH",
"523 41 LINE",
"524 -6 LINE"
);
}
);
};
layerId = "9E718F8A-2CEA-4931-B05D-987794BD97DA";
paths = (
{
closed = 1;
nodes = (
"485 0 LINE",
"489 48 LINE",
"151 48 LINE",
"202 705 LINE",
"148 705 LINE",
"93 0 LINE"
);
},
{
closed = 1;
nodes = (
"579 -2 LINE SMOOTH",
"687 5 OFFCURVE",
"747 64 OFFCURVE",
"755 171 CURVE SMOOTH",
"797 705 LINE",
"743 705 LINE",
"701 167 LINE SMOOTH",
"695 91 OFFCURVE",
"654 51 OFFCURVE",
"577 45 CURVE SMOOTH",
"523 41 LINE",
"524 -6 LINE"
);
}
);
width = 835;
},
{
background = {
paths = (
{
closed = 1;
nodes = (
"512 0 LINE",
"522 131 LINE",
"240 131 LINE",
"285 705 LINE",
"124 705 LINE",
"69 0 LINE"
);
},
{
closed = 1;
nodes = (
"668 -5 LINE SMOOTH",
"809 3 OFFCURVE",
"886 74 OFFCURVE",
"896 207 CURVE SMOOTH",
"935 705 LINE",
"773 705 LINE",
"734 205 LINE SMOOTH",
"730 152 OFFCURVE",
"704 127 OFFCURVE",
"651 124 CURVE SMOOTH",
"573 119 LINE",
"573 -10 LINE"
);
}
);
};
layerId = "E1B555A7-F4E1-459C-9C1A-AE952106EEF9";
paths = (
{
closed = 1;
nodes = (
"512 0 LINE",
"522 131 LINE",
"240 131 LINE",
"285 705 LINE",
"124 705 LINE",
"69 0 LINE"
);
},
{
closed = 1;
nodes = (
"668 -5 LINE SMOOTH",
"809 3 OFFCURVE",
"886 74 OFFCURVE",
"896 207 CURVE SMOOTH",
"935 705 LINE",
"773 705 LINE",
"734 205 LINE SMOOTH",
"730 152 OFFCURVE",
"704 127 OFFCURVE",
"651 124 CURVE SMOOTH",
"573 119 LINE",
"573 -10 LINE"
);
}
);
width = 949;
}
);
leftKerningGroup = H;
leftMetricsKey = L;
rightKerningGroup = J;
rightMetricsKey = J;
unicode = 01C7;
},
{
glyphname = Lslash;
lastChange = "2016-09-13 09:34:46 +0000";
layers = (
{
background = {
paths = (
{
closed = 1;
nodes = (
"391 461 LINE",
"371 502 LINE",
"20 309 LINE",
"41 268 LINE"
);
},
{
closed = 1;
nodes = (
"522 0 LINE",
"526 48 LINE",
"158 48 LINE",
"209 705 LINE",
"155 705 LINE",
"100 0 LINE"
);
}
);
};
guideLines = (
{
position = "{440, 358}";
},
{
angle = 90;
position = "{20, 125}";
},
{
angle = 90;
position = "{274, 125}";
},
{
angle = 90;
position = "{374, 125}";
}
);
layerId = "9E718F8A-2CEA-4931-B05D-987794BD97DA";
paths = (
{
closed = 1;
nodes = (
"391 461 LINE",
"371 502 LINE",
"20 309 LINE",
"41 268 LINE"
);
},
{
closed = 1;
nodes = (
"522 0 LINE",
"526 48 LINE",
"158 48 LINE",
"209 705 LINE",
"155 705 LINE",
"100 0 LINE"
);
}
);
width = 538;
},
{
background = {
paths = (
{
closed = 1;
nodes = (
"506 454 LINE",
"456 558 LINE",
"8 311 LINE",
"58 207 LINE"
);
},
{
closed = 1;
nodes = (
"573 0 LINE",
"583 131 LINE",
"271 131 LINE",
"316 705 LINE",
"155 705 LINE",
"100 0 LINE"
);
}
);
};
guideLines = (
{
angle = 90;
position = "{494, 593}";
},
{
angle = 90;
position = "{133, 593}";
},
{
position = "{486, 716}";
},
{
angle = 90;
position = "{594, 593}";
}
);
layerId = "E1B555A7-F4E1-459C-9C1A-AE952106EEF9";
paths = (
{
closed = 1;
nodes = (
"506 454 LINE",
"456 558 LINE",
"8 311 LINE",
"58 207 LINE"
);
},
{
closed = 1;
nodes = (
"573 0 LINE",
"583 131 LINE",
"271 131 LINE",
"316 705 LINE",
"155 705 LINE",
"100 0 LINE"
);
}
);
width = 596;
}
);
leftKerningGroup = L;
rightKerningGroup = L;
rightMetricsKey = L;
unicode = 0141;
},
{
glyphname = M;
lastChange = "2016-09-13 09:34:46 +0000";
layers = (
{
anchors = (
{
name = bottom;
position = "{420, 0}";
},
{
name = top;
position = "{475, 705}";
}
);
background = {
anchors = (
{
name = bottom;
position = "{420, 0}";
},
{
name = top;
position = "{475, 705}";
}
);
paths = (
{
closed = 1;
nodes = (
"145 0 LINE",
"195 646 LINE",
"167 644 LINE",
"409 111 LINE",
"451 111 LINE",
"772 643 LINE",
"747 646 LINE",
"695 0 LINE",
"747 0 LINE",
"802 705 LINE",
"756 705 LINE",
"420 139 LINE",
"446 139 LINE",
"194 705 LINE",
"148 705 LINE",
"93 0 LINE"
);
}
);
};
layerId = "9E718F8A-2CEA-4931-B05D-987794BD97DA";
paths = (
{
closed = 1;
nodes = (
"145 0 LINE",
"195 646 LINE",
"167 644 LINE",
"409 111 LINE",
"451 111 LINE",
"772 643 LINE",
"747 646 LINE",
"695 0 LINE",
"747 0 LINE",
"802 705 LINE",
"756 705 LINE",
"420 139 LINE",
"446 139 LINE",
"194 705 LINE",
"148 705 LINE",
"93 0 LINE"
);
}
);
width = 840;
},
{
anchors = (
{
name = bottom;
position = "{421, 0}";
},
{
name = top;
position = "{476, 705}";
}
);
background = {
anchors = (
{
name = bottom;
position = "{421, 0}";
},
{
name = top;
position = "{476, 705}";
}
);
paths = (
{
closed = 1;
nodes = (
"212 0 LINE",
"249 465 LINE",
"220 456 LINE",
"378 116 LINE",
"482 116 LINE",
"691 456 LINE",
"667 465 LINE",
"630 0 LINE",
"771 0 LINE",
"826 705 LINE",
"701 705 LINE",
"424 246 LINE",
"459 246 LINE",
"253 705 LINE",
"126 705 LINE",
"71 0 LINE"
);
}
);
};
layerId = "E1B555A7-F4E1-459C-9C1A-AE952106EEF9";
leftMetricsKey = "=H+2";
rightMetricsKey = "=H+2";
paths = (
{
closed = 1;
nodes = (
"212 0 LINE",
"249 465 LINE",
"220 456 LINE",
"378 116 LINE",
"482 116 LINE",
"691 456 LINE",
"667 465 LINE",
"630 0 LINE",
"771 0 LINE",
"826 705 LINE",
"701 705 LINE",
"424 246 LINE",
"459 246 LINE",
"253 705 LINE",
"126 705 LINE",
"71 0 LINE"
);
}
);
width = 842;
}
);
leftKerningGroup = H;
leftMetricsKey = H;
rightKerningGroup = H;
rightMetricsKey = H;
unicode = 004D;
userData = {
anchors = (
);
b = {
};
com.typemytype.robofont.layerData = {
b = {
anchors = (
);
components = (
);
contours = (
);
lib = {
};
name = M;
unicodes = (
);
width = 1899;
};
};
components = (
);
contours = (
);
lib = {
};
name = M;
unicodes = (
);
width = 1984;
};
},
{
glyphname = N;
lastChange = "2016-09-13 09:34:46 +0000";
layers = (
{
anchors = (
{
name = bottom;
position = "{367, 0}";
},
{
name = top;
position = "{422, 705}";
}
);
background = {
anchors = (
{
name = bottom;
position = "{367, 0}";
},
{
name = top;
position = "{422, 705}";
}
);
paths = (
{
closed = 1;
nodes = (
"144 0 LINE",
"195 644 LINE",
"173 643 LINE",
"598 0 LINE",
"641 0 LINE",
"696 705 LINE",
"645 705 LINE",
"595 61 LINE",
"618 62 LINE",
"192 705 LINE",
"148 705 LINE",
"93 0 LINE"
);
}
);
};
layerId = "9E718F8A-2CEA-4931-B05D-987794BD97DA";
paths = (
{
closed = 1;
nodes = (
"144 0 LINE",
"195 644 LINE",
"173 643 LINE",
"598 0 LINE",
"641 0 LINE",
"696 705 LINE",
"645 705 LINE",
"595 61 LINE",
"618 62 LINE",
"192 705 LINE",
"148 705 LINE",
"93 0 LINE"
);
}
);
width = 734;
},
{
anchors = (
{
name = bottom;
position = "{377, 0}";
},
{
name = top;
position = "{431, 705}";
}
);
background = {
anchors = (
{
name = bottom;
position = "{377, 0}";
},
{
name = top;
position = "{431, 705}";
}
);
paths = (
{
closed = 1;
nodes = (
"219 0 LINE",
"258 495 LINE",
"229 474 LINE",
"564 0 LINE",
"684 0 LINE",
"739 705 LINE",
"588 705 LINE",
"550 210 LINE",
"579 230 LINE",
"242 705 LINE",
"124 705 LINE",
"69 0 LINE"
);
}
);
};
layerId = "E1B555A7-F4E1-459C-9C1A-AE952106EEF9";
paths = (
{
closed = 1;
nodes = (
"219 0 LINE",
"258 495 LINE",
"229 474 LINE",
"564 0 LINE",
"684 0 LINE",
"739 705 LINE",
"588 705 LINE",
"550 210 LINE",
"579 230 LINE",
"242 705 LINE",
"124 705 LINE",
"69 0 LINE"
);
}
);
width = 753;
}
);
leftKerningGroup = H;
leftMetricsKey = H;
rightKerningGroup = H;
rightMetricsKey = H;
unicode = 004E;
userData = {
anchors = (
);
b = {
};
com.typemytype.robofont.layerData = {
b = {
anchors = (
);
components = (
);
contours = (
);
lib = {
};
name = N;
unicodes = (
);
width = 1499;
};
};
components = (
);
contours = (
);
lib = {
};
name = N;
unicodes = (
);
width = 1557;
};
},
{
glyphname = Eng;
lastChange = "2016-09-13 09:34:46 +0000";
layers = (
{
background = {
paths = (
{
closed = 1;
nodes = (
"595 61 LINE",
"618 62 LINE",
"192 705 LINE",
"148 705 LINE",
"93 0 LINE",
"144 0 LINE",
"195 644 LINE",
"173 643 LINE",
"598 0 LINE",
"593 38 LINE",
"589 -13 LINE SMOOTH",
"583 -90 OFFCURVE",
"538 -129 OFFCURVE",
"461 -135 CURVE SMOOTH",
"408 -139 LINE",
"408 -186 LINE",
"464 -182 LINE SMOOTH",
"580 -174 OFFCURVE",
"633 -108 OFFCURVE",
"640 -9 CURVE SMOOTH",
"696 705 LINE",
"645 705 LINE"
);
}
);
};
layerId = "9E718F8A-2CEA-4931-B05D-987794BD97DA";
paths = (
{
closed = 1;
nodes = (
"595 61 LINE",
"618 62 LINE",
"192 705 LINE",
"148 705 LINE",
"93 0 LINE",
"144 0 LINE",
"195 644 LINE",
"173 643 LINE",
"598 0 LINE",
"593 38 LINE",
"589 -13 LINE SMOOTH",
"583 -90 OFFCURVE",
"538 -129 OFFCURVE",
"461 -135 CURVE SMOOTH",
"408 -139 LINE",
"408 -186 LINE",
"464 -182 LINE SMOOTH",
"580 -174 OFFCURVE",
"633 -108 OFFCURVE",
"640 -9 CURVE SMOOTH",
"696 705 LINE",
"645 705 LINE"
);
}
);
width = 734;
},
{
background = {
paths = (
{
closed = 1;
nodes = (
"550 210 LINE",
"579 230 LINE",
"242 705 LINE",
"124 705 LINE",
"69 0 LINE",
"219 0 LINE",
"258 495 LINE",
"229 474 LINE",
"560 7 LINE",
"539 91 LINE",
"534 24 LINE SMOOTH",
"530 -27 OFFCURVE",
"495 -59 OFFCURVE",
"440 -62 CURVE SMOOTH",
"363 -67 LINE",
"363 -188 LINE",
"458 -183 LINE SMOOTH",
"599 -175 OFFCURVE",
"676 -104 OFFCURVE",
"686 30 CURVE SMOOTH",
"739 705 LINE",
"588 705 LINE"
);
}
);
};
layerId = "E1B555A7-F4E1-459C-9C1A-AE952106EEF9";
paths = (
{
closed = 1;
nodes = (
"550 210 LINE",
"579 230 LINE",
"242 705 LINE",
"124 705 LINE",
"69 0 LINE",
"219 0 LINE",
"258 495 LINE",
"229 474 LINE",
"560 7 LINE",
"539 91 LINE",
"534 24 LINE SMOOTH",
"530 -27 OFFCURVE",
"495 -59 OFFCURVE",
"440 -62 CURVE SMOOTH",
"363 -67 LINE",
"363 -188 LINE",
"458 -183 LINE SMOOTH",
"599 -175 OFFCURVE",
"676 -104 OFFCURVE",
"686 30 CURVE SMOOTH",
"739 705 LINE",
"588 705 LINE"
);
}
);
width = 753;
}
);
leftKerningGroup = H;
leftMetricsKey = H;
rightKerningGroup = H;
rightMetricsKey = H;
unicode = 014A;
userData = {
com.typemytype.robofont.layerData = {
b = {
anchors = (
);
components = (
);
contours = (
);
lib = {
};
name = Eng;
unicodes = (
);
width = 1495;
};
};
};
},
{
color = 3;
glyphname = O;
lastChange = "2016-09-13 09:56:09 +0000";
layers = (
{
anchors = (
{
name = bottom;
position = "{377, 0}";
},
{
name = center;
position = "{406, 353}";
},
{
name = ogonek;
position = "{483, 10}";
},
{
name = top;
position = "{432, 705}";
},
{
name = topleft;
position = "{81, 705}";
},
{
name = topright;
position = "{462, 705}";
}
);
background = {
anchors = (
{
name = bottom;
position = "{377, 0}";
},
{
name = center;
position = "{406, 353}";
},
{
name = ogonek;
position = "{483, 10}";
},
{
name = top;
position = "{432, 705}";
},
{
name = topleft;
position = "{81, 705}";
},
{
name = topright;
position = "{462, 705}";
}
);
paths = (
{
closed = 1;
nodes = (
"1269 -8 OFFCURVE",
"1400 130 OFFCURVE",
"1418 353 CURVE SMOOTH",
"1436 576 OFFCURVE",
"1327 713 OFFCURVE",
"1133 713 CURVE SMOOTH",
"939 713 OFFCURVE",
"810 576 OFFCURVE",
"793 352 CURVE SMOOTH",
"776 130 OFFCURVE",
"884 -8 OFFCURVE",
"1076 -8 CURVE SMOOTH"
);
},
{
closed = 1;
nodes = (
"919 42 OFFCURVE",
"834 156 OFFCURVE",
"850 353 CURVE SMOOTH",
"866 550 OFFCURVE",
"968 663 OFFCURVE",
"1129 663 CURVE SMOOTH",
"1292 663 OFFCURVE",
"1376 551 OFFCURVE",
"1361 353 CURVE SMOOTH",
"1346 155 OFFCURVE",
"1242 42 OFFCURVE",
"1080 42 CURVE SMOOTH"
);
},
{
closed = 1;
nodes = (
"572 -8 OFFCURVE",
"700 130 OFFCURVE",
"717 348 CURVE SMOOTH",
"735 576 OFFCURVE",
"624 713 OFFCURVE",
"430 713 CURVE SMOOTH",
"236 713 OFFCURVE",
"110 576 OFFCURVE",
"93 357 CURVE SMOOTH",
"75 130 OFFCURVE",
"187 -8 OFFCURVE",
"379 -8 CURVE SMOOTH"
);
},
{
closed = 1;
nodes = (
"221 42 OFFCURVE",
"135 159 OFFCURVE",
"150 358 CURVE SMOOTH",
"165 553 OFFCURVE",
"266 663 OFFCURVE",
"429 663 CURVE SMOOTH",
"590 663 OFFCURVE",
"676 548 OFFCURVE",
"660 348 CURVE SMOOTH",
"644 152 OFFCURVE",
"544 42 OFFCURVE",
"380 42 CURVE SMOOTH"
);
}
);
};
layerId = "9E718F8A-2CEA-4931-B05D-987794BD97DA";
paths = (
{
closed = 1;
nodes = (
"585 -8 OFFCURVE",
"719 149 OFFCURVE",
"719 395 CURVE SMOOTH",
"719 594 OFFCURVE",
"610 713 OFFCURVE",
"430 713 CURVE SMOOTH",
"224 713 OFFCURVE",
"91 557 OFFCURVE",
"91 311 CURVE SMOOTH",
"91 112 OFFCURVE",
"200 -8 OFFCURVE",
"379 -8 CURVE SMOOTH"
);
},
{
closed = 1;
nodes = (
"233 42 OFFCURVE",
"148 142 OFFCURVE",
"148 315 CURVE SMOOTH",
"148 531 OFFCURVE",
"254 663 OFFCURVE",
"429 663 CURVE SMOOTH",
"577 663 OFFCURVE",
"662 565 OFFCURVE",
"662 394 CURVE SMOOTH",
"662 174 OFFCURVE",
"556 42 OFFCURVE",
"380 42 CURVE SMOOTH"
);
}
);
width = 755;
},
{
anchors = (
{
name = bottom;
position = "{395, 0}";
},
{
name = center;
position = "{423, 353}";
},
{
name = ogonek;
position = "{514, 10}";
},
{
name = top;
position = "{449, 705}";
},
{
name = topleft;
position = "{77, 705}";
},
{
name = topright;
position = "{480, 705}";
}
);
background = {
anchors = (
{
name = bottom;
position = "{395, 0}";
},
{
name = center;
position = "{423, 353}";
},
{
name = ogonek;
position = "{514, 10}";
},
{
name = top;
position = "{449, 705}";
},
{
name = topleft;
position = "{77, 705}";
},
{
name = topright;
position = "{480, 705}";
}
);
paths = (
{
closed = 1;
nodes = (
"607 -9 OFFCURVE",
"750 132 OFFCURVE",
"768 353 CURVE SMOOTH",
"785 574 OFFCURVE",
"664 714 OFFCURVE",
"451 714 CURVE SMOOTH",
"238 714 OFFCURVE",
"94 574 OFFCURVE",
"77 353 CURVE SMOOTH",
"59 132 OFFCURVE",
"181 -9 OFFCURVE",
"394 -9 CURVE SMOOTH"
);
},
{
closed = 1;
nodes = (
"290 116 OFFCURVE",
"225 196 OFFCURVE",
"238 353 CURVE SMOOTH",
"250 510 OFFCURVE",
"327 589 OFFCURVE",
"441 589 CURVE SMOOTH",
"555 589 OFFCURVE",
"620 509 OFFCURVE",
"608 353 CURVE SMOOTH",
"596 197 OFFCURVE",
"518 116 OFFCURVE",
"404 116 CURVE SMOOTH"
);
}
);
};
layerId = "E1B555A7-F4E1-459C-9C1A-AE952106EEF9";
paths = (
{
closed = 1;
nodes = (
"607 -9 OFFCURVE",
"750 132 OFFCURVE",
"768 353 CURVE SMOOTH",
"785 574 OFFCURVE",
"664 714 OFFCURVE",
"451 714 CURVE SMOOTH",
"238 714 OFFCURVE",
"94 574 OFFCURVE",
"77 353 CURVE SMOOTH",
"59 132 OFFCURVE",
"181 -9 OFFCURVE",
"394 -9 CURVE SMOOTH"
);
},
{
closed = 1;
nodes = (
"290 116 OFFCURVE",
"225 196 OFFCURVE",
"238 353 CURVE SMOOTH",
"250 510 OFFCURVE",
"327 589 OFFCURVE",
"441 589 CURVE SMOOTH",
"555 589 OFFCURVE",
"620 509 OFFCURVE",
"608 353 CURVE SMOOTH",
"596 197 OFFCURVE",
"518 116 OFFCURVE",
"404 116 CURVE SMOOTH"
);
}
);
width = 789;
}
);
leftKerningGroup = O;
rightKerningGroup = O;
unicode = 004F;
userData = {
anchors = (
);
b = {
};
com.typemytype.robofont.guides = (
);
com.typemytype.robofont.layerData = {
b = {
anchors = (
);
components = (
);
contours = (
);
lib = {
};
name = O;
unicodes = (
);
width = 1597;
};
};
components = (
);
contours = (
);
lib = {
};
name = O;
unicodes = (
);
width = 1604;
};
},
{
glyphname = Ohorn;
lastChange = "2016-09-13 09:34:46 +0000";
layers = (
{
anchors = (
{
name = bottom;
position = "{378, 0}";
},
{
name = top;
position = "{432, 705}";
}
);
background = {
anchors = (
{
name = bottom;
position = "{378, 0}";
},
{
name = top;
position = "{432, 705}";
}
);
paths = (
{
closed = 1;
nodes = (
"568 -8 OFFCURVE",
"700 130 OFFCURVE",
"718 353 CURVE SMOOTH",
"730 508 OFFCURVE",
"682 621 OFFCURVE",
"582 676 CURVE",
"587 663 LINE",
"685 663 OFFCURVE",
"746 717 OFFCURVE",
"754 809 CURVE SMOOTH",
"755 831 LINE",
"705 831 LINE",
"704 818 LINE SMOOTH",
"698 737 OFFCURVE",
"664 706 OFFCURVE",
"577 705 CURVE SMOOTH",
"537 705 OFFCURVE",
"485 713 OFFCURVE",
"437 713 CURVE SMOOTH",
"239 713 OFFCURVE",
"110 576 OFFCURVE",
"93 352 CURVE SMOOTH",
"75 130 OFFCURVE",
"185 -8 OFFCURVE",
"376 -8 CURVE SMOOTH"
);
},
{
closed = 1;
nodes = (
"219 42 OFFCURVE",
"134 156 OFFCURVE",
"150 353 CURVE SMOOTH",
"165 550 OFFCURVE",
"268 663 OFFCURVE",
"429 663 CURVE SMOOTH",
"592 663 OFFCURVE",
"676 551 OFFCURVE",
"661 353 CURVE SMOOTH",
"645 155 OFFCURVE",
"542 42 OFFCURVE",
"380 42 CURVE SMOOTH"
);
}
);
};
guideLines = (
{
angle = 90;
position = "{763, 464}";
}
);
layerId = "9E718F8A-2CEA-4931-B05D-987794BD97DA";
paths = (
{
closed = 1;
nodes = (
"568 -8 OFFCURVE",
"700 130 OFFCURVE",
"718 353 CURVE SMOOTH",
"730 508 OFFCURVE",
"682 621 OFFCURVE",
"582 676 CURVE",
"587 663 LINE",
"685 663 OFFCURVE",
"746 717 OFFCURVE",
"754 809 CURVE SMOOTH",
"755 831 LINE",
"705 831 LINE",
"704 818 LINE SMOOTH",
"698 737 OFFCURVE",
"664 706 OFFCURVE",
"577 705 CURVE SMOOTH",
"537 705 OFFCURVE",
"485 713 OFFCURVE",
"437 713 CURVE SMOOTH",
"239 713 OFFCURVE",
"110 576 OFFCURVE",
"93 352 CURVE SMOOTH",
"75 130 OFFCURVE",
"185 -8 OFFCURVE",
"376 -8 CURVE SMOOTH"
);
},
{
closed = 1;
nodes = (
"219 42 OFFCURVE",
"134 156 OFFCURVE",
"150 353 CURVE SMOOTH",
"165 550 OFFCURVE",
"268 663 OFFCURVE",
"429 663 CURVE SMOOTH",
"592 663 OFFCURVE",
"676 551 OFFCURVE",
"661 353 CURVE SMOOTH",
"645 155 OFFCURVE",
"542 42 OFFCURVE",
"380 42 CURVE SMOOTH"
);
}
);
width = 755;
},
{
anchors = (
{
name = bottom;
position = "{395, 0}";
},
{
name = top;
position = "{449, 705}";
}
);
background = {
anchors = (
{
name = bottom;
position = "{395, 0}";
},
{
name = top;
position = "{449, 705}";
}
);
paths = (
{
closed = 1;
nodes = (
"607 -9 OFFCURVE",
"750 132 OFFCURVE",
"768 353 CURVE SMOOTH",
"778 487 OFFCURVE",
"740 590 OFFCURVE",
"655 651 CURVE",
"638 630 LINE",
"727 630 OFFCURVE",
"795 695 OFFCURVE",
"802 787 CURVE SMOOTH",
"805 826 LINE",
"671 826 LINE",
"669 806 LINE SMOOTH",
"664 732 OFFCURVE",
"638 705 OFFCURVE",
"575 705 CURVE SMOOTH",
"531 705 OFFCURVE",
"501 714 OFFCURVE",
"453 714 CURVE SMOOTH",
"238 714 OFFCURVE",
"94 574 OFFCURVE",
"77 353 CURVE SMOOTH",
"59 132 OFFCURVE",
"181 -9 OFFCURVE",
"394 -9 CURVE SMOOTH"
);
},
{
closed = 1;
nodes = (
"290 116 OFFCURVE",
"225 196 OFFCURVE",
"238 353 CURVE SMOOTH",
"250 510 OFFCURVE",
"327 589 OFFCURVE",
"441 589 CURVE SMOOTH",
"555 589 OFFCURVE",
"620 509 OFFCURVE",
"608 353 CURVE SMOOTH",
"596 197 OFFCURVE",
"518 116 OFFCURVE",
"404 116 CURVE SMOOTH"
);
}
);
};
guideLines = (
{
angle = 90;
position = "{937, 1000}";
}
);
layerId = "E1B555A7-F4E1-459C-9C1A-AE952106EEF9";
paths = (
{
closed = 1;
nodes = (
"607 -9 OFFCURVE",
"750 132 OFFCURVE",
"768 353 CURVE SMOOTH",
"778 487 OFFCURVE",
"740 590 OFFCURVE",
"655 651 CURVE",
"638 630 LINE",
"727 630 OFFCURVE",
"795 695 OFFCURVE",
"802 787 CURVE SMOOTH",
"805 826 LINE",
"671 826 LINE",
"669 806 LINE SMOOTH",
"664 732 OFFCURVE",
"638 705 OFFCURVE",
"575 705 CURVE SMOOTH",
"531 705 OFFCURVE",
"501 714 OFFCURVE",
"453 714 CURVE SMOOTH",
"238 714 OFFCURVE",
"94 574 OFFCURVE",
"77 353 CURVE SMOOTH",
"59 132 OFFCURVE",
"181 -9 OFFCURVE",
"394 -9 CURVE SMOOTH"
);
},
{
closed = 1;
nodes = (
"290 116 OFFCURVE",
"225 196 OFFCURVE",
"238 353 CURVE SMOOTH",
"250 510 OFFCURVE",
"327 589 OFFCURVE",
"441 589 CURVE SMOOTH",
"555 589 OFFCURVE",
"620 509 OFFCURVE",
"608 353 CURVE SMOOTH",
"596 197 OFFCURVE",
"518 116 OFFCURVE",
"404 116 CURVE SMOOTH"
);
}
);
width = 789;
}
);
leftKerningGroup = O;
leftMetricsKey = O;
widthMetricsKey = O;
rightKerningGroup = O;
unicode = 01A0;
},
{
glyphname = Oogonek;
lastChange = "2016-09-13 09:34:46 +0000";
layers = (
{
anchors = (
{
name = top;
position = "{432, 705}";
}
);
background = {
anchors = (
{
name = top;
position = "{432, 705}";
}
);
paths = (
{
closed = 1;
nodes = (
"612 43 OFFCURVE",
"703 168 OFFCURVE",
"718 353 CURVE SMOOTH",
"735 576 OFFCURVE",
"626 713 OFFCURVE",
"433 713 CURVE SMOOTH",
"240 713 OFFCURVE",
"110 576 OFFCURVE",
"93 352 CURVE SMOOTH",
"74 119 OFFCURVE",
"196 -21 OFFCURVE",
"403 -7 CURVE",
"397 11 LINE",
"360 -11 OFFCURVE",
"336 -48 OFFCURVE",
"333 -88 CURVE SMOOTH",
"328 -149 OFFCURVE",
"371 -191 OFFCURVE",
"438 -191 CURVE SMOOTH",
"469 -191 OFFCURVE",
"498 -183 OFFCURVE",
"520 -168 CURVE",
"507 -130 LINE",
"485 -141 OFFCURVE",
"463 -148 OFFCURVE",
"446 -148 CURVE SMOOTH",
"404 -148 OFFCURVE",
"380 -123 OFFCURVE",
"384 -82 CURVE SMOOTH",
"387 -40 OFFCURVE",
"415 -11 OFFCURVE",
"466 3 CURVE SMOOTH"
);
},
{
closed = 1;
nodes = (
"165 550 OFFCURVE",
"268 663 OFFCURVE",
"429 663 CURVE SMOOTH",
"592 663 OFFCURVE",
"676 551 OFFCURVE",
"661 353 CURVE SMOOTH",
"645 155 OFFCURVE",
"542 42 OFFCURVE",
"380 42 CURVE SMOOTH",
"219 42 OFFCURVE",
"134 156 OFFCURVE",
"150 353 CURVE SMOOTH"
);
}
);
};
layerId = "9E718F8A-2CEA-4931-B05D-987794BD97DA";
paths = (
{
closed = 1;
nodes = (
"612 43 OFFCURVE",
"703 168 OFFCURVE",
"718 353 CURVE SMOOTH",
"735 576 OFFCURVE",
"626 713 OFFCURVE",
"433 713 CURVE SMOOTH",
"240 713 OFFCURVE",
"110 576 OFFCURVE",
"93 352 CURVE SMOOTH",
"74 119 OFFCURVE",
"196 -21 OFFCURVE",
"403 -7 CURVE",
"397 11 LINE",
"360 -11 OFFCURVE",
"336 -48 OFFCURVE",
"333 -88 CURVE SMOOTH",
"328 -149 OFFCURVE",
"371 -191 OFFCURVE",
"438 -191 CURVE SMOOTH",
"469 -191 OFFCURVE",
"498 -183 OFFCURVE",
"520 -168 CURVE",
"507 -130 LINE",
"485 -141 OFFCURVE",
"463 -148 OFFCURVE",
"446 -148 CURVE SMOOTH",
"404 -148 OFFCURVE",
"380 -123 OFFCURVE",
"384 -82 CURVE SMOOTH",
"387 -40 OFFCURVE",
"415 -11 OFFCURVE",
"466 3 CURVE SMOOTH"
);
},
{
closed = 1;
nodes = (
"165 550 OFFCURVE",
"268 663 OFFCURVE",
"429 663 CURVE SMOOTH",
"592 663 OFFCURVE",
"676 551 OFFCURVE",
"661 353 CURVE SMOOTH",
"645 155 OFFCURVE",
"542 42 OFFCURVE",
"380 42 CURVE SMOOTH",
"219 42 OFFCURVE",
"134 156 OFFCURVE",
"150 353 CURVE SMOOTH"
);
}
);
width = 755;
},
{
anchors = (
{
name = top;
position = "{449, 705}";
}
);
background = {
anchors = (
{
name = top;
position = "{449, 705}";
}
);
paths = (
{
closed = 1;
nodes = (
"659 49 OFFCURVE",
"754 175 OFFCURVE",
"768 353 CURVE SMOOTH",
"785 574 OFFCURVE",
"664 714 OFFCURVE",
"451 714 CURVE SMOOTH",
"238 714 OFFCURVE",
"94 574 OFFCURVE",
"77 353 CURVE SMOOTH",
"59 125 OFFCURVE",
"189 -16 OFFCURVE",
"410 -9 CURVE",
"399 12 LINE",
"363 -11 OFFCURVE",
"341 -48 OFFCURVE",
"338 -87 CURVE SMOOTH",
"333 -151 OFFCURVE",
"382 -197 OFFCURVE",
"457 -197 CURVE SMOOTH",
"493 -197 OFFCURVE",
"529 -190 OFFCURVE",
"560 -177 CURVE",
"549 -105 LINE",
"529 -113 OFFCURVE",
"511 -117 OFFCURVE",
"494 -117 CURVE SMOOTH",
"456 -117 OFFCURVE",
"436 -99 OFFCURVE",
"439 -64 CURVE SMOOTH",
"442 -31 OFFCURVE",
"464 -8 OFFCURVE",
"507 5 CURVE SMOOTH"
);
},
{
closed = 1;
nodes = (
"250 510 OFFCURVE",
"327 589 OFFCURVE",
"441 589 CURVE SMOOTH",
"555 589 OFFCURVE",
"620 509 OFFCURVE",
"608 353 CURVE SMOOTH",
"596 197 OFFCURVE",
"518 116 OFFCURVE",
"404 116 CURVE SMOOTH",
"290 116 OFFCURVE",
"225 196 OFFCURVE",
"238 353 CURVE SMOOTH"
);
}
);
};
layerId = "E1B555A7-F4E1-459C-9C1A-AE952106EEF9";
paths = (
{
closed = 1;
nodes = (
"659 49 OFFCURVE",
"754 175 OFFCURVE",
"768 353 CURVE SMOOTH",
"785 574 OFFCURVE",
"664 714 OFFCURVE",
"451 714 CURVE SMOOTH",
"238 714 OFFCURVE",
"94 574 OFFCURVE",
"77 353 CURVE SMOOTH",
"59 125 OFFCURVE",
"189 -16 OFFCURVE",
"410 -9 CURVE",
"399 12 LINE",
"363 -11 OFFCURVE",
"341 -48 OFFCURVE",
"338 -87 CURVE SMOOTH",
"333 -151 OFFCURVE",
"382 -197 OFFCURVE",
"457 -197 CURVE SMOOTH",
"493 -197 OFFCURVE",
"529 -190 OFFCURVE",
"560 -177 CURVE",
"549 -105 LINE",
"529 -113 OFFCURVE",
"511 -117 OFFCURVE",
"494 -117 CURVE SMOOTH",
"456 -117 OFFCURVE",
"436 -99 OFFCURVE",
"439 -64 CURVE SMOOTH",
"442 -31 OFFCURVE",
"464 -8 OFFCURVE",
"507 5 CURVE SMOOTH"
);
},
{
closed = 1;
nodes = (
"250 510 OFFCURVE",
"327 589 OFFCURVE",
"441 589 CURVE SMOOTH",
"555 589 OFFCURVE",
"620 509 OFFCURVE",
"608 353 CURVE SMOOTH",
"596 197 OFFCURVE",
"518 116 OFFCURVE",
"404 116 CURVE SMOOTH",
"290 116 OFFCURVE",
"225 196 OFFCURVE",
"238 353 CURVE SMOOTH"
);
}
);
width = 789;
}
);
leftKerningGroup = O;
leftMetricsKey = O;
rightKerningGroup = O;
rightMetricsKey = O;
unicode = 01EA;
},
{
glyphname = Oslash;
lastChange = "2016-09-13 09:34:46 +0000";
layers = (
{
anchors = (
{
name = bottom;
position = "{377, 0}";
},
{
name = top;
position = "{432, 705}";
}
);
background = {
anchors = (
{
name = bottom;
position = "{377, 0}";
},
{
name = top;
position = "{432, 705}";
}
);
paths = (
{
closed = 1;
nodes = (
"569 -8 OFFCURVE",
"700 130 OFFCURVE",
"718 353 CURVE SMOOTH",
"735 576 OFFCURVE",
"627 713 OFFCURVE",
"433 713 CURVE SMOOTH",
"239 713 OFFCURVE",
"110 576 OFFCURVE",
"93 352 CURVE SMOOTH",
"75 130 OFFCURVE",
"184 -8 OFFCURVE",
"376 -8 CURVE SMOOTH"
);
},
{
closed = 1;
nodes = (
"676 721 LINE",
"638 744 LINE",
"135 -16 LINE",
"173 -39 LINE"
);
},
{
closed = 1;
nodes = (
"219 42 OFFCURVE",
"134 156 OFFCURVE",
"150 353 CURVE SMOOTH",
"165 550 OFFCURVE",
"268 663 OFFCURVE",
"429 663 CURVE SMOOTH",
"592 663 OFFCURVE",
"676 551 OFFCURVE",
"661 353 CURVE SMOOTH",
"645 155 OFFCURVE",
"542 42 OFFCURVE",
"380 42 CURVE SMOOTH"
);
}
);
};
layerId = "9E718F8A-2CEA-4931-B05D-987794BD97DA";
paths = (
{
closed = 1;
nodes = (
"569 -8 OFFCURVE",
"700 130 OFFCURVE",
"718 353 CURVE SMOOTH",
"735 576 OFFCURVE",
"627 713 OFFCURVE",
"433 713 CURVE SMOOTH",
"239 713 OFFCURVE",
"110 576 OFFCURVE",
"93 352 CURVE SMOOTH",
"75 130 OFFCURVE",
"184 -8 OFFCURVE",
"376 -8 CURVE SMOOTH"
);
},
{
closed = 1;
nodes = (
"676 721 LINE",
"638 744 LINE",
"135 -16 LINE",
"173 -39 LINE"
);
},
{
closed = 1;
nodes = (
"219 42 OFFCURVE",
"134 156 OFFCURVE",
"150 353 CURVE SMOOTH",
"165 550 OFFCURVE",
"268 663 OFFCURVE",
"429 663 CURVE SMOOTH",
"592 663 OFFCURVE",
"676 551 OFFCURVE",
"661 353 CURVE SMOOTH",
"645 155 OFFCURVE",
"542 42 OFFCURVE",
"380 42 CURVE SMOOTH"
);
}
);
width = 755;
},
{
anchors = (
{
name = bottom;
position = "{395, 0}";
},
{
name = top;
position = "{449, 705}";
}
);
background = {
anchors = (
{
name = bottom;
position = "{395, 0}";
},
{
name = top;
position = "{449, 705}";
}
);
paths = (
{
closed = 1;
nodes = (
"607 -9 OFFCURVE",
"750 132 OFFCURVE",
"768 353 CURVE SMOOTH",
"785 574 OFFCURVE",
"664 714 OFFCURVE",
"451 714 CURVE SMOOTH",
"238 714 OFFCURVE",
"94 574 OFFCURVE",
"77 353 CURVE SMOOTH",
"59 132 OFFCURVE",
"181 -9 OFFCURVE",
"394 -9 CURVE SMOOTH"
);
},
{
closed = 1;
nodes = (
"729 713 LINE",
"632 774 LINE",
"115 -8 LINE",
"213 -69 LINE"
);
},
{
closed = 1;
nodes = (
"290 116 OFFCURVE",
"225 196 OFFCURVE",
"238 353 CURVE SMOOTH",
"250 510 OFFCURVE",
"327 589 OFFCURVE",
"441 589 CURVE SMOOTH",
"555 589 OFFCURVE",
"620 509 OFFCURVE",
"608 353 CURVE SMOOTH",
"596 197 OFFCURVE",
"518 116 OFFCURVE",
"404 116 CURVE SMOOTH"
);
}
);
};
layerId = "E1B555A7-F4E1-459C-9C1A-AE952106EEF9";
paths = (
{
closed = 1;
nodes = (
"607 -9 OFFCURVE",
"750 132 OFFCURVE",
"768 353 CURVE SMOOTH",
"785 574 OFFCURVE",
"664 714 OFFCURVE",
"451 714 CURVE SMOOTH",
"238 714 OFFCURVE",
"94 574 OFFCURVE",
"77 353 CURVE SMOOTH",
"59 132 OFFCURVE",
"181 -9 OFFCURVE",
"394 -9 CURVE SMOOTH"
);
},
{
closed = 1;
nodes = (
"729 713 LINE",
"632 774 LINE",
"115 -8 LINE",
"213 -69 LINE"
);
},
{
closed = 1;
nodes = (
"290 116 OFFCURVE",
"225 196 OFFCURVE",
"238 353 CURVE SMOOTH",
"250 510 OFFCURVE",
"327 589 OFFCURVE",
"441 589 CURVE SMOOTH",
"555 589 OFFCURVE",
"620 509 OFFCURVE",
"608 353 CURVE SMOOTH",
"596 197 OFFCURVE",
"518 116 OFFCURVE",
"404 116 CURVE SMOOTH"
);
}
);
width = 789;
}
);
leftKerningGroup = O;
leftMetricsKey = O;
rightKerningGroup = O;
rightMetricsKey = O;
unicode = 00D8;
userData = {
com.typemytype.robofont.layerData = {
b = {
anchors = (
);
components = (
);
contours = (
);
lib = {
};
name = Oslash;
unicodes = (
);
width = 1597;
};
};
};
},
{
glyphname = OE;
lastChange = "2016-09-13 09:34:46 +0000";
layers = (
{
anchors = (
{
name = bottom;
position = "{532, 0}";
},
{
name = top;
position = "{586, 705}";
}
);
background = {
anchors = (
{
name = bottom;
position = "{532, 0}";
},
{
name = top;
position = "{586, 705}";
}
);
paths = (
{
closed = 1;
nodes = (
"992 0 LINE",
"996 48 LINE",
"618 48 LINE",
"640 334 LINE",
"998 334 LINE",
"1002 382 LINE",
"644 382 LINE",
"666 657 LINE",
"1044 657 LINE",
"1047 705 LINE",
"467 705 LINE SMOOTH",
"244 705 OFFCURVE",
"111 579 OFFCURVE",
"93 353 CURVE SMOOTH",
"75 127 OFFCURVE",
"190 0 OFFCURVE",
"412 0 CURVE SMOOTH"
);
},
{
closed = 1;
nodes = (
"225 48 OFFCURVE",
"134 151 OFFCURVE",
"150 353 CURVE SMOOTH",
"166 555 OFFCURVE",
"272 657 OFFCURVE",
"467 657 CURVE SMOOTH",
"613 657 LINE",
"565 48 LINE",
"419 48 LINE SMOOTH"
);
}
);
};
layerId = "9E718F8A-2CEA-4931-B05D-987794BD97DA";
paths = (
{
closed = 1;
nodes = (
"992 0 LINE",
"996 48 LINE",
"618 48 LINE",
"640 334 LINE",
"998 334 LINE",
"1002 382 LINE",
"644 382 LINE",
"666 657 LINE",
"1044 657 LINE",
"1047 705 LINE",
"467 705 LINE SMOOTH",
"244 705 OFFCURVE",
"111 579 OFFCURVE",
"93 353 CURVE SMOOTH",
"75 127 OFFCURVE",
"190 0 OFFCURVE",
"412 0 CURVE SMOOTH"
);
},
{
closed = 1;
nodes = (
"225 48 OFFCURVE",
"134 151 OFFCURVE",
"150 353 CURVE SMOOTH",
"166 555 OFFCURVE",
"272 657 OFFCURVE",
"467 657 CURVE SMOOTH",
"613 657 LINE",
"565 48 LINE",
"419 48 LINE SMOOTH"
);
}
);
width = 1046;
},
{
anchors = (
{
name = bottom;
position = "{529, 0}";
},
{
name = top;
position = "{584, 705}";
}
);
background = {
anchors = (
{
name = bottom;
position = "{529, 0}";
},
{
name = top;
position = "{584, 705}";
}
);
paths = (
{
closed = 1;
nodes = (
"1007 0 LINE",
"1017 125 LINE",
"685 125 LINE",
"698 296 LINE",
"1010 296 LINE",
"1020 421 LINE",
"708 421 LINE",
"721 580 LINE",
"1054 580 LINE",
"1063 705 LINE",
"475 705 LINE SMOOTH",
"242 705 OFFCURVE",
"94 574 OFFCURVE",
"77 353 CURVE SMOOTH",
"59 131 OFFCURVE",
"186 0 OFFCURVE",
"420 0 CURVE SMOOTH"
);
},
{
closed = 1;
nodes = (
"296 125 OFFCURVE",
"226 200 OFFCURVE",
"238 353 CURVE SMOOTH",
"250 505 OFFCURVE",
"332 580 OFFCURVE",
"477 580 CURVE SMOOTH",
"564 580 LINE",
"528 125 LINE",
"441 125 LINE SMOOTH"
);
}
);
};
layerId = "E1B555A7-F4E1-459C-9C1A-AE952106EEF9";
paths = (
{
closed = 1;
nodes = (
"1007 0 LINE",
"1017 125 LINE",
"685 125 LINE",
"698 296 LINE",
"1010 296 LINE",
"1020 421 LINE",
"708 421 LINE",
"721 580 LINE",
"1054 580 LINE",
"1063 705 LINE",
"475 705 LINE SMOOTH",
"242 705 OFFCURVE",
"94 574 OFFCURVE",
"77 353 CURVE SMOOTH",
"59 131 OFFCURVE",
"186 0 OFFCURVE",
"420 0 CURVE SMOOTH"
);
},
{
closed = 1;
nodes = (
"296 125 OFFCURVE",
"226 200 OFFCURVE",
"238 353 CURVE SMOOTH",
"250 505 OFFCURVE",
"332 580 OFFCURVE",
"477 580 CURVE SMOOTH",
"564 580 LINE",
"528 125 LINE",
"441 125 LINE SMOOTH"
);
}
);
width = 1044;
}
);
leftKerningGroup = O;
leftMetricsKey = O;
rightKerningGroup = E;
rightMetricsKey = E;
unicode = 0152;
},
{
glyphname = P;
lastChange = "2016-09-13 09:34:46 +0000";
layers = (
{
anchors = (
{
name = bottom;
position = "{318, 0}";
},
{
name = top;
position = "{373, 705}";
}
);
background = {
anchors = (
{
name = bottom;
position = "{318, 0}";
},
{
name = top;
position = "{373, 705}";
}
);
paths = (
{
closed = 1;
nodes = (
"147 0 LINE",
"171 299 LINE",
"379 299 LINE SMOOTH",
"524 299 OFFCURVE",
"614 373 OFFCURVE",
"625 503 CURVE SMOOTH",
"635 633 OFFCURVE",
"556 705 OFFCURVE",
"410 705 CURVE",
"148 705 LINE",
"93 0 LINE"
);
},
{
closed = 1;
nodes = (
"200 657 LINE",
"404 657 LINE SMOOTH",
"523 657 OFFCURVE",
"578 605 OFFCURVE",
"570 503 CURVE SMOOTH",
"562 401 OFFCURVE",
"498 347 OFFCURVE",
"379 347 CURVE SMOOTH",
"175 347 LINE"
);
}
);
};
layerId = "9E718F8A-2CEA-4931-B05D-987794BD97DA";
paths = (
{
closed = 1;
nodes = (
"147 0 LINE",
"171 299 LINE",
"379 299 LINE SMOOTH",
"524 299 OFFCURVE",
"614 373 OFFCURVE",
"625 503 CURVE SMOOTH",
"635 633 OFFCURVE",
"556 705 OFFCURVE",
"410 705 CURVE",
"148 705 LINE",
"93 0 LINE"
);
},
{
closed = 1;
nodes = (
"200 657 LINE",
"404 657 LINE SMOOTH",
"523 657 OFFCURVE",
"578 605 OFFCURVE",
"570 503 CURVE SMOOTH",
"562 401 OFFCURVE",
"498 347 OFFCURVE",
"379 347 CURVE SMOOTH",
"175 347 LINE"
);
}
);
width = 636;
},
{
anchors = (
{
name = bottom;
position = "{338, 0}";
},
{
name = top;
position = "{392, 705}";
}
);
background = {
anchors = (
{
name = bottom;
position = "{338, 0}";
},
{
name = top;
position = "{392, 705}";
}
);
paths = (
{
closed = 1;
nodes = (
"230 0 LINE",
"251 263 LINE",
"417 263 LINE SMOOTH",
"570 263 OFFCURVE",
"667 346 OFFCURVE",
"678 484 CURVE SMOOTH",
"689 623 OFFCURVE",
"605 705 OFFCURVE",
"451 705 CURVE SMOOTH",
"124 705 LINE",
"69 0 LINE"
);
},
{
closed = 1;
nodes = (
"274 582 LINE",
"421 582 LINE SMOOTH",
"498 582 OFFCURVE",
"532 550 OFFCURVE",
"527 483 CURVE SMOOTH",
"522 417 OFFCURVE",
"481 385 OFFCURVE",
"405 385 CURVE SMOOTH",
"258 385 LINE"
);
}
);
};
layerId = "E1B555A7-F4E1-459C-9C1A-AE952106EEF9";
paths = (
{
closed = 1;
nodes = (
"230 0 LINE",
"251 263 LINE",
"417 263 LINE SMOOTH",
"570 263 OFFCURVE",
"667 346 OFFCURVE",
"678 484 CURVE SMOOTH",
"689 623 OFFCURVE",
"605 705 OFFCURVE",
"451 705 CURVE SMOOTH",
"124 705 LINE",
"69 0 LINE"
);
},
{
closed = 1;
nodes = (
"274 582 LINE",
"421 582 LINE SMOOTH",
"498 582 OFFCURVE",
"532 550 OFFCURVE",
"527 483 CURVE SMOOTH",
"522 417 OFFCURVE",
"481 385 OFFCURVE",
"405 385 CURVE SMOOTH",
"258 385 LINE"
);
}
);
width = 670;
}
);
leftKerningGroup = H;
leftMetricsKey = H;
rightKerningGroup = P;
unicode = 0050;
userData = {
anchors = (
);
b = {
};
com.typemytype.robofont.layerData = {
b = {
anchors = (
);
components = (
);
contours = (
{
points = (
{
segmentType = curve;
smooth = 1;
x = 266;
y = 0;
},
{
segmentType = line;
smooth = 1;
x = 1035;
y = 0;
},
{
smooth = 0;
x = 1084;
y = 0;
},
{
smooth = 0;
x = 1108;
y = 34;
},
{
segmentType = curve;
smooth = 1;
x = 1108;
y = 71;
},
{
smooth = 0;
x = 1108;
y = 107;
},
{
smooth = 0;
x = 1084;
y = 141;
},
{
segmentType = curve;
smooth = 1;
x = 1035;
y = 141;
},
{
segmentType = line;
smooth = 0;
x = 356;
y = 141;
},
{
segmentType = line;
smooth = 0;
x = 356;
y = 665;
},
{
segmentType = line;
smooth = 1;
x = 975;
y = 665;
},
{
smooth = 0;
x = 1024;
y = 665;
},
{
smooth = 0;
x = 1049;
y = 698;
},
{
segmentType = curve;
smooth = 1;
x = 1049;
y = 734;
},
{
smooth = 0;
x = 1049;
y = 770;
},
{
smooth = 0;
x = 1026;
y = 803;
},
{
segmentType = curve;
smooth = 1;
x = 975;
y = 803;
},
{
segmentType = line;
smooth = 0;
x = 356;
y = 803;
},
{
segmentType = line;
smooth = 0;
x = 356;
y = 1285;
},
{
segmentType = line;
smooth = 1;
x = 1007;
y = 1285;
},
{
smooth = 0;
x = 1056;
y = 1285;
},
{
smooth = 0;
x = 1080;
y = 1319;
},
{
segmentType = curve;
smooth = 1;
x = 1080;
y = 1356;
},
{
smooth = 0;
x = 1080;
y = 1392;
},
{
smooth = 0;
x = 1056;
y = 1426;
},
{
segmentType = curve;
smooth = 1;
x = 1007;
y = 1426;
},
{
segmentType = line;
smooth = 1;
x = 261;
y = 1426;
},
{
smooth = 0;
x = 213;
y = 1426;
},
{
smooth = 0;
x = 178;
y = 1383;
},
{
segmentType = curve;
smooth = 1;
x = 178;
y = 1340;
},
{
segmentType = line;
smooth = 1;
x = 178;
y = 86;
},
{
smooth = 0;
x = 178;
y = 41;
},
{
smooth = 0;
x = 222;
y = 0;
}
);
}
);
lib = {
};
name = P;
unicodes = (
);
width = 1201;
};
};
components = (
);
contours = (
);
lib = {
};
name = P;
unicodes = (
);
width = 1319;
};
},
{
glyphname = Thorn;
lastChange = "2016-09-13 09:34:46 +0000";
layers = (
{
anchors = (
{
name = bottom;
position = "{318, 0}";
},
{
name = top;
position = "{373, 705}";
}
);
background = {
anchors = (
{
name = bottom;
position = "{318, 0}";
},
{
name = top;
position = "{373, 705}";
}
);
paths = (
{
closed = 1;
nodes = (
"379 172 LINE SMOOTH",
"518 172 OFFCURVE",
"604 241 OFFCURVE",
"613 360 CURVE SMOOTH",
"623 478 OFFCURVE",
"549 545 OFFCURVE",
"408 545 CURVE SMOOTH",
"179 545 LINE",
"175 497 LINE",
"401 497 LINE SMOOTH",
"515 497 OFFCURVE",
"566 453 OFFCURVE",
"558 360 CURVE SMOOTH",
"551 266 OFFCURVE",
"492 220 OFFCURVE",
"379 220 CURVE SMOOTH",
"153 220 LINE",
"150 172 LINE"
);
},
{
closed = 1;
nodes = (
"147 0 LINE",
"202 705 LINE",
"148 705 LINE",
"93 0 LINE"
);
}
);
};
layerId = "9E718F8A-2CEA-4931-B05D-987794BD97DA";
paths = (
{
closed = 1;
nodes = (
"379 172 LINE SMOOTH",
"518 172 OFFCURVE",
"604 241 OFFCURVE",
"613 360 CURVE SMOOTH",
"623 478 OFFCURVE",
"549 545 OFFCURVE",
"408 545 CURVE SMOOTH",
"179 545 LINE",
"175 497 LINE",
"401 497 LINE SMOOTH",
"515 497 OFFCURVE",
"566 453 OFFCURVE",
"558 360 CURVE SMOOTH",
"551 266 OFFCURVE",
"492 220 OFFCURVE",
"379 220 CURVE SMOOTH",
"153 220 LINE",
"150 172 LINE"
);
},
{
closed = 1;
nodes = (
"147 0 LINE",
"202 705 LINE",
"148 705 LINE",
"93 0 LINE"
);
}
);
width = 636;
},
{
anchors = (
{
name = bottom;
position = "{338, 0}";
},
{
name = top;
position = "{392, 705}";
}
);
background = {
anchors = (
{
name = bottom;
position = "{338, 0}";
},
{
name = top;
position = "{392, 705}";
}
);
paths = (
{
closed = 1;
nodes = (
"409 152 LINE SMOOTH",
"560 152 OFFCURVE",
"658 230 OFFCURVE",
"668 358 CURVE SMOOTH",
"678 487 OFFCURVE",
"594 564 OFFCURVE",
"441 564 CURVE SMOOTH",
"251 564 LINE",
"242 441 LINE",
"405 441 LINE SMOOTH",
"487 441 OFFCURVE",
"522 416 OFFCURVE",
"517 358 CURVE SMOOTH",
"513 300 OFFCURVE",
"474 275 OFFCURVE",
"392 275 CURVE SMOOTH",
"229 275 LINE",
"219 152 LINE"
);
},
{
closed = 1;
nodes = (
"227 0 LINE",
"282 705 LINE",
"124 705 LINE",
"69 0 LINE"
);
}
);
};
layerId = "E1B555A7-F4E1-459C-9C1A-AE952106EEF9";
paths = (
{
closed = 1;
nodes = (
"409 152 LINE SMOOTH",
"560 152 OFFCURVE",
"658 230 OFFCURVE",
"668 358 CURVE SMOOTH",
"678 487 OFFCURVE",
"594 564 OFFCURVE",
"441 564 CURVE SMOOTH",
"251 564 LINE",
"242 441 LINE",
"405 441 LINE SMOOTH",
"487 441 OFFCURVE",
"522 416 OFFCURVE",
"517 358 CURVE SMOOTH",
"513 300 OFFCURVE",
"474 275 OFFCURVE",
"392 275 CURVE SMOOTH",
"229 275 LINE",
"219 152 LINE"
);
},
{
closed = 1;
nodes = (
"227 0 LINE",
"282 705 LINE",
"124 705 LINE",
"69 0 LINE"
);
}
);
width = 671;
}
);
leftKerningGroup = H;
leftMetricsKey = H;
rightKerningGroup = THORN;
unicode = 00DE;
},
{
glyphname = Q;
lastChange = "2016-09-13 09:34:46 +0000";
layers = (
{
anchors = (
{
name = bottom;
position = "{377, 0}";
},
{
name = top;
position = "{432, 705}";
}
);
background = {
anchors = (
{
name = bottom;
position = "{377, 0}";
},
{
name = top;
position = "{432, 705}";
}
);
paths = (
{
closed = 1;
nodes = (
"605 -167 LINE",
"550 -64 LINE SMOOTH",
"518 -3 OFFCURVE",
"490 15 OFFCURVE",
"427 15 CURVE",
"454 0 LINE",
"605 32 OFFCURVE",
"703 163 OFFCURVE",
"718 353 CURVE SMOOTH",
"735 576 OFFCURVE",
"626 713 OFFCURVE",
"433 713 CURVE SMOOTH",
"240 713 OFFCURVE",
"110 576 OFFCURVE",
"93 352 CURVE SMOOTH",
"75 130 OFFCURVE",
"185 -8 OFFCURVE",
"376 -8 CURVE SMOOTH",
"431 -8 OFFCURVE",
"472 -30 OFFCURVE",
"493 -71 CURVE SMOOTH",
"559 -193 LINE"
);
},
{
closed = 1;
nodes = (
"219 42 OFFCURVE",
"134 156 OFFCURVE",
"150 353 CURVE SMOOTH",
"165 550 OFFCURVE",
"268 663 OFFCURVE",
"429 663 CURVE SMOOTH",
"592 663 OFFCURVE",
"676 551 OFFCURVE",
"661 353 CURVE SMOOTH",
"645 155 OFFCURVE",
"542 42 OFFCURVE",
"380 42 CURVE SMOOTH"
);
}
);
};
layerId = "9E718F8A-2CEA-4931-B05D-987794BD97DA";
paths = (
{
closed = 1;
nodes = (
"605 -167 LINE",
"550 -64 LINE SMOOTH",
"518 -3 OFFCURVE",
"490 15 OFFCURVE",
"427 15 CURVE",
"454 0 LINE",
"605 32 OFFCURVE",
"703 163 OFFCURVE",
"718 353 CURVE SMOOTH",
"735 576 OFFCURVE",
"626 713 OFFCURVE",
"433 713 CURVE SMOOTH",
"240 713 OFFCURVE",
"110 576 OFFCURVE",
"93 352 CURVE SMOOTH",
"75 130 OFFCURVE",
"185 -8 OFFCURVE",
"376 -8 CURVE SMOOTH",
"431 -8 OFFCURVE",
"472 -30 OFFCURVE",
"493 -71 CURVE SMOOTH",
"559 -193 LINE"
);
},
{
closed = 1;
nodes = (
"219 42 OFFCURVE",
"134 156 OFFCURVE",
"150 353 CURVE SMOOTH",
"165 550 OFFCURVE",
"268 663 OFFCURVE",
"429 663 CURVE SMOOTH",
"592 663 OFFCURVE",
"676 551 OFFCURVE",
"661 353 CURVE SMOOTH",
"645 155 OFFCURVE",
"542 42 OFFCURVE",
"380 42 CURVE SMOOTH"
);
}
);
width = 755;
},
{
anchors = (
{
name = bottom;
position = "{395, 0}";
},
{
name = top;
position = "{449, 705}";
}
);
background = {
anchors = (
{
name = bottom;
position = "{395, 0}";
},
{
name = top;
position = "{449, 705}";
}
);
paths = (
{
closed = 1;
nodes = (
"710 -157 LINE",
"643 -34 LINE SMOOTH",
"616 17 OFFCURVE",
"580 37 OFFCURVE",
"519 37 CURVE",
"533 16 LINE",
"670 64 OFFCURVE",
"755 186 OFFCURVE",
"768 353 CURVE SMOOTH",
"785 574 OFFCURVE",
"664 714 OFFCURVE",
"451 714 CURVE SMOOTH",
"238 714 OFFCURVE",
"94 574 OFFCURVE",
"77 353 CURVE SMOOTH",
"59 132 OFFCURVE",
"181 -9 OFFCURVE",
"394 -9 CURVE SMOOTH",
"435 -9 OFFCURVE",
"461 -22 OFFCURVE",
"475 -48 CURVE SMOOTH",
"568 -220 LINE"
);
},
{
closed = 1;
nodes = (
"290 116 OFFCURVE",
"225 196 OFFCURVE",
"238 353 CURVE SMOOTH",
"250 510 OFFCURVE",
"327 589 OFFCURVE",
"441 589 CURVE SMOOTH",
"555 589 OFFCURVE",
"620 509 OFFCURVE",
"608 353 CURVE SMOOTH",
"596 197 OFFCURVE",
"518 116 OFFCURVE",
"404 116 CURVE SMOOTH"
);
}
);
};
layerId = "E1B555A7-F4E1-459C-9C1A-AE952106EEF9";
paths = (
{
closed = 1;
nodes = (
"710 -157 LINE",
"643 -34 LINE SMOOTH",
"616 17 OFFCURVE",
"580 37 OFFCURVE",
"519 37 CURVE",
"533 16 LINE",
"670 64 OFFCURVE",
"755 186 OFFCURVE",
"768 353 CURVE SMOOTH",
"785 574 OFFCURVE",
"664 714 OFFCURVE",
"451 714 CURVE SMOOTH",
"238 714 OFFCURVE",
"94 574 OFFCURVE",
"77 353 CURVE SMOOTH",
"59 132 OFFCURVE",
"181 -9 OFFCURVE",
"394 -9 CURVE SMOOTH",
"435 -9 OFFCURVE",
"461 -22 OFFCURVE",
"475 -48 CURVE SMOOTH",
"568 -220 LINE"
);
},
{
closed = 1;
nodes = (
"290 116 OFFCURVE",
"225 196 OFFCURVE",
"238 353 CURVE SMOOTH",
"250 510 OFFCURVE",
"327 589 OFFCURVE",
"441 589 CURVE SMOOTH",
"555 589 OFFCURVE",
"620 509 OFFCURVE",
"608 353 CURVE SMOOTH",
"596 197 OFFCURVE",
"518 116 OFFCURVE",
"404 116 CURVE SMOOTH"
);
}
);
width = 789;
}
);
leftKerningGroup = O;
leftMetricsKey = O;
widthMetricsKey = O;
rightKerningGroup = O;
unicode = 0051;
userData = {
anchors = (
);
b = {
};
com.typemytype.robofont.layerData = {
b = {
anchors = (
);
components = (
);
contours = (
);
lib = {
};
name = Q;
unicodes = (
);
width = 1597;
};
};
components = (
);
contours = (
);
lib = {
};
name = Q;
unicodes = (
);
width = 1604;
};
},
{
glyphname = R;
lastChange = "2016-09-13 09:34:46 +0000";
layers = (
{
anchors = (
{
name = bottom;
position = "{336, 0}";
},
{
name = top;
position = "{391, 705}";
}
);
background = {
anchors = (
{
name = bottom;
position = "{336, 0}";
},
{
name = top;
position = "{391, 705}";
}
);
paths = (
{
closed = 1;
nodes = (
"147 0 LINE",
"171 308 LINE",
"324 308 LINE SMOOTH",
"398 308 OFFCURVE",
"437 291 OFFCURVE",
"466 226 CURVE SMOOTH",
"567 0 LINE",
"627 0 LINE",
"519 238 LINE SMOOTH",
"491 298 OFFCURVE",
"456 323 OFFCURVE",
"394 323 CURVE",
"395 314 LINE",
"541 314 OFFCURVE",
"631 384 OFFCURVE",
"641 508 CURVE SMOOTH",
"651 638 OFFCURVE",
"572 705 OFFCURVE",
"426 705 CURVE SMOOTH",
"148 705 LINE",
"93 0 LINE"
);
},
{
closed = 1;
nodes = (
"199 657 LINE",
"421 657 LINE SMOOTH",
"541 657 OFFCURVE",
"594 609 OFFCURVE",
"586 509 CURVE SMOOTH",
"578 407 OFFCURVE",
"515 356 OFFCURVE",
"397 356 CURVE SMOOTH",
"175 356 LINE"
);
}
);
};
layerId = "9E718F8A-2CEA-4931-B05D-987794BD97DA";
paths = (
{
closed = 1;
nodes = (
"147 0 LINE",
"171 308 LINE",
"324 308 LINE SMOOTH",
"398 308 OFFCURVE",
"437 291 OFFCURVE",
"466 226 CURVE SMOOTH",
"567 0 LINE",
"627 0 LINE",
"519 238 LINE SMOOTH",
"491 298 OFFCURVE",
"456 323 OFFCURVE",
"394 323 CURVE",
"395 314 LINE",
"541 314 OFFCURVE",
"631 384 OFFCURVE",
"641 508 CURVE SMOOTH",
"651 638 OFFCURVE",
"572 705 OFFCURVE",
"426 705 CURVE SMOOTH",
"148 705 LINE",
"93 0 LINE"
);
},
{
closed = 1;
nodes = (
"199 657 LINE",
"421 657 LINE SMOOTH",
"541 657 OFFCURVE",
"594 609 OFFCURVE",
"586 509 CURVE SMOOTH",
"578 407 OFFCURVE",
"515 356 OFFCURVE",
"397 356 CURVE SMOOTH",
"175 356 LINE"
);
}
);
width = 680;
},
{
anchors = (
{
name = bottom;
position = "{354, 0}";
},
{
name = top;
position = "{408, 705}";
}
);
background = {
anchors = (
{
name = bottom;
position = "{354, 0}";
},
{
name = top;
position = "{408, 705}";
}
);
paths = (
{
closed = 1;
nodes = (
"228 0 LINE",
"249 272 LINE",
"322 272 LINE SMOOTH",
"361 272 OFFCURVE",
"388 259 OFFCURVE",
"405 225 CURVE SMOOTH",
"509 0 LINE",
"685 0 LINE",
"587 207 LINE SMOOTH",
"561 263 OFFCURVE",
"522 290 OFFCURVE",
"463 290 CURVE",
"420 278 LINE",
"577 278 OFFCURVE",
"675 361 OFFCURVE",
"686 492 CURVE SMOOTH",
"697 630 OFFCURVE",
"617 705 OFFCURVE",
"450 705 CURVE SMOOTH",
"124 705 LINE",
"69 0 LINE"
);
},
{
closed = 1;
nodes = (
"272 582 LINE",
"417 582 LINE SMOOTH",
"505 582 OFFCURVE",
"540 554 OFFCURVE",
"534 488 CURVE SMOOTH",
"529 423 OFFCURVE",
"490 394 OFFCURVE",
"402 394 CURVE SMOOTH",
"257 394 LINE"
);
}
);
};
layerId = "E1B555A7-F4E1-459C-9C1A-AE952106EEF9";
paths = (
{
closed = 1;
nodes = (
"228 0 LINE",
"249 272 LINE",
"322 272 LINE SMOOTH",
"361 272 OFFCURVE",
"388 259 OFFCURVE",
"405 225 CURVE SMOOTH",
"509 0 LINE",
"685 0 LINE",
"587 207 LINE SMOOTH",
"561 263 OFFCURVE",
"522 290 OFFCURVE",
"463 290 CURVE",
"420 278 LINE",
"577 278 OFFCURVE",
"675 361 OFFCURVE",
"686 492 CURVE SMOOTH",
"697 630 OFFCURVE",
"617 705 OFFCURVE",
"450 705 CURVE SMOOTH",
"124 705 LINE",
"69 0 LINE"
);
},
{
closed = 1;
nodes = (
"272 582 LINE",
"417 582 LINE SMOOTH",
"505 582 OFFCURVE",
"540 554 OFFCURVE",
"534 488 CURVE SMOOTH",
"529 423 OFFCURVE",
"490 394 OFFCURVE",
"402 394 CURVE SMOOTH",
"257 394 LINE"
);
}
);
width = 702;
}
);
leftKerningGroup = H;
leftMetricsKey = H;
rightKerningGroup = R;
unicode = 0052;
userData = {
anchors = (
);
b = {
};
com.typemytype.robofont.guides = (
);
com.typemytype.robofont.layerData = {
b = {
anchors = (
);
components = (
);
contours = (
{
points = (
{
segmentType = curve;
smooth = 1;
x = 267;
y = 0;
},
{
smooth = 0;
x = 311;
y = 0;
},
{
smooth = 0;
x = 356;
y = 27;
},
{
segmentType = curve;
smooth = 1;
x = 356;
y = 84;
},
{
segmentType = line;
smooth = 0;
x = 356;
y = 628;
},
{
segmentType = line;
smooth = 1;
x = 669;
y = 628;
},
{
smooth = 0;
x = 962;
y = 628;
},
{
smooth = 0;
x = 1182;
y = 722;
},
{
segmentType = curve;
smooth = 1;
x = 1182;
y = 1026;
},
{
smooth = 0;
x = 1182;
y = 1324;
},
{
smooth = 0;
x = 993;
y = 1426;
},
{
segmentType = curve;
smooth = 1;
x = 684;
y = 1426;
},
{
segmentType = line;
smooth = 1;
x = 268;
y = 1426;
},
{
smooth = 0;
x = 217;
y = 1426;
},
{
smooth = 0;
x = 178;
y = 1387;
},
{
segmentType = curve;
smooth = 1;
x = 178;
y = 1339;
},
{
segmentType = line;
smooth = 1;
x = 178;
y = 84;
},
{
smooth = 0;
x = 178;
y = 28;
},
{
smooth = 0;
x = 222;
y = 0;
}
);
},
{
points = (
{
segmentType = line;
smooth = 0;
x = 356;
y = 764;
},
{
segmentType = line;
smooth = 0;
x = 356;
y = 1285;
},
{
segmentType = line;
smooth = 1;
x = 684;
y = 1285;
},
{
smooth = 0;
x = 914;
y = 1285;
},
{
smooth = 0;
x = 1008;
y = 1210;
},
{
segmentType = curve;
smooth = 1;
x = 1008;
y = 1026;
},
{
smooth = 0;
x = 1008;
y = 838;
},
{
smooth = 0;
x = 901;
y = 764;
},
{
segmentType = curve;
smooth = 1;
x = 670;
y = 764;
}
);
}
);
lib = {
};
name = R;
unicodes = (
);
width = 1363;
};
};
components = (
);
contours = (
);
lib = {
};
name = R;
unicodes = (
);
width = 1408;
};
},
{
glyphname = S;
lastChange = "2016-09-13 09:34:46 +0000";
layers = (
{
anchors = (
{
name = bottom;
position = "{307, 0}";
},
{
name = top;
position = "{357, 705}";
}
);
background = {
anchors = (
{
name = bottom;
position = "{307, 0}";
},
{
name = top;
position = "{357, 705}";
}
);
paths = (
{
closed = 1;
nodes = (
"458 -8 OFFCURVE",
"562 70 OFFCURVE",
"571 185 CURVE SMOOTH",
"582 325 OFFCURVE",
"439 345 OFFCURVE",
"319 375 CURVE SMOOTH",
"228 397 OFFCURVE",
"151 426 OFFCURVE",
"158 515 CURVE SMOOTH",
"165 608 OFFCURVE",
"240 663 OFFCURVE",
"362 663 CURVE SMOOTH",
"445 663 OFFCURVE",
"508 637 OFFCURVE",
"570 576 CURVE",
"598 620 LINE",
"543 681 OFFCURVE",
"462 713 OFFCURVE",
"366 713 CURVE SMOOTH",
"214 713 OFFCURVE",
"112 634 OFFCURVE",
"103 515 CURVE SMOOTH",
"91 374 OFFCURVE",
"222 345 OFFCURVE",
"339 317 CURVE SMOOTH",
"435 294 OFFCURVE",
"522 271 OFFCURVE",
"516 186 CURVE SMOOTH",
"508 94 OFFCURVE",
"434 42 OFFCURVE",
"312 42 CURVE SMOOTH",
"212 42 OFFCURVE",
"150 65 OFFCURVE",
"84 129 CURVE",
"57 85 LINE",
"119 21 OFFCURVE",
"198 -8 OFFCURVE",
"308 -8 CURVE SMOOTH"
);
}
);
};
layerId = "9E718F8A-2CEA-4931-B05D-987794BD97DA";
paths = (
{
closed = 1;
nodes = (
"458 -8 OFFCURVE",
"562 70 OFFCURVE",
"571 185 CURVE SMOOTH",
"582 325 OFFCURVE",
"439 345 OFFCURVE",
"319 375 CURVE SMOOTH",
"228 397 OFFCURVE",
"151 426 OFFCURVE",
"158 515 CURVE SMOOTH",
"165 608 OFFCURVE",
"240 663 OFFCURVE",
"362 663 CURVE SMOOTH",
"445 663 OFFCURVE",
"508 637 OFFCURVE",
"570 576 CURVE",
"598 620 LINE",
"543 681 OFFCURVE",
"462 713 OFFCURVE",
"366 713 CURVE SMOOTH",
"214 713 OFFCURVE",
"112 634 OFFCURVE",
"103 515 CURVE SMOOTH",
"91 374 OFFCURVE",
"222 345 OFFCURVE",
"339 317 CURVE SMOOTH",
"435 294 OFFCURVE",
"522 271 OFFCURVE",
"516 186 CURVE SMOOTH",
"508 94 OFFCURVE",
"434 42 OFFCURVE",
"312 42 CURVE SMOOTH",
"212 42 OFFCURVE",
"150 65 OFFCURVE",
"84 129 CURVE",
"57 85 LINE",
"119 21 OFFCURVE",
"198 -8 OFFCURVE",
"308 -8 CURVE SMOOTH"
);
}
);
width = 604;
},
{
anchors = (
{
name = bottom;
position = "{325, 0}";
},
{
name = top;
position = "{385, 705}";
}
);
background = {
anchors = (
{
name = bottom;
position = "{325, 0}";
},
{
name = top;
position = "{385, 705}";
}
);
paths = (
{
closed = 1;
nodes = (
"503 -9 OFFCURVE",
"618 74 OFFCURVE",
"628 207 CURVE SMOOTH",
"637 317 OFFCURVE",
"570 375 OFFCURVE",
"390 415 CURVE SMOOTH",
"278 440 OFFCURVE",
"247 460 OFFCURVE",
"251 504 CURVE SMOOTH",
"255 556 OFFCURVE",
"306 589 OFFCURVE",
"384 589 CURVE SMOOTH",
"455 589 OFFCURVE",
"523 566 OFFCURVE",
"583 519 CURVE",
"643 634 LINE",
"592 683 OFFCURVE",
"493 714 OFFCURVE",
"393 714 CURVE SMOOTH",
"222 714 OFFCURVE",
"102 620 OFFCURVE",
"92 492 CURVE SMOOTH",
"83 378 OFFCURVE",
"146 320 OFFCURVE",
"330 281 CURVE SMOOTH",
"437 258 OFFCURVE",
"473 237 OFFCURVE",
"469 193 CURVE SMOOTH",
"465 145 OFFCURVE",
"416 116 OFFCURVE",
"328 116 CURVE SMOOTH",
"246 116 OFFCURVE",
"171 139 OFFCURVE",
"106 186 CURVE",
"46 71 LINE",
"107 21 OFFCURVE",
"211 -9 OFFCURVE",
"316 -9 CURVE SMOOTH"
);
}
);
};
layerId = "E1B555A7-F4E1-459C-9C1A-AE952106EEF9";
paths = (
{
closed = 1;
nodes = (
"503 -9 OFFCURVE",
"618 74 OFFCURVE",
"628 207 CURVE SMOOTH",
"637 317 OFFCURVE",
"570 375 OFFCURVE",
"390 415 CURVE SMOOTH",
"278 440 OFFCURVE",
"247 460 OFFCURVE",
"251 504 CURVE SMOOTH",
"255 556 OFFCURVE",
"306 589 OFFCURVE",
"384 589 CURVE SMOOTH",
"455 589 OFFCURVE",
"523 566 OFFCURVE",
"583 519 CURVE",
"643 634 LINE",
"592 683 OFFCURVE",
"493 714 OFFCURVE",
"393 714 CURVE SMOOTH",
"222 714 OFFCURVE",
"102 620 OFFCURVE",
"92 492 CURVE SMOOTH",
"83 378 OFFCURVE",
"146 320 OFFCURVE",
"330 281 CURVE SMOOTH",
"437 258 OFFCURVE",
"473 237 OFFCURVE",
"469 193 CURVE SMOOTH",
"465 145 OFFCURVE",
"416 116 OFFCURVE",
"328 116 CURVE SMOOTH",
"246 116 OFFCURVE",
"171 139 OFFCURVE",
"106 186 CURVE",
"46 71 LINE",
"107 21 OFFCURVE",
"211 -9 OFFCURVE",
"316 -9 CURVE SMOOTH"
);
}
);
width = 653;
}
);
leftKerningGroup = S;
rightKerningGroup = S;
unicode = 0053;
userData = {
anchors = (
);
b = {
};
com.typemytype.robofont.layerData = {
b = {
anchors = (
);
components = (
);
contours = (
);
lib = {
};
name = S;
unicodes = (
);
width = 1274;
};
};
components = (
);
contours = (
);
lib = {
};
name = S;
unicodes = (
);
width = 1317;
};
},
{
glyphname = Germandbls;
lastChange = "2016-09-13 09:34:46 +0000";
layers = (
{
background = {
paths = (
{
closed = 1;
nodes = (
"147 0 LINE",
"183 455 LINE SMOOTH",
"194 597 OFFCURVE",
"262 662 OFFCURVE",
"398 662 CURVE SMOOTH",
"502 662 OFFCURVE",
"560 611 OFFCURVE",
"553 526 CURVE SMOOTH",
"546 434 OFFCURVE",
"480 382 OFFCURVE",
"373 382 CURVE SMOOTH",
"271 382 LINE",
"267 334 LINE",
"404 334 LINE SMOOTH",
"521 334 OFFCURVE",
"581 286 OFFCURVE",
"573 193 CURVE SMOOTH",
"566 101 OFFCURVE",
"501 45 OFFCURVE",
"398 43 CURVE SMOOTH",
"345 42 OFFCURVE",
"300 60 OFFCURVE",
"248 105 CURVE",
"222 59 LINE",
"266 16 OFFCURVE",
"330 -7 OFFCURVE",
"397 -7 CURVE SMOOTH",
"526 -7 OFFCURVE",
"619 73 OFFCURVE",
"628 192 CURVE SMOOTH",
"636 290 OFFCURVE",
"582 354 OFFCURVE",
"476 370 CURVE",
"466 359 LINE",
"550 378 OFFCURVE",
"602 440 OFFCURVE",
"608 527 CURVE SMOOTH",
"617 641 OFFCURVE",
"538 712 OFFCURVE",
"402 712 CURVE SMOOTH",
"233 712 OFFCURVE",
"143 629 OFFCURVE",
"129 462 CURVE SMOOTH",
"93 0 LINE"
);
}
);
};
layerId = "9E718F8A-2CEA-4931-B05D-987794BD97DA";
paths = (
{
closed = 1;
nodes = (
"147 0 LINE",
"183 455 LINE SMOOTH",
"194 597 OFFCURVE",
"262 662 OFFCURVE",
"398 662 CURVE SMOOTH",
"502 662 OFFCURVE",
"560 611 OFFCURVE",
"553 526 CURVE SMOOTH",
"546 434 OFFCURVE",
"480 382 OFFCURVE",
"373 382 CURVE SMOOTH",
"271 382 LINE",
"267 334 LINE",
"404 334 LINE SMOOTH",
"521 334 OFFCURVE",
"581 286 OFFCURVE",
"573 193 CURVE SMOOTH",
"566 101 OFFCURVE",
"501 45 OFFCURVE",
"398 43 CURVE SMOOTH",
"345 42 OFFCURVE",
"300 60 OFFCURVE",
"248 105 CURVE",
"222 59 LINE",
"266 16 OFFCURVE",
"330 -7 OFFCURVE",
"397 -7 CURVE SMOOTH",
"526 -7 OFFCURVE",
"619 73 OFFCURVE",
"628 192 CURVE SMOOTH",
"636 290 OFFCURVE",
"582 354 OFFCURVE",
"476 370 CURVE",
"466 359 LINE",
"550 378 OFFCURVE",
"602 440 OFFCURVE",
"608 527 CURVE SMOOTH",
"617 641 OFFCURVE",
"538 712 OFFCURVE",
"402 712 CURVE SMOOTH",
"233 712 OFFCURVE",
"143 629 OFFCURVE",
"129 462 CURVE SMOOTH",
"93 0 LINE"
);
}
);
width = 680;
},
{
background = {
paths = (
{
closed = 1;
nodes = (
"227 0 LINE",
"262 444 LINE SMOOTH",
"269 537 OFFCURVE",
"322 587 OFFCURVE",
"411 587 CURVE SMOOTH",
"477 587 OFFCURVE",
"517 554 OFFCURVE",
"512 500 CURVE SMOOTH",
"508 448 OFFCURVE",
"473 419 OFFCURVE",
"408 419 CURVE SMOOTH",
"328 419 LINE",
"318 294 LINE",
"416 294 LINE SMOOTH",
"511 294 OFFCURVE",
"545 267 OFFCURVE",
"540 203 CURVE SMOOTH",
"536 147 OFFCURVE",
"502 113 OFFCURVE",
"452 113 CURVE SMOOTH",
"412 113 OFFCURVE",
"369 129 OFFCURVE",
"319 163 CURVE",
"268 50 LINE",
"318 11 OFFCURVE",
"375 -6 OFFCURVE",
"452 -6 CURVE SMOOTH",
"581 -6 OFFCURVE",
"682 80 OFFCURVE",
"692 197 CURVE SMOOTH",
"699 294 OFFCURVE",
"639 360 OFFCURVE",
"533 372 CURVE",
"532 358 LINE",
"607 380 OFFCURVE",
"658 439 OFFCURVE",
"663 514 CURVE SMOOTH",
"673 635 OFFCURVE",
"580 712 OFFCURVE",
"425 712 CURVE SMOOTH",
"235 712 OFFCURVE",
"117 613 OFFCURVE",
"104 441 CURVE SMOOTH",
"69 0 LINE"
);
}
);
};
layerId = "E1B555A7-F4E1-459C-9C1A-AE952106EEF9";
paths = (
{
closed = 1;
nodes = (
"227 0 LINE",
"262 444 LINE SMOOTH",
"269 537 OFFCURVE",
"322 587 OFFCURVE",
"411 587 CURVE SMOOTH",
"477 587 OFFCURVE",
"517 554 OFFCURVE",
"512 500 CURVE SMOOTH",
"508 448 OFFCURVE",
"473 419 OFFCURVE",
"408 419 CURVE SMOOTH",
"328 419 LINE",
"318 294 LINE",
"416 294 LINE SMOOTH",
"511 294 OFFCURVE",
"545 267 OFFCURVE",
"540 203 CURVE SMOOTH",
"536 147 OFFCURVE",
"502 113 OFFCURVE",
"452 113 CURVE SMOOTH",
"412 113 OFFCURVE",
"369 129 OFFCURVE",
"319 163 CURVE",
"268 50 LINE",
"318 11 OFFCURVE",
"375 -6 OFFCURVE",
"452 -6 CURVE SMOOTH",
"581 -6 OFFCURVE",
"682 80 OFFCURVE",
"692 197 CURVE SMOOTH",
"699 294 OFFCURVE",
"639 360 OFFCURVE",
"533 372 CURVE",
"532 358 LINE",
"607 380 OFFCURVE",
"658 439 OFFCURVE",
"663 514 CURVE SMOOTH",
"673 635 OFFCURVE",
"580 712 OFFCURVE",
"425 712 CURVE SMOOTH",
"235 712 OFFCURVE",
"117 613 OFFCURVE",
"104 441 CURVE SMOOTH",
"69 0 LINE"
);
}
);
width = 712;
}
);
leftKerningGroup = H;
leftMetricsKey = B;
rightKerningGroup = Germandbls;
rightMetricsKey = B;
unicode = 1E9E;
},
{
glyphname = Schwa;
lastChange = "2016-09-13 09:34:46 +0000";
layers = (
{
anchors = (
{
name = bottom;
position = "{366, 0}";
},
{
name = top;
position = "{421, 705}";
}
);
background = {
anchors = (
{
name = bottom;
position = "{366, 0}";
},
{
name = top;
position = "{421, 705}";
}
);
paths = (
{
closed = 1;
nodes = (
"550 -8 OFFCURVE",
"677 130 OFFCURVE",
"695 353 CURVE SMOOTH",
"712 577 OFFCURVE",
"600 713 OFFCURVE",
"400 713 CURVE SMOOTH",
"302 713 OFFCURVE",
"206 679 OFFCURVE",
"143 620 CURVE",
"163 576 LINE",
"233 636 OFFCURVE",
"309 664 OFFCURVE",
"397 664 CURVE SMOOTH",
"566 664 OFFCURVE",
"654 551 OFFCURVE",
"639 353 CURVE SMOOTH",
"623 156 OFFCURVE",
"524 42 OFFCURVE",
"369 42 CURVE SMOOTH",
"215 42 OFFCURVE",
"133 157 OFFCURVE",
"149 353 CURVE",
"132 333 LINE",
"668 333 LINE",
"672 383 LINE",
"95 383 LINE",
"92 349 LINE SMOOTH",
"75 129 OFFCURVE",
"180 -8 OFFCURVE",
"365 -8 CURVE SMOOTH"
);
}
);
};
layerId = "9E718F8A-2CEA-4931-B05D-987794BD97DA";
paths = (
{
closed = 1;
nodes = (
"550 -8 OFFCURVE",
"677 130 OFFCURVE",
"695 353 CURVE SMOOTH",
"712 577 OFFCURVE",
"600 713 OFFCURVE",
"400 713 CURVE SMOOTH",
"302 713 OFFCURVE",
"206 679 OFFCURVE",
"143 620 CURVE",
"163 576 LINE",
"233 636 OFFCURVE",
"309 664 OFFCURVE",
"397 664 CURVE SMOOTH",
"566 664 OFFCURVE",
"654 551 OFFCURVE",
"639 353 CURVE SMOOTH",
"623 156 OFFCURVE",
"524 42 OFFCURVE",
"369 42 CURVE SMOOTH",
"215 42 OFFCURVE",
"133 157 OFFCURVE",
"149 353 CURVE",
"132 333 LINE",
"668 333 LINE",
"672 383 LINE",
"95 383 LINE",
"92 349 LINE SMOOTH",
"75 129 OFFCURVE",
"180 -8 OFFCURVE",
"365 -8 CURVE SMOOTH"
);
}
);
width = 732;
},
{
anchors = (
{
name = bottom;
position = "{385, 0}";
},
{
name = top;
position = "{439, 705}";
}
);
background = {
anchors = (
{
name = bottom;
position = "{385, 0}";
},
{
name = top;
position = "{439, 705}";
}
);
paths = (
{
closed = 1;
nodes = (
"588 -9 OFFCURVE",
"731 141 OFFCURVE",
"748 353 CURVE SMOOTH",
"765 574 OFFCURVE",
"636 714 OFFCURVE",
"417 714 CURVE SMOOTH",
"321 714 OFFCURVE",
"215 683 OFFCURVE",
"149 634 CURVE",
"191 519 LINE",
"255 564 OFFCURVE",
"327 586 OFFCURVE",
"401 586 CURVE SMOOTH",
"534 586 OFFCURVE",
"600 507 OFFCURVE",
"588 353 CURVE SMOOTH",
"575 196 OFFCURVE",
"511 116 OFFCURVE",
"399 116 CURVE SMOOTH",
"281 116 OFFCURVE",
"220 196 OFFCURVE",
"238 353 CURVE",
"192 295 LINE",
"644 295 LINE",
"654 418 LINE",
"82 418 LINE",
"77 356 LINE SMOOTH",
"59 122 OFFCURVE",
"179 -9 OFFCURVE",
"394 -9 CURVE SMOOTH"
);
}
);
};
layerId = "E1B555A7-F4E1-459C-9C1A-AE952106EEF9";
paths = (
{
closed = 1;
nodes = (
"588 -9 OFFCURVE",
"731 141 OFFCURVE",
"748 353 CURVE SMOOTH",
"765 574 OFFCURVE",
"636 714 OFFCURVE",
"417 714 CURVE SMOOTH",
"321 714 OFFCURVE",
"215 683 OFFCURVE",
"149 634 CURVE",
"191 519 LINE",
"255 564 OFFCURVE",
"327 586 OFFCURVE",
"401 586 CURVE SMOOTH",
"534 586 OFFCURVE",
"600 507 OFFCURVE",
"588 353 CURVE SMOOTH",
"575 196 OFFCURVE",
"511 116 OFFCURVE",
"399 116 CURVE SMOOTH",
"281 116 OFFCURVE",
"220 196 OFFCURVE",
"238 353 CURVE",
"192 295 LINE",
"644 295 LINE",
"654 418 LINE",
"82 418 LINE",
"77 356 LINE SMOOTH",
"59 122 OFFCURVE",
"179 -9 OFFCURVE",
"394 -9 CURVE SMOOTH"
);
}
);
width = 769;
}
);
leftKerningGroup = O;
leftMetricsKey = O;
rightKerningGroup = O;
rightMetricsKey = O;
unicode = 018F;
},
{
glyphname = T;
lastChange = "2016-09-13 09:34:46 +0000";
layers = (
{
anchors = (
{
name = bottom;
position = "{294, 0}";
},
{
name = center;
position = "{322, 353}";
},
{
name = top;
position = "{349, 705}";
}
);
background = {
anchors = (
{
name = bottom;
position = "{294, 0}";
},
{
name = center;
position = "{322, 353}";
},
{
name = top;
position = "{349, 705}";
}
);
paths = (
{
closed = 1;
nodes = (
"321 0 LINE",
"373 657 LINE",
"628 657 LINE",
"631 705 LINE",
"67 705 LINE",
"64 657 LINE",
"319 657 LINE",
"267 0 LINE"
);
}
);
};
layerId = "9E718F8A-2CEA-4931-B05D-987794BD97DA";
paths = (
{
closed = 1;
nodes = (
"321 0 LINE",
"373 657 LINE",
"628 657 LINE",
"631 705 LINE",
"67 705 LINE",
"64 657 LINE",
"319 657 LINE",
"267 0 LINE"
);
}
);
width = 588;
},
{
anchors = (
{
name = bottom;
position = "{312, 0}";
},
{
name = center;
position = "{340, 353}";
},
{
name = top;
position = "{367, 705}";
}
);
background = {
anchors = (
{
name = bottom;
position = "{312, 0}";
},
{
name = center;
position = "{340, 353}";
},
{
name = top;
position = "{367, 705}";
}
);
paths = (
{
closed = 1;
nodes = (
"393 0 LINE",
"438 574 LINE",
"657 574 LINE",
"667 705 LINE",
"67 705 LINE",
"57 574 LINE",
"276 574 LINE",
"231 0 LINE"
);
}
);
};
layerId = "E1B555A7-F4E1-459C-9C1A-AE952106EEF9";
paths = (
{
closed = 1;
nodes = (
"393 0 LINE",
"438 574 LINE",
"657 574 LINE",
"667 705 LINE",
"67 705 LINE",
"57 574 LINE",
"276 574 LINE",
"231 0 LINE"
);
}
);
width = 624;
}
);
leftKerningGroup = T;
rightKerningGroup = T;
unicode = 0054;
userData = {
anchors = (
);
b = {
};
com.typemytype.robofont.layerData = {
b = {
anchors = (
);
components = (
);
contours = (
{
points = (
{
segmentType = curve;
smooth = 1;
x = 581;
y = 0;
},
{
segmentType = line;
smooth = 1;
x = 1350;
y = 0;
},
{
smooth = 0;
x = 1399;
y = 0;
},
{
smooth = 0;
x = 1423;
y = 34;
},
{
segmentType = curve;
smooth = 1;
x = 1423;
y = 71;
},
{
smooth = 0;
x = 1423;
y = 107;
},
{
smooth = 0;
x = 1399;
y = 141;
},
{
segmentType = curve;
smooth = 1;
x = 1350;
y = 141;
},
{
segmentType = line;
smooth = 0;
x = 671;
y = 141;
},
{
segmentType = line;
smooth = 0;
x = 671;
y = 665;
},
{
segmentType = line;
smooth = 1;
x = 1290;
y = 665;
},
{
smooth = 0;
x = 1339;
y = 665;
},
{
smooth = 0;
x = 1364;
y = 698;
},
{
segmentType = curve;
smooth = 1;
x = 1364;
y = 734;
},
{
smooth = 0;
x = 1364;
y = 770;
},
{
smooth = 0;
x = 1341;
y = 803;
},
{
segmentType = curve;
smooth = 1;
x = 1290;
y = 803;
},
{
segmentType = line;
smooth = 0;
x = 671;
y = 803;
},
{
segmentType = line;
smooth = 0;
x = 671;
y = 1285;
},
{
segmentType = line;
smooth = 1;
x = 1322;
y = 1285;
},
{
smooth = 0;
x = 1371;
y = 1285;
},
{
smooth = 0;
x = 1395;
y = 1319;
},
{
segmentType = curve;
smooth = 1;
x = 1395;
y = 1356;
},
{
smooth = 0;
x = 1395;
y = 1392;
},
{
smooth = 0;
x = 1371;
y = 1426;
},
{
segmentType = curve;
smooth = 1;
x = 1322;
y = 1426;
},
{
segmentType = line;
smooth = 1;
x = 576;
y = 1426;
},
{
smooth = 0;
x = 528;
y = 1426;
},
{
smooth = 0;
x = 493;
y = 1383;
},
{
segmentType = curve;
smooth = 1;
x = 493;
y = 1340;
},
{
segmentType = line;
smooth = 1;
x = 493;
y = 86;
},
{
smooth = 0;
x = 493;
y = 41;
},
{
smooth = 0;
x = 537;
y = 0;
}
);
}
);
lib = {
};
name = T;
unicodes = (
);
width = 1158;
};
};
components = (
);
contours = (
);
lib = {
};
name = T;
unicodes = (
);
width = 1199;
};
},
{
glyphname = Tbar;
lastChange = "2016-09-13 09:34:46 +0000";
layers = (
{
background = {
paths = (
{
closed = 1;
nodes = (
"492 335 LINE",
"496 381 LINE",
"152 381 LINE",
"148 335 LINE"
);
},
{
closed = 1;
nodes = (
"321 0 LINE",
"373 657 LINE",
"628 657 LINE",
"631 705 LINE",
"67 705 LINE",
"64 657 LINE",
"319 657 LINE",
"267 0 LINE"
);
}
);
};
layerId = "9E718F8A-2CEA-4931-B05D-987794BD97DA";
paths = (
{
closed = 1;
nodes = (
"492 335 LINE",
"496 381 LINE",
"152 381 LINE",
"148 335 LINE"
);
},
{
closed = 1;
nodes = (
"321 0 LINE",
"373 657 LINE",
"628 657 LINE",
"631 705 LINE",
"67 705 LINE",
"64 657 LINE",
"319 657 LINE",
"267 0 LINE"
);
}
);
width = 588;
},
{
background = {
paths = (
{
closed = 1;
nodes = (
"551 295 LINE",
"561 417 LINE",
"129 417 LINE",
"119 295 LINE"
);
},
{
closed = 1;
nodes = (
"393 0 LINE",
"438 574 LINE",
"657 574 LINE",
"667 705 LINE",
"67 705 LINE",
"57 574 LINE",
"276 574 LINE",
"231 0 LINE"
);
}
);
};
layerId = "E1B555A7-F4E1-459C-9C1A-AE952106EEF9";
paths = (
{
closed = 1;
nodes = (
"551 295 LINE",
"561 417 LINE",
"129 417 LINE",
"119 295 LINE"
);
},
{
closed = 1;
nodes = (
"393 0 LINE",
"438 574 LINE",
"657 574 LINE",
"667 705 LINE",
"67 705 LINE",
"57 574 LINE",
"276 574 LINE",
"231 0 LINE"
);
}
);
width = 624;
}
);
leftKerningGroup = T;
leftMetricsKey = T;
rightKerningGroup = T;
rightMetricsKey = T;
unicode = 0166;
userData = {
com.typemytype.robofont.layerData = {
b = {
anchors = (
);
components = (
);
contours = (
);
lib = {
};
name = Tbar;
unicodes = (
);
width = 1158;
};
};
};
},
{
glyphname = U;
lastChange = "2016-09-13 09:34:46 +0000";
layers = (
{
anchors = (
{
name = bottom;
position = "{359, 0}";
},
{
name = ogonek;
position = "{472, 10}";
},
{
name = top;
position = "{414, 705}";
},
{
name = topright;
position = "{658, 705}";
}
);
background = {
anchors = (
{
name = bottom;
position = "{359, 0}";
},
{
name = ogonek;
position = "{472, 10}";
},
{
name = top;
position = "{414, 705}";
},
{
name = topright;
position = "{658, 705}";
}
);
paths = (
{
closed = 1;
nodes = (
"536 -8 OFFCURVE",
"637 87 OFFCURVE",
"651 270 CURVE SMOOTH",
"685 705 LINE",
"631 705 LINE",
"597 263 LINE SMOOTH",
"585 116 OFFCURVE",
"505 42 OFFCURVE",
"362 42 CURVE SMOOTH",
"218 42 OFFCURVE",
"151 116 OFFCURVE",
"163 263 CURVE SMOOTH",
"197 705 LINE",
"143 705 LINE",
"109 270 LINE SMOOTH",
"95 87 OFFCURVE",
"180 -8 OFFCURVE",
"358 -8 CURVE SMOOTH"
);
}
);
};
layerId = "9E718F8A-2CEA-4931-B05D-987794BD97DA";
paths = (
{
closed = 1;
nodes = (
"536 -8 OFFCURVE",
"637 87 OFFCURVE",
"651 270 CURVE SMOOTH",
"685 705 LINE",
"631 705 LINE",
"597 263 LINE SMOOTH",
"585 116 OFFCURVE",
"505 42 OFFCURVE",
"362 42 CURVE SMOOTH",
"218 42 OFFCURVE",
"151 116 OFFCURVE",
"163 263 CURVE SMOOTH",
"197 705 LINE",
"143 705 LINE",
"109 270 LINE SMOOTH",
"95 87 OFFCURVE",
"180 -8 OFFCURVE",
"358 -8 CURVE SMOOTH"
);
}
);
width = 718;
},
{
anchors = (
{
name = bottom;
position = "{370, 0}";
},
{
name = ogonek;
position = "{493, 10}";
},
{
name = top;
position = "{425, 705}";
},
{
name = topright;
position = "{651, 705}";
}
);
background = {
anchors = (
{
name = bottom;
position = "{370, 0}";
},
{
name = ogonek;
position = "{493, 10}";
},
{
name = top;
position = "{425, 705}";
},
{
name = topright;
position = "{651, 705}";
}
);
paths = (
{
closed = 1;
nodes = (
"567 -9 OFFCURVE",
"683 97 OFFCURVE",
"698 292 CURVE SMOOTH",
"730 705 LINE",
"572 705 LINE",
"539 285 LINE SMOOTH",
"531 176 OFFCURVE",
"474 116 OFFCURVE",
"379 116 CURVE SMOOTH",
"283 116 OFFCURVE",
"237 175 OFFCURVE",
"245 285 CURVE SMOOTH",
"278 705 LINE",
"120 705 LINE",
"88 292 LINE SMOOTH",
"72 95 OFFCURVE",
"169 -9 OFFCURVE",
"369 -9 CURVE SMOOTH"
);
}
);
};
layerId = "E1B555A7-F4E1-459C-9C1A-AE952106EEF9";
paths = (
{
closed = 1;
nodes = (
"567 -9 OFFCURVE",
"683 97 OFFCURVE",
"698 292 CURVE SMOOTH",
"730 705 LINE",
"572 705 LINE",
"539 285 LINE SMOOTH",
"531 176 OFFCURVE",
"474 116 OFFCURVE",
"379 116 CURVE SMOOTH",
"283 116 OFFCURVE",
"237 175 OFFCURVE",
"245 285 CURVE SMOOTH",
"278 705 LINE",
"120 705 LINE",
"88 292 LINE SMOOTH",
"72 95 OFFCURVE",
"169 -9 OFFCURVE",
"369 -9 CURVE SMOOTH"
);
}
);
width = 740;
}
);
leftKerningGroup = U;
rightKerningGroup = U;
unicode = 0055;
userData = {
anchors = (
);
b = {
};
com.typemytype.robofont.layerData = {
b = {
anchors = (
);
components = (
);
contours = (
);
lib = {
};
name = U;
unicodes = (
);
width = 1490;
};
};
components = (
);
contours = (
);
lib = {
};
name = U;
unicodes = (
);
width = 1513;
};
},
{
glyphname = Uhorn;
lastChange = "2016-09-13 09:34:46 +0000";
layers = (
{
anchors = (
{
name = bottom;
position = "{359, 0}";
},
{
name = top;
position = "{414, 705}";
}
);
background = {
anchors = (
{
name = bottom;
position = "{359, 0}";
},
{
name = top;
position = "{414, 705}";
}
);
paths = (
{
closed = 1;
nodes = (
"763 818 LINE SMOOTH",
"757 738 OFFCURVE",
"724 706 OFFCURVE",
"647 705 CURVE SMOOTH",
"631 705 LINE",
"597 263 LINE SMOOTH",
"585 116 OFFCURVE",
"505 42 OFFCURVE",
"362 42 CURVE SMOOTH",
"218 42 OFFCURVE",
"151 116 OFFCURVE",
"163 263 CURVE SMOOTH",
"197 705 LINE",
"143 705 LINE",
"109 270 LINE SMOOTH",
"95 87 OFFCURVE",
"180 -8 OFFCURVE",
"358 -8 CURVE SMOOTH",
"536 -8 OFFCURVE",
"637 87 OFFCURVE",
"651 270 CURVE SMOOTH",
"684 691 LINE",
"646 663 LINE",
"745 664 OFFCURVE",
"805 716 OFFCURVE",
"813 809 CURVE SMOOTH",
"814 831 LINE",
"764 831 LINE"
);
}
);
};
layerId = "9E718F8A-2CEA-4931-B05D-987794BD97DA";
paths = (
{
closed = 1;
nodes = (
"763 818 LINE SMOOTH",
"757 738 OFFCURVE",
"724 706 OFFCURVE",
"647 705 CURVE SMOOTH",
"631 705 LINE",
"597 263 LINE SMOOTH",
"585 116 OFFCURVE",
"505 42 OFFCURVE",
"362 42 CURVE SMOOTH",
"218 42 OFFCURVE",
"151 116 OFFCURVE",
"163 263 CURVE SMOOTH",
"197 705 LINE",
"143 705 LINE",
"109 270 LINE SMOOTH",
"95 87 OFFCURVE",
"180 -8 OFFCURVE",
"358 -8 CURVE SMOOTH",
"536 -8 OFFCURVE",
"637 87 OFFCURVE",
"651 270 CURVE SMOOTH",
"684 691 LINE",
"646 663 LINE",
"745 664 OFFCURVE",
"805 716 OFFCURVE",
"813 809 CURVE SMOOTH",
"814 831 LINE",
"764 831 LINE"
);
}
);
width = 718;
},
{
anchors = (
{
name = bottom;
position = "{370, 0}";
},
{
name = top;
position = "{425, 705}";
}
);
background = {
anchors = (
{
name = bottom;
position = "{370, 0}";
},
{
name = top;
position = "{425, 705}";
}
);
paths = (
{
closed = 1;
nodes = (
"716 806 LINE SMOOTH",
"711 731 OFFCURVE",
"685 705 OFFCURVE",
"618 705 CURVE SMOOTH",
"572 705 LINE",
"539 285 LINE SMOOTH",
"531 176 OFFCURVE",
"474 116 OFFCURVE",
"379 116 CURVE SMOOTH",
"283 116 OFFCURVE",
"237 175 OFFCURVE",
"245 285 CURVE SMOOTH",
"278 705 LINE",
"120 705 LINE",
"88 292 LINE SMOOTH",
"72 95 OFFCURVE",
"169 -9 OFFCURVE",
"369 -9 CURVE SMOOTH",
"567 -9 OFFCURVE",
"683 97 OFFCURVE",
"698 292 CURVE SMOOTH",
"728 674 LINE",
"693 631 LINE",
"779 636 OFFCURVE",
"842 699 OFFCURVE",
"849 787 CURVE SMOOTH",
"852 826 LINE",
"718 826 LINE"
);
}
);
};
layerId = "E1B555A7-F4E1-459C-9C1A-AE952106EEF9";
paths = (
{
closed = 1;
nodes = (
"716 806 LINE SMOOTH",
"711 731 OFFCURVE",
"685 705 OFFCURVE",
"618 705 CURVE SMOOTH",
"572 705 LINE",
"539 285 LINE SMOOTH",
"531 176 OFFCURVE",
"474 116 OFFCURVE",
"379 116 CURVE SMOOTH",
"283 116 OFFCURVE",
"237 175 OFFCURVE",
"245 285 CURVE SMOOTH",
"278 705 LINE",
"120 705 LINE",
"88 292 LINE SMOOTH",
"72 95 OFFCURVE",
"169 -9 OFFCURVE",
"369 -9 CURVE SMOOTH",
"567 -9 OFFCURVE",
"683 97 OFFCURVE",
"698 292 CURVE SMOOTH",
"728 674 LINE",
"693 631 LINE",
"779 636 OFFCURVE",
"842 699 OFFCURVE",
"849 787 CURVE SMOOTH",
"852 826 LINE",
"718 826 LINE"
);
}
);
width = 740;
}
);
leftKerningGroup = U;
leftMetricsKey = U;
widthMetricsKey = U;
rightKerningGroup = Uhorn;
unicode = 01AF;
},
{
glyphname = Uogonek;
lastChange = "2016-09-13 09:34:46 +0000";
layers = (
{
background = {
paths = (
{
closed = 1;
nodes = (
"597 263 LINE SMOOTH",
"585 116 OFFCURVE",
"505 42 OFFCURVE",
"362 42 CURVE SMOOTH",
"218 42 OFFCURVE",
"151 116 OFFCURVE",
"163 263 CURVE SMOOTH",
"197 705 LINE",
"143 705 LINE",
"109 270 LINE SMOOTH",
"95 87 OFFCURVE",
"180 -8 OFFCURVE",
"358 -8 CURVE SMOOTH",
"411 -8 LINE",
"401 11 LINE",
"352 -9 OFFCURVE",
"326 -42 OFFCURVE",
"322 -88 CURVE SMOOTH",
"317 -149 OFFCURVE",
"360 -191 OFFCURVE",
"427 -191 CURVE SMOOTH",
"458 -191 OFFCURVE",
"487 -183 OFFCURVE",
"509 -168 CURVE",
"496 -130 LINE",
"474 -141 OFFCURVE",
"452 -148 OFFCURVE",
"435 -148 CURVE SMOOTH",
"393 -148 OFFCURVE",
"369 -123 OFFCURVE",
"373 -82 CURVE SMOOTH",
"376 -40 OFFCURVE",
"404 -13 OFFCURVE",
"466 6 CURVE SMOOTH",
"577 40 OFFCURVE",
"640 128 OFFCURVE",
"651 270 CURVE SMOOTH",
"685 705 LINE",
"631 705 LINE"
);
}
);
};
layerId = "9E718F8A-2CEA-4931-B05D-987794BD97DA";
paths = (
{
closed = 1;
nodes = (
"597 263 LINE SMOOTH",
"585 116 OFFCURVE",
"505 42 OFFCURVE",
"362 42 CURVE SMOOTH",
"218 42 OFFCURVE",
"151 116 OFFCURVE",
"163 263 CURVE SMOOTH",
"197 705 LINE",
"143 705 LINE",
"109 270 LINE SMOOTH",
"95 87 OFFCURVE",
"180 -8 OFFCURVE",
"358 -8 CURVE SMOOTH",
"411 -8 LINE",
"401 11 LINE",
"352 -9 OFFCURVE",
"326 -42 OFFCURVE",
"322 -88 CURVE SMOOTH",
"317 -149 OFFCURVE",
"360 -191 OFFCURVE",
"427 -191 CURVE SMOOTH",
"458 -191 OFFCURVE",
"487 -183 OFFCURVE",
"509 -168 CURVE",
"496 -130 LINE",
"474 -141 OFFCURVE",
"452 -148 OFFCURVE",
"435 -148 CURVE SMOOTH",
"393 -148 OFFCURVE",
"369 -123 OFFCURVE",
"373 -82 CURVE SMOOTH",
"376 -40 OFFCURVE",
"404 -13 OFFCURVE",
"466 6 CURVE SMOOTH",
"577 40 OFFCURVE",
"640 128 OFFCURVE",
"651 270 CURVE SMOOTH",
"685 705 LINE",
"631 705 LINE"
);
}
);
width = 718;
},
{
background = {
paths = (
{
closed = 1;
nodes = (
"539 285 LINE SMOOTH",
"531 176 OFFCURVE",
"474 116 OFFCURVE",
"379 116 CURVE SMOOTH",
"283 116 OFFCURVE",
"237 175 OFFCURVE",
"245 285 CURVE SMOOTH",
"278 705 LINE",
"120 705 LINE",
"88 292 LINE SMOOTH",
"72 95 OFFCURVE",
"169 -9 OFFCURVE",
"370 -9 CURVE SMOOTH",
"391 -9 LINE",
"383 11 LINE",
"344 -11 OFFCURVE",
"320 -48 OFFCURVE",
"317 -87 CURVE SMOOTH",
"312 -151 OFFCURVE",
"361 -197 OFFCURVE",
"436 -197 CURVE SMOOTH",
"472 -197 OFFCURVE",
"508 -190 OFFCURVE",
"539 -177 CURVE",
"528 -105 LINE",
"508 -113 OFFCURVE",
"490 -117 OFFCURVE",
"473 -117 CURVE SMOOTH",
"435 -117 OFFCURVE",
"415 -99 OFFCURVE",
"418 -64 CURVE SMOOTH",
"420 -32 OFFCURVE",
"444 -6 OFFCURVE",
"483 5 CURVE SMOOTH",
"612 40 OFFCURVE",
"686 138 OFFCURVE",
"698 292 CURVE SMOOTH",
"730 705 LINE",
"572 705 LINE"
);
}
);
};
layerId = "E1B555A7-F4E1-459C-9C1A-AE952106EEF9";
paths = (
{
closed = 1;
nodes = (
"539 285 LINE SMOOTH",
"531 176 OFFCURVE",
"474 116 OFFCURVE",
"379 116 CURVE SMOOTH",
"283 116 OFFCURVE",
"237 175 OFFCURVE",
"245 285 CURVE SMOOTH",
"278 705 LINE",
"120 705 LINE",
"88 292 LINE SMOOTH",
"72 95 OFFCURVE",
"169 -9 OFFCURVE",
"370 -9 CURVE SMOOTH",
"391 -9 LINE",
"383 11 LINE",
"344 -11 OFFCURVE",
"320 -48 OFFCURVE",
"317 -87 CURVE SMOOTH",
"312 -151 OFFCURVE",
"361 -197 OFFCURVE",
"436 -197 CURVE SMOOTH",
"472 -197 OFFCURVE",
"508 -190 OFFCURVE",
"539 -177 CURVE",
"528 -105 LINE",
"508 -113 OFFCURVE",
"490 -117 OFFCURVE",
"473 -117 CURVE SMOOTH",
"435 -117 OFFCURVE",
"415 -99 OFFCURVE",
"418 -64 CURVE SMOOTH",
"420 -32 OFFCURVE",
"444 -6 OFFCURVE",
"483 5 CURVE SMOOTH",
"612 40 OFFCURVE",
"686 138 OFFCURVE",
"698 292 CURVE SMOOTH",
"730 705 LINE",
"572 705 LINE"
);
}
);
width = 740;
}
);
leftKerningGroup = U;
leftMetricsKey = U;
rightKerningGroup = U;
rightMetricsKey = U;
unicode = 0172;
},
{
glyphname = V;
lastChange = "2016-09-13 09:34:46 +0000";
layers = (
{
anchors = (
{
name = bottom;
position = "{339, 0}";
},
{
name = top;
position = "{393, 705}";
}
);
background = {
anchors = (
{
name = bottom;
position = "{339, 0}";
},
{
name = top;
position = "{393, 705}";
}
);
paths = (
{
closed = 1;
nodes = (
"363 0 LINE",
"723 705 LINE",
"667 705 LINE",
"328 37 LINE",
"355 37 LINE",
"120 705 LINE",
"64 705 LINE",
"313 0 LINE"
);
}
);
};
layerId = "9E718F8A-2CEA-4931-B05D-987794BD97DA";
paths = (
{
closed = 1;
nodes = (
"363 0 LINE",
"723 705 LINE",
"667 705 LINE",
"328 37 LINE",
"355 37 LINE",
"120 705 LINE",
"64 705 LINE",
"313 0 LINE"
);
}
);
width = 676;
},
{
anchors = (
{
name = bottom;
position = "{366, 0}";
},
{
name = top;
position = "{420, 705}";
}
);
background = {
anchors = (
{
name = bottom;
position = "{366, 0}";
},
{
name = top;
position = "{420, 705}";
}
);
paths = (
{
closed = 1;
nodes = (
"430 0 LINE",
"803 705 LINE",
"640 705 LINE",
"356 147 LINE",
"402 147 LINE",
"205 705 LINE",
"38 705 LINE",
"301 0 LINE"
);
}
);
};
layerId = "E1B555A7-F4E1-459C-9C1A-AE952106EEF9";
paths = (
{
closed = 1;
nodes = (
"430 0 LINE",
"803 705 LINE",
"640 705 LINE",
"356 147 LINE",
"402 147 LINE",
"205 705 LINE",
"38 705 LINE",
"301 0 LINE"
);
}
);
width = 731;
}
);
leftKerningGroup = V;
rightKerningGroup = V;
unicode = 0056;
userData = {
anchors = (
);
b = {
};
com.typemytype.robofont.guides = (
);
com.typemytype.robofont.layerData = {
b = {
anchors = (
);
components = (
);
contours = (
{
points = (
{
segmentType = curve;
smooth = 1;
x = 644;
y = "-5";
},
{
smooth = 0;
x = 712;
y = "-5";
},
{
smooth = 0;
x = 764;
y = 38;
},
{
segmentType = curve;
smooth = 1;
x = 793;
y = 117;
},
{
segmentType = line;
smooth = 1;
x = 1243;
y = 1324;
},
{
smooth = 0;
x = 1247;
y = 1335;
},
{
smooth = 0;
x = 1248;
y = 1342;
},
{
segmentType = curve;
smooth = 1;
x = 1248;
y = 1351;
},
{
smooth = 0;
x = 1248;
y = 1395;
},
{
smooth = 0;
x = 1203;
y = 1427;
},
{
segmentType = curve;
smooth = 1;
x = 1160;
y = 1427;
},
{
smooth = 0;
x = 1125;
y = 1427;
},
{
smooth = 0;
x = 1090;
y = 1408;
},
{
segmentType = curve;
smooth = 1;
x = 1076;
y = 1369;
},
{
segmentType = line;
smooth = 0;
x = 651;
y = 192;
},
{
segmentType = line;
smooth = 0;
x = 650;
y = 190;
},
{
segmentType = line;
smooth = 1;
x = 214;
y = 1370;
},
{
smooth = 0;
x = 200;
y = 1407;
},
{
smooth = 0;
x = 170;
y = 1427;
},
{
segmentType = curve;
smooth = 1;
x = 135;
y = 1427;
},
{
smooth = 0;
x = 90;
y = 1427;
},
{
smooth = 0;
x = 43;
y = 1392;
},
{
segmentType = curve;
smooth = 1;
x = 43;
y = 1344;
},
{
smooth = 0;
x = 43;
y = 1336;
},
{
smooth = 0;
x = 44;
y = 1326;
},
{
segmentType = curve;
smooth = 0;
x = 48;
y = 1318;
},
{
segmentType = line;
smooth = 1;
x = 501;
y = 117;
},
{
smooth = 0;
x = 532;
y = 35;
},
{
smooth = 0;
x = 581;
y = "-5";
}
);
}
);
lib = {
};
name = V;
unicodes = (
);
width = 1289;
};
};
components = (
);
contours = (
);
lib = {
};
name = V;
unicodes = (
);
width = 1365;
};
},
{
glyphname = W;
lastChange = "2016-09-13 09:34:46 +0000";
layers = (
{
anchors = (
{
name = bottom;
position = "{548, 0}";
},
{
name = top;
position = "{602, 705}";
}
);
background = {
anchors = (
{
name = bottom;
position = "{548, 0}";
},
{
name = top;
position = "{602, 705}";
}
);
paths = (
{
closed = 1;
nodes = (
"332 0 LINE",
"609 649 LINE",
"588 649 LINE",
"763 0 LINE",
"811 0 LINE",
"1111 705 LINE",
"1057 705 LINE",
"774 35 LINE",
"804 35 LINE",
"625 704 LINE",
"581 705 LINE",
"297 35 LINE",
"326 35 LINE",
"148 705 LINE",
"94 705 LINE",
"284 0 LINE"
);
}
);
};
layerId = "9E718F8A-2CEA-4931-B05D-987794BD97DA";
paths = (
{
closed = 1;
nodes = (
"332 0 LINE",
"609 649 LINE",
"588 649 LINE",
"763 0 LINE",
"811 0 LINE",
"1111 705 LINE",
"1057 705 LINE",
"774 35 LINE",
"804 35 LINE",
"625 704 LINE",
"581 705 LINE",
"297 35 LINE",
"326 35 LINE",
"148 705 LINE",
"94 705 LINE",
"284 0 LINE"
);
}
);
width = 1095;
},
{
anchors = (
{
name = bottom;
position = "{558, 0}";
},
{
name = top;
position = "{613, 705}";
}
);
background = {
anchors = (
{
name = bottom;
position = "{558, 0}";
},
{
name = top;
position = "{613, 705}";
}
);
paths = (
{
closed = 1;
nodes = (
"396 0 LINE",
"610 492 LINE",
"586 492 LINE",
"719 0 LINE",
"848 0 LINE",
"1154 705 LINE",
"1001 705 LINE",
"777 167 LINE",
"812 167 LINE",
"674 705 LINE",
"562 705 LINE",
"331 167 LINE",
"371 167 LINE",
"235 705 LINE",
"72 705 LINE",
"267 0 LINE"
);
}
);
};
layerId = "E1B555A7-F4E1-459C-9C1A-AE952106EEF9";
paths = (
{
closed = 1;
nodes = (
"396 0 LINE",
"610 492 LINE",
"586 492 LINE",
"719 0 LINE",
"848 0 LINE",
"1154 705 LINE",
"1001 705 LINE",
"777 167 LINE",
"812 167 LINE",
"674 705 LINE",
"562 705 LINE",
"331 167 LINE",
"371 167 LINE",
"235 705 LINE",
"72 705 LINE",
"267 0 LINE"
);
}
);
width = 1116;
}
);
leftKerningGroup = V;
rightKerningGroup = V;
unicode = 0057;
userData = {
anchors = (
);
b = {
};
com.typemytype.robofont.layerData = {
b = {
anchors = (
);
components = (
);
contours = (
);
lib = {
};
name = W;
unicodes = (
);
width = 2126;
};
};
components = (
);
contours = (
);
lib = {
};
name = W;
unicodes = (
);
width = 2070;
};
},
{
glyphname = X;
lastChange = "2016-09-13 09:34:46 +0000";
layers = (
{
anchors = (
{
name = bottom;
position = "{318, 0}";
},
{
name = top;
position = "{373, 705}";
}
);
background = {
anchors = (
{
name = bottom;
position = "{318, 0}";
},
{
name = top;
position = "{373, 705}";
}
);
paths = (
{
closed = 1;
nodes = (
"343 320 LINE",
"377 361 LINE",
"657 704 LINE",
"594 705 LINE",
"351 403 LINE",
"315 362 LINE",
"19 0 LINE",
"84 0 LINE"
);
},
{
closed = 1;
nodes = (
"616 0 LINE",
"377 361 LINE",
"351 403 LINE",
"153 705 LINE",
"89 705 LINE",
"315 362 LINE",
"343 320 LINE",
"552 0 LINE"
);
}
);
};
layerId = "9E718F8A-2CEA-4931-B05D-987794BD97DA";
paths = (
{
closed = 1;
nodes = (
"343 320 LINE",
"377 361 LINE",
"657 704 LINE",
"594 705 LINE",
"351 403 LINE",
"315 362 LINE",
"19 0 LINE",
"84 0 LINE"
);
},
{
closed = 1;
nodes = (
"616 0 LINE",
"377 361 LINE",
"351 403 LINE",
"153 705 LINE",
"89 705 LINE",
"315 362 LINE",
"343 320 LINE",
"552 0 LINE"
);
}
);
width = 635;
},
{
anchors = (
{
name = bottom;
position = "{339, 0}";
},
{
name = top;
position = "{393, 705}";
}
);
background = {
anchors = (
{
name = bottom;
position = "{339, 0}";
},
{
name = top;
position = "{393, 705}";
}
);
paths = (
{
closed = 1;
nodes = (
"357 239 LINE",
"457 357 LINE",
"747 705 LINE",
"560 705 LINE",
"375 474 LINE",
"275 357 LINE",
"-22 0 LINE",
"165 0 LINE"
);
},
{
closed = 1;
nodes = (
"698 0 LINE",
"457 357 LINE",
"375 474 LINE",
"227 705 LINE",
"40 705 LINE",
"275 357 LINE",
"357 239 LINE",
"510 0 LINE"
);
}
);
};
layerId = "E1B555A7-F4E1-459C-9C1A-AE952106EEF9";
paths = (
{
closed = 1;
nodes = (
"357 239 LINE",
"457 357 LINE",
"747 705 LINE",
"560 705 LINE",
"375 474 LINE",
"275 357 LINE",
"-22 0 LINE",
"165 0 LINE"
);
},
{
closed = 1;
nodes = (
"698 0 LINE",
"457 357 LINE",
"375 474 LINE",
"227 705 LINE",
"40 705 LINE",
"275 357 LINE",
"357 239 LINE",
"510 0 LINE"
);
}
);
width = 677;
}
);
leftKerningGroup = X;
rightKerningGroup = X;
unicode = 0058;
userData = {
anchors = (
);
b = {
};
com.typemytype.robofont.layerData = {
b = {
anchors = (
);
components = (
);
contours = (
{
points = (
{
segmentType = curve;
smooth = 1;
x = 151;
y = 0;
},
{
smooth = 0;
x = 176;
y = 0;
},
{
smooth = 0;
x = 201;
y = 12;
},
{
segmentType = curve;
smooth = 1;
x = 222;
y = 41;
},
{
segmentType = line;
smooth = 0;
x = 641;
y = 616;
},
{
segmentType = line;
smooth = 0;
x = 746;
y = 734;
},
{
segmentType = line;
smooth = 1;
x = 1175;
y = 1310;
},
{
smooth = 0;
x = 1186;
y = 1325;
},
{
smooth = 0;
x = 1190;
y = 1338;
},
{
segmentType = curve;
smooth = 1;
x = 1190;
y = 1353;
},
{
smooth = 0;
x = 1190;
y = 1393;
},
{
smooth = 0;
x = 1153;
y = 1426;
},
{
segmentType = curve;
smooth = 1;
x = 1110;
y = 1426;
},
{
smooth = 0;
x = 1083;
y = 1426;
},
{
smooth = 0;
x = 1058;
y = 1414;
},
{
segmentType = curve;
smooth = 1;
x = 1037;
y = 1385;
},
{
segmentType = line;
smooth = 0;
x = 648;
y = 844;
},
{
segmentType = line;
smooth = 0;
x = 542;
y = 732;
},
{
segmentType = line;
smooth = 1;
x = 84;
y = 121;
},
{
smooth = 0;
x = 73;
y = 106;
},
{
smooth = 0;
x = 68;
y = 91;
},
{
segmentType = curve;
smooth = 1;
x = 68;
y = 76;
},
{
smooth = 0;
x = 68;
y = 35;
},
{
smooth = 0;
x = 108;
y = 0;
}
);
},
{
points = (
{
segmentType = curve;
smooth = 1;
x = 1104;
y = 0;
},
{
smooth = 0;
x = 1151;
y = 0;
},
{
smooth = 0;
x = 1200;
y = 40;
},
{
segmentType = curve;
smooth = 1;
x = 1200;
y = 85;
},
{
smooth = 0;
x = 1200;
y = 98;
},
{
smooth = 0;
x = 1195;
y = 113;
},
{
segmentType = curve;
smooth = 0;
x = 1186;
y = 126;
},
{
segmentType = line;
smooth = 0;
x = 272;
y = 1385;
},
{
smooth = 0;
x = 252;
y = 1414;
},
{
smooth = 0;
x = 225;
y = 1426;
},
{
segmentType = curve;
smooth = 1;
x = 197;
y = 1426;
},
{
smooth = 0;
x = 149;
y = 1426;
},
{
smooth = 0;
x = 100;
y = 1388;
},
{
segmentType = curve;
smooth = 1;
x = 100;
y = 1343;
},
{
smooth = 0;
x = 100;
y = 1328;
},
{
smooth = 0;
x = 105;
y = 1315;
},
{
segmentType = curve;
smooth = 0;
x = 114;
y = 1303;
},
{
segmentType = line;
smooth = 0;
x = 1033;
y = 40;
},
{
smooth = 0;
x = 1052;
y = 13;
},
{
smooth = 0;
x = 1076;
y = 0;
}
);
}
);
lib = {
};
name = X;
unicodes = (
);
width = 1274;
};
};
components = (
);
contours = (
);
lib = {
};
name = X;
unicodes = (
);
width = 1322;
};
},
{
glyphname = Y;
lastChange = "2016-09-13 09:34:46 +0000";
layers = (
{
anchors = (
{
name = bottom;
position = "{293, 0}";
},
{
name = top;
position = "{348, 705}";
},
{
name = topleft;
position = "{74, 705}";
}
);
background = {
anchors = (
{
name = bottom;
position = "{293, 0}";
},
{
name = top;
position = "{348, 705}";
},
{
name = topleft;
position = "{74, 705}";
}
);
paths = (
{
closed = 1;
nodes = (
"320 0 LINE",
"349 367 LINE",
"333 322 LINE",
"646 705 LINE",
"585 705 LINE",
"315 374 LINE",
"332 374 LINE",
"113 705 LINE",
"50 705 LINE",
"304 322 LINE",
"295 367 LINE",
"266 0 LINE"
);
}
);
};
layerId = "9E718F8A-2CEA-4931-B05D-987794BD97DA";
paths = (
{
closed = 1;
nodes = (
"320 0 LINE",
"349 367 LINE",
"333 322 LINE",
"646 705 LINE",
"585 705 LINE",
"315 374 LINE",
"332 374 LINE",
"113 705 LINE",
"50 705 LINE",
"304 322 LINE",
"295 367 LINE",
"266 0 LINE"
);
}
);
width = 587;
},
{
anchors = (
{
name = bottom;
position = "{320, 0}";
},
{
name = top;
position = "{374, 705}";
},
{
name = topleft;
position = "{74, 705}";
}
);
background = {
anchors = (
{
name = bottom;
position = "{320, 0}";
},
{
name = top;
position = "{374, 705}";
},
{
name = topleft;
position = "{74, 705}";
}
);
paths = (
{
closed = 1;
nodes = (
"400 0 LINE",
"429 367 LINE",
"389 275 LINE",
"748 705 LINE",
"565 705 LINE",
"335 424 LINE",
"368 424 LINE",
"184 705 LINE",
"2 705 LINE",
"294 275 LINE",
"268 367 LINE",
"239 0 LINE"
);
}
);
};
layerId = "E1B555A7-F4E1-459C-9C1A-AE952106EEF9";
paths = (
{
closed = 1;
nodes = (
"400 0 LINE",
"429 367 LINE",
"389 275 LINE",
"748 705 LINE",
"565 705 LINE",
"335 424 LINE",
"368 424 LINE",
"184 705 LINE",
"2 705 LINE",
"294 275 LINE",
"268 367 LINE",
"239 0 LINE"
);
}
);
width = 639;
}
);
leftKerningGroup = Y;
rightKerningGroup = Y;
unicode = 0059;
userData = {
anchors = (
);
b = {
};
com.typemytype.robofont.guides = (
);
com.typemytype.robofont.layerData = {
b = {
anchors = (
);
components = (
);
contours = (
{
points = (
{
segmentType = curve;
smooth = 1;
x = 641;
y = 0;
},
{
smooth = 0;
x = 685;
y = 0;
},
{
smooth = 0;
x = 730;
y = 29;
},
{
segmentType = curve;
smooth = 1;
x = 730;
y = 85;
},
{
segmentType = line;
smooth = 0;
x = 730;
y = 1285;
},
{
segmentType = line;
smooth = 1;
x = 1115;
y = 1285;
},
{
smooth = 0;
x = 1164;
y = 1285;
},
{
smooth = 0;
x = 1190;
y = 1319;
},
{
segmentType = curve;
smooth = 1;
x = 1190;
y = 1355;
},
{
smooth = 0;
x = 1190;
y = 1392;
},
{
smooth = 0;
x = 1166;
y = 1426;
},
{
segmentType = curve;
smooth = 1;
x = 1115;
y = 1426;
},
{
segmentType = line;
smooth = 1;
x = 160;
y = 1426;
},
{
smooth = 0;
x = 111;
y = 1426;
},
{
smooth = 0;
x = 86;
y = 1392;
},
{
segmentType = curve;
smooth = 1;
x = 86;
y = 1355;
},
{
smooth = 0;
x = 86;
y = 1319;
},
{
smooth = 0;
x = 111;
y = 1285;
},
{
segmentType = curve;
smooth = 1;
x = 160;
y = 1285;
},
{
segmentType = line;
smooth = 0;
x = 552;
y = 1285;
},
{
segmentType = line;
smooth = 1;
x = 552;
y = 85;
},
{
smooth = 0;
x = 552;
y = 29;
},
{
smooth = 0;
x = 596;
y = 0;
}
);
}
);
lib = {
};
name = Y;
unicodes = (
);
width = 1278;
};
};
components = (
);
contours = (
);
lib = {
};
name = Y;
unicodes = (
);
width = 1321;
};
},
{
glyphname = Z;
lastChange = "2016-09-13 09:34:46 +0000";
layers = (
{
anchors = (
{
name = bottom;
position = "{298, 0}";
},
{
name = top;
position = "{345, 705}";
}
);
background = {
anchors = (
{
name = bottom;
position = "{298, 0}";
},
{
name = top;
position = "{345, 705}";
}
);
paths = (
{
closed = 1;
nodes = (
"587 665 LINE",
"590 705 LINE",
"98 705 LINE",
"95 657 LINE",
"549 657 LINE",
"554 698 LINE",
"46 40 LINE",
"43 0 LINE",
"545 0 LINE",
"549 48 LINE",
"85 48 LINE",
"80 7 LINE"
);
}
);
};
layerId = "9E718F8A-2CEA-4931-B05D-987794BD97DA";
paths = (
{
closed = 1;
nodes = (
"587 665 LINE",
"590 705 LINE",
"98 705 LINE",
"95 657 LINE",
"549 657 LINE",
"554 698 LINE",
"46 40 LINE",
"43 0 LINE",
"545 0 LINE",
"549 48 LINE",
"85 48 LINE",
"80 7 LINE"
);
}
);
width = 582;
},
{
anchors = (
{
name = bottom;
position = "{303, 0}";
},
{
name = top;
position = "{362, 705}";
}
);
background = {
anchors = (
{
name = bottom;
position = "{303, 0}";
},
{
name = top;
position = "{362, 705}";
}
);
paths = (
{
closed = 1;
nodes = (
"576 0 LINE",
"586 127 LINE",
"209 127 LINE",
"204 83 LINE",
"611 589 LINE",
"620 705 LINE",
"105 705 LINE",
"95 578 LINE",
"460 578 LINE",
"465 622 LINE",
"59 118 LINE",
"50 0 LINE"
);
}
);
};
layerId = "E1B555A7-F4E1-459C-9C1A-AE952106EEF9";
paths = (
{
closed = 1;
nodes = (
"576 0 LINE",
"586 127 LINE",
"209 127 LINE",
"204 83 LINE",
"611 589 LINE",
"620 705 LINE",
"105 705 LINE",
"95 578 LINE",
"460 578 LINE",
"465 622 LINE",
"59 118 LINE",
"50 0 LINE"
);
}
);
width = 611;
}
);
leftKerningGroup = Z;
rightKerningGroup = Z;
unicode = 005A;
userData = {
anchors = (
);
b = {
};
com.typemytype.robofont.layerData = {
b = {
anchors = (
);
components = (
);
contours = (
{
points = (
{
segmentType = curve;
smooth = 1;
x = 266;
y = 0;
},
{
segmentType = line;
smooth = 1;
x = 1035;
y = 0;
},
{
smooth = 0;
x = 1084;
y = 0;
},
{
smooth = 0;
x = 1108;
y = 34;
},
{
segmentType = curve;
smooth = 1;
x = 1108;
y = 71;
},
{
smooth = 0;
x = 1108;
y = 107;
},
{
smooth = 0;
x = 1084;
y = 141;
},
{
segmentType = curve;
smooth = 1;
x = 1035;
y = 141;
},
{
segmentType = line;
smooth = 0;
x = 356;
y = 141;
},
{
segmentType = line;
smooth = 0;
x = 356;
y = 665;
},
{
segmentType = line;
smooth = 1;
x = 975;
y = 665;
},
{
smooth = 0;
x = 1024;
y = 665;
},
{
smooth = 0;
x = 1049;
y = 698;
},
{
segmentType = curve;
smooth = 1;
x = 1049;
y = 734;
},
{
smooth = 0;
x = 1049;
y = 770;
},
{
smooth = 0;
x = 1026;
y = 803;
},
{
segmentType = curve;
smooth = 1;
x = 975;
y = 803;
},
{
segmentType = line;
smooth = 0;
x = 356;
y = 803;
},
{
segmentType = line;
smooth = 0;
x = 356;
y = 1285;
},
{
segmentType = line;
smooth = 1;
x = 1007;
y = 1285;
},
{
smooth = 0;
x = 1056;
y = 1285;
},
{
smooth = 0;
x = 1080;
y = 1319;
},
{
segmentType = curve;
smooth = 1;
x = 1080;
y = 1356;
},
{
smooth = 0;
x = 1080;
y = 1392;
},
{
smooth = 0;
x = 1056;
y = 1426;
},
{
segmentType = curve;
smooth = 1;
x = 1007;
y = 1426;
},
{
segmentType = line;
smooth = 1;
x = 261;
y = 1426;
},
{
smooth = 0;
x = 213;
y = 1426;
},
{
smooth = 0;
x = 178;
y = 1383;
},
{
segmentType = curve;
smooth = 1;
x = 178;
y = 1340;
},
{
segmentType = line;
smooth = 1;
x = 178;
y = 86;
},
{
smooth = 0;
x = 178;
y = 41;
},
{
smooth = 0;
x = 222;
y = 0;
}
);
}
);
lib = {
};
name = Z;
unicodes = (
);
width = 1165;
};
};
components = (
);
contours = (
);
lib = {
};
name = Z;
unicodes = (
);
width = 1222;
};
},
{
glyphname = a;
lastChange = "2016-09-13 09:34:46 +0000";
layers = (
{
anchors = (
{
name = bottom;
position = "{269, 0}";
},
{
name = ogonek;
position = "{441, 10}";
},
{
name = top;
position = "{311, 490}";
}
);
background = {
anchors = (
{
name = bottom;
position = "{269, 0}";
},
{
name = ogonek;
position = "{441, 10}";
},
{
name = top;
position = "{311, 490}";
}
);
paths = (
{
closed = 1;
nodes = (
"316 -7 OFFCURVE",
"384 39 OFFCURVE",
"412 123 CURVE",
"398 100 LINE",
"390 0 LINE",
"444 0 LINE",
"469 314 LINE SMOOTH",
"478 436 OFFCURVE",
"426 497 OFFCURVE",
"311 497 CURVE SMOOTH",
"246 497 OFFCURVE",
"172 474 OFFCURVE",
"120 438 CURVE",
"139 395 LINE",
"199 432 OFFCURVE",
"251 448 OFFCURVE",
"311 448 CURVE SMOOTH",
"390 448 OFFCURVE",
"422 408 OFFCURVE",
"415 318 CURVE SMOOTH",
"406 202 LINE SMOOTH",
"399 109 OFFCURVE",
"330 42 OFFCURVE",
"241 42 CURVE SMOOTH",
"176 42 OFFCURVE",
"131 84 OFFCURVE",
"135 142 CURVE SMOOTH",
"141 216 OFFCURVE",
"196 236 OFFCURVE",
"390 236 CURVE SMOOTH",
"420 236 LINE",
"423 279 LINE",
"391 279 LINE SMOOTH",
"160 279 OFFCURVE",
"84 245 OFFCURVE",
"77 137 CURVE SMOOTH",
"71 55 OFFCURVE",
"140 -7 OFFCURVE",
"234 -7 CURVE SMOOTH"
);
}
);
};
layerId = "9E718F8A-2CEA-4931-B05D-987794BD97DA";
paths = (
{
closed = 1;
nodes = (
"316 -7 OFFCURVE",
"384 39 OFFCURVE",
"412 123 CURVE",
"398 100 LINE",
"390 0 LINE",
"444 0 LINE",
"469 314 LINE SMOOTH",
"478 436 OFFCURVE",
"426 497 OFFCURVE",
"311 497 CURVE SMOOTH",
"246 497 OFFCURVE",
"172 474 OFFCURVE",
"120 438 CURVE",
"139 395 LINE",
"199 432 OFFCURVE",
"251 448 OFFCURVE",
"311 448 CURVE SMOOTH",
"390 448 OFFCURVE",
"422 408 OFFCURVE",
"415 318 CURVE SMOOTH",
"406 202 LINE SMOOTH",
"399 109 OFFCURVE",
"330 42 OFFCURVE",
"241 42 CURVE SMOOTH",
"176 42 OFFCURVE",
"131 84 OFFCURVE",
"135 142 CURVE SMOOTH",
"141 216 OFFCURVE",
"196 236 OFFCURVE",
"390 236 CURVE SMOOTH",
"420 236 LINE",
"423 279 LINE",
"391 279 LINE SMOOTH",
"160 279 OFFCURVE",
"84 245 OFFCURVE",
"77 137 CURVE SMOOTH",
"71 55 OFFCURVE",
"140 -7 OFFCURVE",
"234 -7 CURVE SMOOTH"
);
}
);
width = 524;
},
{
anchors = (
{
name = bottom;
position = "{275, 0}";
},
{
name = ogonek;
position = "{470, 10}";
},
{
name = top;
position = "{318, 495}";
}
);
background = {
anchors = (
{
name = bottom;
position = "{275, 0}";
},
{
name = ogonek;
position = "{470, 10}";
},
{
name = top;
position = "{318, 495}";
}
);
paths = (
{
closed = 1;
nodes = (
"288 -8 OFFCURVE",
"345 33 OFFCURVE",
"362 100 CURVE",
"354 100 LINE",
"346 0 LINE",
"493 0 LINE",
"516 289 LINE SMOOTH",
"527 435 OFFCURVE",
"464 503 OFFCURVE",
"316 503 CURVE SMOOTH",
"245 503 OFFCURVE",
"151 477 OFFCURVE",
"92 442 CURVE",
"125 338 LINE",
"179 368 OFFCURVE",
"243 387 OFFCURVE",
"291 387 CURVE SMOOTH",
"352 387 OFFCURVE",
"374 367 OFFCURVE",
"369 310 CURVE SMOOTH",
"361 202 LINE SMOOTH",
"356 141 OFFCURVE",
"314 99 OFFCURVE",
"258 99 CURVE SMOOTH",
"221 99 OFFCURVE",
"197 125 OFFCURVE",
"200 160 CURVE SMOOTH",
"203 203 OFFCURVE",
"241 218 OFFCURVE",
"345 218 CURVE SMOOTH",
"378 218 LINE",
"384 293 LINE",
"342 293 LINE SMOOTH",
"135 293 OFFCURVE",
"57 255 OFFCURVE",
"49 149 CURVE SMOOTH",
"42 58 OFFCURVE",
"113 -8 OFFCURVE",
"214 -8 CURVE SMOOTH"
);
}
);
};
layerId = "E1B555A7-F4E1-459C-9C1A-AE952106EEF9";
paths = (
{
closed = 1;
nodes = (
"288 -8 OFFCURVE",
"345 33 OFFCURVE",
"362 100 CURVE",
"354 100 LINE",
"346 0 LINE",
"493 0 LINE",
"516 289 LINE SMOOTH",
"527 435 OFFCURVE",
"464 503 OFFCURVE",
"316 503 CURVE SMOOTH",
"245 503 OFFCURVE",
"151 477 OFFCURVE",
"92 442 CURVE",
"125 338 LINE",
"179 368 OFFCURVE",
"243 387 OFFCURVE",
"291 387 CURVE SMOOTH",
"352 387 OFFCURVE",
"374 367 OFFCURVE",
"369 310 CURVE SMOOTH",
"361 202 LINE SMOOTH",
"356 141 OFFCURVE",
"314 99 OFFCURVE",
"258 99 CURVE SMOOTH",
"221 99 OFFCURVE",
"197 125 OFFCURVE",
"200 160 CURVE SMOOTH",
"203 203 OFFCURVE",
"241 218 OFFCURVE",
"345 218 CURVE SMOOTH",
"378 218 LINE",
"384 293 LINE",
"342 293 LINE SMOOTH",
"135 293 OFFCURVE",
"57 255 OFFCURVE",
"49 149 CURVE SMOOTH",
"42 58 OFFCURVE",
"113 -8 OFFCURVE",
"214 -8 CURVE SMOOTH"
);
}
);
width = 547;
}
);
leftKerningGroup = a;
rightKerningGroup = n;
rightMetricsKey = n;
unicode = 0061;
userData = {
anchors = (
);
b = {
};
com.typemytype.robofont.layerData = {
b = {
anchors = (
);
components = (
);
contours = (
);
lib = {
};
name = a;
unicodes = (
);
width = 1040;
};
};
components = (
);
contours = (
);
lib = {
};
name = a;
unicodes = (
);
width = 1101;
};
},
{
glyphname = aogonek;
lastChange = "2016-09-13 09:34:46 +0000";
layers = (
{
background = {
paths = (
{
closed = 1;
nodes = (
"427 -191 OFFCURVE",
"456 -183 OFFCURVE",
"478 -168 CURVE",
"465 -130 LINE",
"443 -141 OFFCURVE",
"421 -148 OFFCURVE",
"404 -148 CURVE SMOOTH",
"362 -148 OFFCURVE",
"338 -123 OFFCURVE",
"342 -82 CURVE SMOOTH",
"345 -34 OFFCURVE",
"387 0 OFFCURVE",
"440 0 CURVE SMOOTH",
"444 0 LINE",
"469 314 LINE SMOOTH",
"478 436 OFFCURVE",
"426 497 OFFCURVE",
"311 497 CURVE SMOOTH",
"246 497 OFFCURVE",
"172 474 OFFCURVE",
"120 438 CURVE",
"139 395 LINE",
"199 432 OFFCURVE",
"251 448 OFFCURVE",
"311 448 CURVE SMOOTH",
"390 448 OFFCURVE",
"422 408 OFFCURVE",
"415 318 CURVE SMOOTH",
"406 204 LINE SMOOTH",
"399 111 OFFCURVE",
"330 44 OFFCURVE",
"241 44 CURVE SMOOTH",
"176 44 OFFCURVE",
"131 86 OFFCURVE",
"135 142 CURVE SMOOTH",
"141 216 OFFCURVE",
"196 236 OFFCURVE",
"390 236 CURVE SMOOTH",
"420 236 LINE",
"423 279 LINE",
"391 279 LINE SMOOTH",
"160 279 OFFCURVE",
"84 245 OFFCURVE",
"77 137 CURVE SMOOTH",
"71 57 OFFCURVE",
"141 -5 OFFCURVE",
"235 -5 CURVE SMOOTH",
"317 -5 OFFCURVE",
"384 41 OFFCURVE",
"412 123 CURVE",
"399 100 LINE",
"391 0 LINE",
"407 0 LINE",
"430 38 LINE",
"349 25 OFFCURVE",
"296 -23 OFFCURVE",
"291 -88 CURVE SMOOTH",
"286 -149 OFFCURVE",
"329 -191 OFFCURVE",
"396 -191 CURVE SMOOTH"
);
}
);
};
layerId = "9E718F8A-2CEA-4931-B05D-987794BD97DA";
paths = (
{
closed = 1;
nodes = (
"427 -191 OFFCURVE",
"456 -183 OFFCURVE",
"478 -168 CURVE",
"465 -130 LINE",
"443 -141 OFFCURVE",
"421 -148 OFFCURVE",
"404 -148 CURVE SMOOTH",
"362 -148 OFFCURVE",
"338 -123 OFFCURVE",
"342 -82 CURVE SMOOTH",
"345 -34 OFFCURVE",
"387 0 OFFCURVE",
"440 0 CURVE SMOOTH",
"444 0 LINE",
"469 314 LINE SMOOTH",
"478 436 OFFCURVE",
"426 497 OFFCURVE",
"311 497 CURVE SMOOTH",
"246 497 OFFCURVE",
"172 474 OFFCURVE",
"120 438 CURVE",
"139 395 LINE",
"199 432 OFFCURVE",
"251 448 OFFCURVE",
"311 448 CURVE SMOOTH",
"390 448 OFFCURVE",
"422 408 OFFCURVE",
"415 318 CURVE SMOOTH",
"406 204 LINE SMOOTH",
"399 111 OFFCURVE",
"330 44 OFFCURVE",
"241 44 CURVE SMOOTH",
"176 44 OFFCURVE",
"131 86 OFFCURVE",
"135 142 CURVE SMOOTH",
"141 216 OFFCURVE",
"196 236 OFFCURVE",
"390 236 CURVE SMOOTH",
"420 236 LINE",
"423 279 LINE",
"391 279 LINE SMOOTH",
"160 279 OFFCURVE",
"84 245 OFFCURVE",
"77 137 CURVE SMOOTH",
"71 57 OFFCURVE",
"141 -5 OFFCURVE",
"235 -5 CURVE SMOOTH",
"317 -5 OFFCURVE",
"384 41 OFFCURVE",
"412 123 CURVE",
"399 100 LINE",
"391 0 LINE",
"407 0 LINE",
"430 38 LINE",
"349 25 OFFCURVE",
"296 -23 OFFCURVE",
"291 -88 CURVE SMOOTH",
"286 -149 OFFCURVE",
"329 -191 OFFCURVE",
"396 -191 CURVE SMOOTH"
);
}
);
width = 524;
},
{
background = {
paths = (
{
closed = 1;
nodes = (
"449 -197 OFFCURVE",
"485 -190 OFFCURVE",
"516 -177 CURVE",
"505 -105 LINE",
"485 -113 OFFCURVE",
"467 -117 OFFCURVE",
"450 -117 CURVE SMOOTH",
"412 -117 OFFCURVE",
"392 -99 OFFCURVE",
"395 -64 CURVE SMOOTH",
"398 -26 OFFCURVE",
"434 0 OFFCURVE",
"483 0 CURVE SMOOTH",
"493 0 LINE",
"516 289 LINE SMOOTH",
"527 435 OFFCURVE",
"464 503 OFFCURVE",
"316 503 CURVE SMOOTH",
"245 503 OFFCURVE",
"151 477 OFFCURVE",
"92 442 CURVE",
"125 338 LINE",
"179 368 OFFCURVE",
"243 387 OFFCURVE",
"291 387 CURVE SMOOTH",
"352 387 OFFCURVE",
"374 367 OFFCURVE",
"369 310 CURVE SMOOTH",
"361 202 LINE SMOOTH",
"356 141 OFFCURVE",
"314 99 OFFCURVE",
"258 99 CURVE SMOOTH",
"222 99 OFFCURVE",
"197 124 OFFCURVE",
"200 160 CURVE SMOOTH",
"203 202 OFFCURVE",
"241 218 OFFCURVE",
"345 218 CURVE SMOOTH",
"378 218 LINE",
"384 293 LINE",
"342 293 LINE SMOOTH",
"135 293 OFFCURVE",
"57 254 OFFCURVE",
"49 149 CURVE SMOOTH",
"42 58 OFFCURVE",
"113 -8 OFFCURVE",
"216 -8 CURVE SMOOTH",
"288 -8 OFFCURVE",
"345 33 OFFCURVE",
"362 100 CURVE",
"354 100 LINE",
"346 0 LINE",
"382 0 LINE",
"398 37 LINE",
"336 13 OFFCURVE",
"299 -31 OFFCURVE",
"294 -85 CURVE SMOOTH",
"289 -151 OFFCURVE",
"338 -197 OFFCURVE",
"413 -197 CURVE SMOOTH"
);
}
);
};
layerId = "E1B555A7-F4E1-459C-9C1A-AE952106EEF9";
paths = (
{
closed = 1;
nodes = (
"449 -197 OFFCURVE",
"485 -190 OFFCURVE",
"516 -177 CURVE",
"505 -105 LINE",
"485 -113 OFFCURVE",
"467 -117 OFFCURVE",
"450 -117 CURVE SMOOTH",
"412 -117 OFFCURVE",
"392 -99 OFFCURVE",
"395 -64 CURVE SMOOTH",
"398 -26 OFFCURVE",
"434 0 OFFCURVE",
"483 0 CURVE SMOOTH",
"493 0 LINE",
"516 289 LINE SMOOTH",
"527 435 OFFCURVE",
"464 503 OFFCURVE",
"316 503 CURVE SMOOTH",
"245 503 OFFCURVE",
"151 477 OFFCURVE",
"92 442 CURVE",
"125 338 LINE",
"179 368 OFFCURVE",
"243 387 OFFCURVE",
"291 387 CURVE SMOOTH",
"352 387 OFFCURVE",
"374 367 OFFCURVE",
"369 310 CURVE SMOOTH",
"361 202 LINE SMOOTH",
"356 141 OFFCURVE",
"314 99 OFFCURVE",
"258 99 CURVE SMOOTH",
"222 99 OFFCURVE",
"197 124 OFFCURVE",
"200 160 CURVE SMOOTH",
"203 202 OFFCURVE",
"241 218 OFFCURVE",
"345 218 CURVE SMOOTH",
"378 218 LINE",
"384 293 LINE",
"342 293 LINE SMOOTH",
"135 293 OFFCURVE",
"57 254 OFFCURVE",
"49 149 CURVE SMOOTH",
"42 58 OFFCURVE",
"113 -8 OFFCURVE",
"216 -8 CURVE SMOOTH",
"288 -8 OFFCURVE",
"345 33 OFFCURVE",
"362 100 CURVE",
"354 100 LINE",
"346 0 LINE",
"382 0 LINE",
"398 37 LINE",
"336 13 OFFCURVE",
"299 -31 OFFCURVE",
"294 -85 CURVE SMOOTH",
"289 -151 OFFCURVE",
"338 -197 OFFCURVE",
"413 -197 CURVE SMOOTH"
);
}
);
width = 547;
}
);
leftKerningGroup = a;
leftMetricsKey = a;
widthMetricsKey = a;
rightKerningGroup = n;
unicode = 0105;
userData = {
com.typemytype.robofont.layerData = {
b = {
anchors = (
);
components = (
);
contours = (
);
lib = {
};
name = aogonek;
unicodes = (
);
width = 1040;
};
};
};
},
{
glyphname = aringacute;
lastChange = "2016-09-13 09:34:46 +0000";
layers = (
{
background = {
paths = (
{
closed = 1;
nodes = (
"316 -7 OFFCURVE",
"384 39 OFFCURVE",
"412 123 CURVE",
"398 100 LINE",
"390 0 LINE",
"444 0 LINE",
"469 314 LINE SMOOTH",
"478 436 OFFCURVE",
"426 497 OFFCURVE",
"311 497 CURVE SMOOTH",
"246 497 OFFCURVE",
"172 474 OFFCURVE",
"120 438 CURVE",
"139 395 LINE",
"199 432 OFFCURVE",
"251 448 OFFCURVE",
"311 448 CURVE SMOOTH",
"390 448 OFFCURVE",
"422 408 OFFCURVE",
"415 318 CURVE SMOOTH",
"406 202 LINE SMOOTH",
"399 109 OFFCURVE",
"330 42 OFFCURVE",
"241 42 CURVE SMOOTH",
"176 42 OFFCURVE",
"131 84 OFFCURVE",
"135 142 CURVE SMOOTH",
"141 216 OFFCURVE",
"196 236 OFFCURVE",
"390 236 CURVE SMOOTH",
"420 236 LINE",
"423 279 LINE",
"391 279 LINE SMOOTH",
"160 279 OFFCURVE",
"84 245 OFFCURVE",
"77 137 CURVE SMOOTH",
"71 55 OFFCURVE",
"140 -7 OFFCURVE",
"234 -7 CURVE SMOOTH"
);
},
{
closed = 1;
nodes = (
"370 555 OFFCURVE",
"417 597 OFFCURVE",
"421 651 CURVE SMOOTH",
"425 705 OFFCURVE",
"385 747 OFFCURVE",
"331 747 CURVE SMOOTH",
"277 747 OFFCURVE",
"229 705 OFFCURVE",
"225 651 CURVE SMOOTH",
"221 597 OFFCURVE",
"262 555 OFFCURVE",
"316 555 CURVE SMOOTH"
);
},
{
closed = 1;
nodes = (
"290 599 OFFCURVE",
"271 622 OFFCURVE",
"273 651 CURVE SMOOTH",
"276 680 OFFCURVE",
"298 703 OFFCURVE",
"327 703 CURVE SMOOTH",
"356 703 OFFCURVE",
"376 680 OFFCURVE",
"373 651 CURVE SMOOTH",
"371 622 OFFCURVE",
"348 599 OFFCURVE",
"319 599 CURVE SMOOTH"
);
},
{
closed = 1;
nodes = (
"403 698 LINE",
"542 848 LINE",
"473 848 LINE",
"361 698 LINE"
);
}
);
};
layerId = "9E718F8A-2CEA-4931-B05D-987794BD97DA";
paths = (
{
closed = 1;
nodes = (
"316 -7 OFFCURVE",
"384 39 OFFCURVE",
"412 123 CURVE",
"398 100 LINE",
"390 0 LINE",
"444 0 LINE",
"469 314 LINE SMOOTH",
"478 436 OFFCURVE",
"426 497 OFFCURVE",
"311 497 CURVE SMOOTH",
"246 497 OFFCURVE",
"172 474 OFFCURVE",
"120 438 CURVE",
"139 395 LINE",
"199 432 OFFCURVE",
"251 448 OFFCURVE",
"311 448 CURVE SMOOTH",
"390 448 OFFCURVE",
"422 408 OFFCURVE",
"415 318 CURVE SMOOTH",
"406 202 LINE SMOOTH",
"399 109 OFFCURVE",
"330 42 OFFCURVE",
"241 42 CURVE SMOOTH",
"176 42 OFFCURVE",
"131 84 OFFCURVE",
"135 142 CURVE SMOOTH",
"141 216 OFFCURVE",
"196 236 OFFCURVE",
"390 236 CURVE SMOOTH",
"420 236 LINE",
"423 279 LINE",
"391 279 LINE SMOOTH",
"160 279 OFFCURVE",
"84 245 OFFCURVE",
"77 137 CURVE SMOOTH",
"71 55 OFFCURVE",
"140 -7 OFFCURVE",
"234 -7 CURVE SMOOTH"
);
},
{
closed = 1;
nodes = (
"370 555 OFFCURVE",
"417 597 OFFCURVE",
"421 651 CURVE SMOOTH",
"425 705 OFFCURVE",
"385 747 OFFCURVE",
"331 747 CURVE SMOOTH",
"277 747 OFFCURVE",
"229 705 OFFCURVE",
"225 651 CURVE SMOOTH",
"221 597 OFFCURVE",
"262 555 OFFCURVE",
"316 555 CURVE SMOOTH"
);
},
{
closed = 1;
nodes = (
"290 599 OFFCURVE",
"271 622 OFFCURVE",
"273 651 CURVE SMOOTH",
"276 680 OFFCURVE",
"298 703 OFFCURVE",
"327 703 CURVE SMOOTH",
"356 703 OFFCURVE",
"376 680 OFFCURVE",
"373 651 CURVE SMOOTH",
"371 622 OFFCURVE",
"348 599 OFFCURVE",
"319 599 CURVE SMOOTH"
);
},
{
closed = 1;
nodes = (
"403 698 LINE",
"542 848 LINE",
"473 848 LINE",
"361 698 LINE"
);
}
);
width = 524;
},
{
background = {
paths = (
{
closed = 1;
nodes = (
"288 -8 OFFCURVE",
"345 33 OFFCURVE",
"362 100 CURVE",
"354 100 LINE",
"346 0 LINE",
"493 0 LINE",
"516 289 LINE SMOOTH",
"527 435 OFFCURVE",
"464 503 OFFCURVE",
"316 503 CURVE SMOOTH",
"245 503 OFFCURVE",
"151 477 OFFCURVE",
"92 442 CURVE",
"125 338 LINE",
"179 368 OFFCURVE",
"243 387 OFFCURVE",
"291 387 CURVE SMOOTH",
"352 387 OFFCURVE",
"374 367 OFFCURVE",
"369 310 CURVE SMOOTH",
"361 202 LINE SMOOTH",
"356 141 OFFCURVE",
"314 99 OFFCURVE",
"258 99 CURVE SMOOTH",
"221 99 OFFCURVE",
"197 125 OFFCURVE",
"200 160 CURVE SMOOTH",
"203 203 OFFCURVE",
"241 218 OFFCURVE",
"345 218 CURVE SMOOTH",
"378 218 LINE",
"384 293 LINE",
"342 293 LINE SMOOTH",
"135 293 OFFCURVE",
"57 255 OFFCURVE",
"49 149 CURVE SMOOTH",
"42 58 OFFCURVE",
"113 -8 OFFCURVE",
"214 -8 CURVE SMOOTH"
);
},
{
closed = 1;
nodes = (
"383 550 OFFCURVE",
"436 597 OFFCURVE",
"441 658 CURVE SMOOTH",
"446 719 OFFCURVE",
"400 766 OFFCURVE",
"339 766 CURVE SMOOTH",
"278 766 OFFCURVE",
"226 719 OFFCURVE",
"221 658 CURVE SMOOTH",
"216 597 OFFCURVE",
"261 550 OFFCURVE",
"322 550 CURVE SMOOTH"
);
},
{
closed = 1;
nodes = (
"302 613 OFFCURVE",
"286 633 OFFCURVE",
"288 658 CURVE SMOOTH",
"290 683 OFFCURVE",
"309 703 OFFCURVE",
"334 703 CURVE SMOOTH",
"359 703 OFFCURVE",
"376 683 OFFCURVE",
"374 658 CURVE SMOOTH",
"372 633 OFFCURVE",
"352 613 OFFCURVE",
"327 613 CURVE SMOOTH"
);
},
{
closed = 1;
nodes = (
"598 854 LINE",
"455 854 LINE",
"367 739 LINE",
"427 694 LINE"
);
}
);
};
layerId = "E1B555A7-F4E1-459C-9C1A-AE952106EEF9";
paths = (
{
closed = 1;
nodes = (
"288 -8 OFFCURVE",
"345 33 OFFCURVE",
"362 100 CURVE",
"354 100 LINE",
"346 0 LINE",
"493 0 LINE",
"516 289 LINE SMOOTH",
"527 435 OFFCURVE",
"464 503 OFFCURVE",
"316 503 CURVE SMOOTH",
"245 503 OFFCURVE",
"151 477 OFFCURVE",
"92 442 CURVE",
"125 338 LINE",
"179 368 OFFCURVE",
"243 387 OFFCURVE",
"291 387 CURVE SMOOTH",
"352 387 OFFCURVE",
"374 367 OFFCURVE",
"369 310 CURVE SMOOTH",
"361 202 LINE SMOOTH",
"356 141 OFFCURVE",
"314 99 OFFCURVE",
"258 99 CURVE SMOOTH",
"221 99 OFFCURVE",
"197 125 OFFCURVE",
"200 160 CURVE SMOOTH",
"203 203 OFFCURVE",
"241 218 OFFCURVE",
"345 218 CURVE SMOOTH",
"378 218 LINE",
"384 293 LINE",
"342 293 LINE SMOOTH",
"135 293 OFFCURVE",
"57 255 OFFCURVE",
"49 149 CURVE SMOOTH",
"42 58 OFFCURVE",
"113 -8 OFFCURVE",
"214 -8 CURVE SMOOTH"
);
},
{
closed = 1;
nodes = (
"383 550 OFFCURVE",
"436 597 OFFCURVE",
"441 658 CURVE SMOOTH",
"446 719 OFFCURVE",
"400 766 OFFCURVE",
"339 766 CURVE SMOOTH",
"278 766 OFFCURVE",
"226 719 OFFCURVE",
"221 658 CURVE SMOOTH",
"216 597 OFFCURVE",
"261 550 OFFCURVE",
"322 550 CURVE SMOOTH"
);
},
{
closed = 1;
nodes = (
"302 613 OFFCURVE",
"286 633 OFFCURVE",
"288 658 CURVE SMOOTH",
"290 683 OFFCURVE",
"309 703 OFFCURVE",
"334 703 CURVE SMOOTH",
"359 703 OFFCURVE",
"376 683 OFFCURVE",
"374 658 CURVE SMOOTH",
"372 633 OFFCURVE",
"352 613 OFFCURVE",
"327 613 CURVE SMOOTH"
);
},
{
closed = 1;
nodes = (
"598 854 LINE",
"455 854 LINE",
"367 739 LINE",
"427 694 LINE"
);
}
);
width = 547;
}
);
leftKerningGroup = a;
leftMetricsKey = a;
widthMetricsKey = a;
rightKerningGroup = n;
unicode = 01FB;
},
{
glyphname = ae;
lastChange = "2016-09-13 09:34:46 +0000";
layers = (
{
anchors = (
{
name = bottom;
position = "{422, 0}";
},
{
name = top;
position = "{461, 490}";
}
);
background = {
anchors = (
{
name = bottom;
position = "{422, 0}";
},
{
name = top;
position = "{461, 490}";
}
);
paths = (
{
closed = 1;
nodes = (
"690 -7 OFFCURVE",
"764 20 OFFCURVE",
"808 60 CURVE",
"789 103 LINE",
"736 62 OFFCURVE",
"682 42 OFFCURVE",
"628 42 CURVE SMOOTH",
"515 42 OFFCURVE",
"458 114 OFFCURVE",
"468 246 CURVE SMOOTH",
"478 373 OFFCURVE",
"547 451 OFFCURVE",
"649 451 CURVE SMOOTH",
"746 451 OFFCURVE",
"794 381 OFFCURVE",
"781 256 CURVE",
"803 279 LINE",
"451 279 LINE",
"449 236 LINE",
"830 236 LINE",
"832 261 LINE SMOOTH",
"843 409 OFFCURVE",
"777 497 OFFCURVE",
"653 497 CURVE SMOOTH",
"523 497 OFFCURVE",
"426 392 OFFCURVE",
"419 241 CURVE SMOOTH",
"412 84 OFFCURVE",
"487 -7 OFFCURVE",
"625 -7 CURVE SMOOTH"
);
},
{
closed = 1;
nodes = (
"345 -7 OFFCURVE",
"421 62 OFFCURVE",
"441 171 CURVE",
"460 171 LINE",
"472 319 LINE",
"481 437 OFFCURVE",
"428 497 OFFCURVE",
"313 497 CURVE SMOOTH",
"247 497 OFFCURVE",
"172 474 OFFCURVE",
"120 438 CURVE",
"139 395 LINE",
"200 431 OFFCURVE",
"254 448 OFFCURVE",
"313 448 CURVE SMOOTH",
"395 448 OFFCURVE",
"426 408 OFFCURVE",
"419 314 CURVE SMOOTH",
"410 208 LINE SMOOTH",
"403 110 OFFCURVE",
"334 42 OFFCURVE",
"246 42 CURVE SMOOTH",
"177 42 OFFCURVE",
"131 83 OFFCURVE",
"135 142 CURVE SMOOTH",
"141 216 OFFCURVE",
"197 236 OFFCURVE",
"394 236 CURVE SMOOTH",
"424 236 LINE",
"427 279 LINE",
"395 279 LINE SMOOTH",
"161 279 OFFCURVE",
"84 245 OFFCURVE",
"77 137 CURVE SMOOTH",
"71 54 OFFCURVE",
"141 -7 OFFCURVE",
"239 -7 CURVE SMOOTH"
);
}
);
};
layerId = "9E718F8A-2CEA-4931-B05D-987794BD97DA";
paths = (
{
closed = 1;
nodes = (
"690 -7 OFFCURVE",
"764 20 OFFCURVE",
"808 60 CURVE",
"789 103 LINE",
"736 62 OFFCURVE",
"682 42 OFFCURVE",
"628 42 CURVE SMOOTH",
"515 42 OFFCURVE",
"458 114 OFFCURVE",
"468 246 CURVE SMOOTH",
"478 373 OFFCURVE",
"547 451 OFFCURVE",
"649 451 CURVE SMOOTH",
"746 451 OFFCURVE",
"794 381 OFFCURVE",
"781 256 CURVE",
"803 279 LINE",
"451 279 LINE",
"449 236 LINE",
"830 236 LINE",
"832 261 LINE SMOOTH",
"843 409 OFFCURVE",
"777 497 OFFCURVE",
"653 497 CURVE SMOOTH",
"523 497 OFFCURVE",
"426 392 OFFCURVE",
"419 241 CURVE SMOOTH",
"412 84 OFFCURVE",
"487 -7 OFFCURVE",
"625 -7 CURVE SMOOTH"
);
},
{
closed = 1;
nodes = (
"345 -7 OFFCURVE",
"421 62 OFFCURVE",
"441 171 CURVE",
"460 171 LINE",
"472 319 LINE",
"481 437 OFFCURVE",
"428 497 OFFCURVE",
"313 497 CURVE SMOOTH",
"247 497 OFFCURVE",
"172 474 OFFCURVE",
"120 438 CURVE",
"139 395 LINE",
"200 431 OFFCURVE",
"254 448 OFFCURVE",
"313 448 CURVE SMOOTH",
"395 448 OFFCURVE",
"426 408 OFFCURVE",
"419 314 CURVE SMOOTH",
"410 208 LINE SMOOTH",
"403 110 OFFCURVE",
"334 42 OFFCURVE",
"246 42 CURVE SMOOTH",
"177 42 OFFCURVE",
"131 83 OFFCURVE",
"135 142 CURVE SMOOTH",
"141 216 OFFCURVE",
"197 236 OFFCURVE",
"394 236 CURVE SMOOTH",
"424 236 LINE",
"427 279 LINE",
"395 279 LINE SMOOTH",
"161 279 OFFCURVE",
"84 245 OFFCURVE",
"77 137 CURVE SMOOTH",
"71 54 OFFCURVE",
"141 -7 OFFCURVE",
"239 -7 CURVE SMOOTH"
);
}
);
width = 859;
},
{
anchors = (
{
name = bottom;
position = "{417, 0}";
},
{
name = top;
position = "{456, 495}";
}
);
background = {
anchors = (
{
name = bottom;
position = "{417, 0}";
},
{
name = top;
position = "{456, 495}";
}
);
paths = (
{
closed = 1;
nodes = (
"673 -8 OFFCURVE",
"749 15 OFFCURVE",
"800 52 CURVE",
"767 156 LINE",
"722 125 OFFCURVE",
"668 108 OFFCURVE",
"614 108 CURVE SMOOTH",
"533 108 OFFCURVE",
"503 153 OFFCURVE",
"512 263 CURVE SMOOTH",
"518 349 OFFCURVE",
"557 396 OFFCURVE",
"620 396 CURVE SMOOTH",
"674 396 OFFCURVE",
"701 354 OFFCURVE",
"695 278 CURVE",
"734 293 LINE",
"504 293 LINE",
"497 216 LINE",
"821 216 LINE",
"824 254 LINE SMOOTH",
"836 403 OFFCURVE",
"758 503 OFFCURVE",
"632 503 CURVE SMOOTH",
"495 503 OFFCURVE",
"394 400 OFFCURVE",
"382 247 CURVE SMOOTH",
"370 84 OFFCURVE",
"450 -8 OFFCURVE",
"604 -8 CURVE SMOOTH"
);
},
{
closed = 1;
nodes = (
"347 -8 OFFCURVE",
"430 65 OFFCURVE",
"440 193 CURVE",
"491 202 LINE",
"498 289 LINE SMOOTH",
"509 436 OFFCURVE",
"452 503 OFFCURVE",
"315 503 CURVE SMOOTH",
"244 503 OFFCURVE",
"150 477 OFFCURVE",
"92 442 CURVE",
"125 338 LINE",
"179 369 OFFCURVE",
"243 387 OFFCURVE",
"296 387 CURVE SMOOTH",
"350 387 OFFCURVE",
"372 364 OFFCURVE",
"367 310 CURVE SMOOTH",
"359 202 LINE SMOOTH",
"354 144 OFFCURVE",
"313 99 OFFCURVE",
"263 99 CURVE SMOOTH",
"223 99 OFFCURVE",
"197 123 OFFCURVE",
"200 160 CURVE SMOOTH",
"203 202 OFFCURVE",
"241 218 OFFCURVE",
"343 218 CURVE SMOOTH",
"366 218 LINE",
"372 293 LINE",
"340 293 LINE SMOOTH",
"135 293 OFFCURVE",
"57 255 OFFCURVE",
"49 149 CURVE SMOOTH",
"41 57 OFFCURVE",
"119 -8 OFFCURVE",
"233 -8 CURVE SMOOTH"
);
}
);
};
layerId = "E1B555A7-F4E1-459C-9C1A-AE952106EEF9";
paths = (
{
closed = 1;
nodes = (
"673 -8 OFFCURVE",
"749 15 OFFCURVE",
"800 52 CURVE",
"767 156 LINE",
"722 125 OFFCURVE",
"668 108 OFFCURVE",
"614 108 CURVE SMOOTH",
"533 108 OFFCURVE",
"503 153 OFFCURVE",
"512 263 CURVE SMOOTH",
"518 349 OFFCURVE",
"557 396 OFFCURVE",
"620 396 CURVE SMOOTH",
"674 396 OFFCURVE",
"701 354 OFFCURVE",
"695 278 CURVE",
"734 293 LINE",
"504 293 LINE",
"497 216 LINE",
"821 216 LINE",
"824 254 LINE SMOOTH",
"836 403 OFFCURVE",
"758 503 OFFCURVE",
"632 503 CURVE SMOOTH",
"495 503 OFFCURVE",
"394 400 OFFCURVE",
"382 247 CURVE SMOOTH",
"370 84 OFFCURVE",
"450 -8 OFFCURVE",
"604 -8 CURVE SMOOTH"
);
},
{
closed = 1;
nodes = (
"347 -8 OFFCURVE",
"430 65 OFFCURVE",
"440 193 CURVE",
"491 202 LINE",
"498 289 LINE SMOOTH",
"509 436 OFFCURVE",
"452 503 OFFCURVE",
"315 503 CURVE SMOOTH",
"244 503 OFFCURVE",
"150 477 OFFCURVE",
"92 442 CURVE",
"125 338 LINE",
"179 369 OFFCURVE",
"243 387 OFFCURVE",
"296 387 CURVE SMOOTH",
"350 387 OFFCURVE",
"372 364 OFFCURVE",
"367 310 CURVE SMOOTH",
"359 202 LINE SMOOTH",
"354 144 OFFCURVE",
"313 99 OFFCURVE",
"263 99 CURVE SMOOTH",
"223 99 OFFCURVE",
"197 123 OFFCURVE",
"200 160 CURVE SMOOTH",
"203 202 OFFCURVE",
"241 218 OFFCURVE",
"343 218 CURVE SMOOTH",
"366 218 LINE",
"372 293 LINE",
"340 293 LINE SMOOTH",
"135 293 OFFCURVE",
"57 255 OFFCURVE",
"49 149 CURVE SMOOTH",
"41 57 OFFCURVE",
"119 -8 OFFCURVE",
"233 -8 CURVE SMOOTH"
);
}
);
width = 836;
}
);
leftKerningGroup = a;
leftMetricsKey = a;
rightKerningGroup = e;
rightMetricsKey = e;
unicode = 00E6;
userData = {
com.typemytype.robofont.layerData = {
b = {
anchors = (
);
components = (
);
contours = (
);
lib = {
};
name = ae;
unicodes = (
);
width = 1734;
};
};
};
},
{
glyphname = b;
lastChange = "2016-09-13 09:34:46 +0000";
layers = (
{
anchors = (
{
name = bottom;
position = "{301, 0}";
},
{
name = top;
position = "{343, 490}";
}
);
background = {
anchors = (
{
name = bottom;
position = "{301, 0}";
},
{
name = top;
position = "{343, 490}";
}
);
paths = (
{
closed = 1;
nodes = (
"136 0 LINE",
"147 135 LINE",
"135 127 LINE",
"150 41 OFFCURVE",
"211 -7 OFFCURVE",
"303 -7 CURVE SMOOTH",
"432 -7 OFFCURVE",
"527 94 OFFCURVE",
"539 247 CURVE SMOOTH",
"551 399 OFFCURVE",
"473 497 OFFCURVE",
"343 497 CURVE SMOOTH",
"251 497 OFFCURVE",
"182 449 OFFCURVE",
"154 363 CURVE",
"164 355 LINE",
"191 705 LINE",
"137 705 LINE",
"82 0 LINE"
);
},
{
closed = 1;
nodes = (
"197 42 OFFCURVE",
"145 116 OFFCURVE",
"155 245 CURVE SMOOTH",
"165 374 OFFCURVE",
"229 448 OFFCURVE",
"333 448 CURVE SMOOTH",
"437 448 OFFCURVE",
"493 375 OFFCURVE",
"482 247 CURVE SMOOTH",
"472 118 OFFCURVE",
"405 42 OFFCURVE",
"302 42 CURVE SMOOTH"
);
}
);
};
layerId = "9E718F8A-2CEA-4931-B05D-987794BD97DA";
paths = (
{
closed = 1;
nodes = (
"136 0 LINE",
"147 135 LINE",
"135 127 LINE",
"150 41 OFFCURVE",
"211 -7 OFFCURVE",
"303 -7 CURVE SMOOTH",
"432 -7 OFFCURVE",
"527 94 OFFCURVE",
"539 247 CURVE SMOOTH",
"551 399 OFFCURVE",
"473 497 OFFCURVE",
"343 497 CURVE SMOOTH",
"251 497 OFFCURVE",
"182 449 OFFCURVE",
"154 363 CURVE",
"164 355 LINE",
"191 705 LINE",
"137 705 LINE",
"82 0 LINE"
);
},
{
closed = 1;
nodes = (
"197 42 OFFCURVE",
"145 116 OFFCURVE",
"155 245 CURVE SMOOTH",
"165 374 OFFCURVE",
"229 448 OFFCURVE",
"333 448 CURVE SMOOTH",
"437 448 OFFCURVE",
"493 375 OFFCURVE",
"482 247 CURVE SMOOTH",
"472 118 OFFCURVE",
"405 42 OFFCURVE",
"302 42 CURVE SMOOTH"
);
}
);
width = 570;
},
{
anchors = (
{
name = bottom;
position = "{308, 0}";
},
{
name = top;
position = "{404, 495}";
}
);
background = {
anchors = (
{
name = bottom;
position = "{308, 0}";
},
{
name = top;
position = "{404, 495}";
}
);
paths = (
{
closed = 1;
nodes = (
"211 0 LINE",
"220 118 LINE",
"208 96 LINE",
"225 32 OFFCURVE",
"286 -8 OFFCURVE",
"364 -8 CURVE SMOOTH",
"491 -8 OFFCURVE",
"590 96 OFFCURVE",
"602 250 CURVE SMOOTH",
"614 404 OFFCURVE",
"533 503 OFFCURVE",
"405 503 CURVE SMOOTH",
"327 503 OFFCURVE",
"258 463 OFFCURVE",
"231 399 CURVE",
"243 380 LINE",
"268 705 LINE",
"112 705 LINE",
"57 0 LINE"
);
},
{
closed = 1;
nodes = (
"259 110 OFFCURVE",
"224 159 OFFCURVE",
"231 248 CURVE SMOOTH",
"237 336 OFFCURVE",
"280 385 OFFCURVE",
"349 385 CURVE SMOOTH",
"418 385 OFFCURVE",
"454 337 OFFCURVE",
"447 250 CURVE SMOOTH",
"440 161 OFFCURVE",
"396 110 OFFCURVE",
"328 110 CURVE SMOOTH"
);
}
);
};
layerId = "E1B555A7-F4E1-459C-9C1A-AE952106EEF9";
paths = (
{
closed = 1;
nodes = (
"211 0 LINE",
"220 118 LINE",
"208 96 LINE",
"225 32 OFFCURVE",
"286 -8 OFFCURVE",
"364 -8 CURVE SMOOTH",
"491 -8 OFFCURVE",
"590 96 OFFCURVE",
"602 250 CURVE SMOOTH",
"614 404 OFFCURVE",
"533 503 OFFCURVE",
"405 503 CURVE SMOOTH",
"327 503 OFFCURVE",
"258 463 OFFCURVE",
"231 399 CURVE",
"243 380 LINE",
"268 705 LINE",
"112 705 LINE",
"57 0 LINE"
);
},
{
closed = 1;
nodes = (
"259 110 OFFCURVE",
"224 159 OFFCURVE",
"231 248 CURVE SMOOTH",
"237 336 OFFCURVE",
"280 385 OFFCURVE",
"349 385 CURVE SMOOTH",
"418 385 OFFCURVE",
"454 337 OFFCURVE",
"447 250 CURVE SMOOTH",
"440 161 OFFCURVE",
"396 110 OFFCURVE",
"328 110 CURVE SMOOTH"
);
}
);
width = 615;
}
);
leftKerningGroup = h;
leftMetricsKey = n;
rightKerningGroup = o;
rightMetricsKey = o;
unicode = 0062;
userData = {
anchors = (
);
b = {
};
com.typemytype.robofont.layerData = {
b = {
anchors = (
);
components = (
);
contours = (
{
points = (
{
segmentType = curve;
smooth = 1;
x = 238;
y = 1425;
},
{
smooth = 0;
x = 198;
y = 1425;
},
{
smooth = 0;
x = 158;
y = 1400;
},
{
segmentType = curve;
smooth = 1;
x = 158;
y = 1351;
},
{
segmentType = line;
smooth = 1;
x = 158;
y = 76;
},
{
smooth = 0;
x = 158;
y = 27;
},
{
smooth = 0;
x = 197;
y = 3;
},
{
segmentType = curve;
smooth = 1;
x = 237;
y = 3;
},
{
smooth = 0;
x = 297;
y = 3;
},
{
smooth = 0;
x = 318;
y = 38;
},
{
segmentType = curve;
smooth = 1;
x = 318;
y = 76;
},
{
segmentType = line;
smooth = 0;
x = 318;
y = 183;
},
{
smooth = 0;
x = 384;
y = 46;
},
{
smooth = 0;
x = 516;
y = "-20";
},
{
segmentType = curve;
smooth = 1;
x = 666;
y = "-20";
},
{
smooth = 0;
x = 957;
y = "-20";
},
{
smooth = 0;
x = 1095;
y = 225;
},
{
segmentType = curve;
smooth = 1;
x = 1095;
y = 502;
},
{
smooth = 0;
x = 1095;
y = 777;
},
{
smooth = 0;
x = 939;
y = 1013;
},
{
segmentType = curve;
smooth = 1;
x = 650;
y = 1013;
},
{
smooth = 0;
x = 503;
y = 1013;
},
{
smooth = 0;
x = 376;
y = 942;
},
{
segmentType = curve;
smooth = 0;
x = 318;
y = 814;
},
{
segmentType = line;
smooth = 1;
x = 318;
y = 1351;
},
{
smooth = 0;
x = 318;
y = 1400;
},
{
smooth = 0;
x = 278;
y = 1425;
}
);
},
{
points = (
{
segmentType = curve;
smooth = 1;
x = 632;
y = 903;
},
{
smooth = 0;
x = 859;
y = 903;
},
{
smooth = 0;
x = 935;
y = 685;
},
{
segmentType = curve;
smooth = 1;
x = 935;
y = 496;
},
{
smooth = 0;
x = 935;
y = 316;
},
{
smooth = 0;
x = 869;
y = 93;
},
{
segmentType = curve;
smooth = 0;
x = 645;
y = 90;
},
{
smooth = 0;
x = 395;
y = 90;
},
{
smooth = 0;
x = 319;
y = 279;
},
{
segmentType = curve;
smooth = 1;
x = 319;
y = 501;
},
{
smooth = 0;
x = 319;
y = 701;
},
{
smooth = 0;
x = 407;
y = 903;
}
);
}
);
lib = {
};
name = b;
unicodes = (
);
width = 1181;
};
};
components = (
);
contours = (
);
lib = {
};
name = b;
unicodes = (
);
width = 1203;
};
},
{
glyphname = c;
lastChange = "2016-09-13 09:34:46 +0000";
layers = (
{
anchors = (
{
name = bottom;
position = "{273, 0}";
},
{
name = top;
position = "{314, 490}";
}
);
background = {
anchors = (
{
name = bottom;
position = "{273, 0}";
},
{
name = top;
position = "{314, 490}";
}
);
paths = (
{
closed = 1;
nodes = (
"339 -7 OFFCURVE",
"406 18 OFFCURVE",
"450 58 CURVE",
"431 101 LINE",
"378 60 OFFCURVE",
"332 42 OFFCURVE",
"282 42 CURVE SMOOTH",
"175 42 OFFCURVE",
"116 116 OFFCURVE",
"126 243 CURVE SMOOTH",
"136 371 OFFCURVE",
"208 448 OFFCURVE",
"315 448 CURVE SMOOTH",
"364 448 OFFCURVE",
"407 430 OFFCURVE",
"454 389 CURVE",
"479 432 LINE",
"444 472 OFFCURVE",
"382 497 OFFCURVE",
"317 497 CURVE SMOOTH",
"178 497 OFFCURVE",
"81 395 OFFCURVE",
"69 243 CURVE SMOOTH",
"57 93 OFFCURVE",
"137 -7 OFFCURVE",
"275 -7 CURVE SMOOTH"
);
}
);
};
layerId = "9E718F8A-2CEA-4931-B05D-987794BD97DA";
paths = (
{
closed = 1;
nodes = (
"339 -7 OFFCURVE",
"406 18 OFFCURVE",
"450 58 CURVE",
"431 101 LINE",
"378 60 OFFCURVE",
"332 42 OFFCURVE",
"282 42 CURVE SMOOTH",
"175 42 OFFCURVE",
"116 116 OFFCURVE",
"126 243 CURVE SMOOTH",
"136 371 OFFCURVE",
"208 448 OFFCURVE",
"315 448 CURVE SMOOTH",
"364 448 OFFCURVE",
"407 430 OFFCURVE",
"454 389 CURVE",
"479 432 LINE",
"444 472 OFFCURVE",
"382 497 OFFCURVE",
"317 497 CURVE SMOOTH",
"178 497 OFFCURVE",
"81 395 OFFCURVE",
"69 243 CURVE SMOOTH",
"57 93 OFFCURVE",
"137 -7 OFFCURVE",
"275 -7 CURVE SMOOTH"
);
}
);
width = 473;
},
{
anchors = (
{
name = bottom;
position = "{286, 0}";
},
{
name = top;
position = "{334, 495}";
}
);
background = {
anchors = (
{
name = bottom;
position = "{286, 0}";
},
{
name = top;
position = "{334, 495}";
}
);
paths = (
{
closed = 1;
nodes = (
"368 -8 OFFCURVE",
"443 15 OFFCURVE",
"490 52 CURVE",
"458 159 LINE",
"418 129 OFFCURVE",
"367 111 OFFCURVE",
"324 111 CURVE SMOOTH",
"247 111 OFFCURVE",
"205 157 OFFCURVE",
"213 248 CURVE SMOOTH",
"220 339 OFFCURVE",
"269 384 OFFCURVE",
"345 384 CURVE SMOOTH",
"388 384 OFFCURVE",
"437 366 OFFCURVE",
"471 336 CURVE",
"521 443 LINE",
"482 480 OFFCURVE",
"411 503 OFFCURVE",
"340 503 CURVE SMOOTH",
"179 503 OFFCURVE",
"64 400 OFFCURVE",
"52 245 CURVE SMOOTH",
"40 90 OFFCURVE",
"130 -8 OFFCURVE",
"292 -8 CURVE SMOOTH"
);
}
);
};
layerId = "E1B555A7-F4E1-459C-9C1A-AE952106EEF9";
paths = (
{
closed = 1;
nodes = (
"368 -8 OFFCURVE",
"443 15 OFFCURVE",
"490 52 CURVE",
"458 159 LINE",
"418 129 OFFCURVE",
"367 111 OFFCURVE",
"324 111 CURVE SMOOTH",
"247 111 OFFCURVE",
"205 157 OFFCURVE",
"213 248 CURVE SMOOTH",
"220 339 OFFCURVE",
"269 384 OFFCURVE",
"345 384 CURVE SMOOTH",
"388 384 OFFCURVE",
"437 366 OFFCURVE",
"471 336 CURVE",
"521 443 LINE",
"482 480 OFFCURVE",
"411 503 OFFCURVE",
"340 503 CURVE SMOOTH",
"179 503 OFFCURVE",
"64 400 OFFCURVE",
"52 245 CURVE SMOOTH",
"40 90 OFFCURVE",
"130 -8 OFFCURVE",
"292 -8 CURVE SMOOTH"
);
}
);
width = 495;
}
);
leftKerningGroup = o;
leftMetricsKey = o;
rightKerningGroup = c;
unicode = 0063;
userData = {
anchors = (
);
b = {
};
com.typemytype.robofont.layerData = {
b = {
anchors = (
);
components = (
);
contours = (
);
lib = {
};
name = c;
unicodes = (
);
width = 956.1410;
};
};
components = (
);
contours = (
);
lib = {
};
name = c;
unicodes = (
);
width = 992;
};
},
{
glyphname = d;
lastChange = "2016-09-13 09:34:46 +0000";
layers = (
{
anchors = (
{
name = bottom;
position = "{287, 0}";
},
{
name = center;
position = "{306, 245}";
},
{
name = top;
position = "{326, 490}";
},
{
name = topright;
position = "{583, 705}";
}
);
background = {
anchors = (
{
name = bottom;
position = "{287, 0}";
},
{
name = center;
position = "{306, 245}";
},
{
name = top;
position = "{326, 490}";
},
{
name = topright;
position = "{583, 705}";
}
);
paths = (
{
closed = 1;
nodes = (
"543 705 LINE",
"489 705 LINE",
"462 355 LINE",
"474 363 LINE",
"458 449 OFFCURVE",
"397 497 OFFCURVE",
"305 497 CURVE SMOOTH",
"175 497 OFFCURVE",
"81 399 OFFCURVE",
"69 247 CURVE SMOOTH",
"57 94 OFFCURVE",
"136 -7 OFFCURVE",
"265 -7 CURVE SMOOTH",
"357 -7 OFFCURVE",
"426 41 OFFCURVE",
"455 127 CURVE",
"445 135 LINE",
"434 0 LINE",
"488 0 LINE"
);
},
{
closed = 1;
nodes = (
"171 42 OFFCURVE",
"116 118 OFFCURVE",
"126 247 CURVE SMOOTH",
"137 375 OFFCURVE",
"203 448 OFFCURVE",
"307 448 CURVE SMOOTH",
"411 448 OFFCURVE",
"463 374 OFFCURVE",
"453 245 CURVE SMOOTH",
"443 116 OFFCURVE",
"379 42 OFFCURVE",
"274 42 CURVE SMOOTH"
);
}
);
};
layerId = "9E718F8A-2CEA-4931-B05D-987794BD97DA";
paths = (
{
closed = 1;
nodes = (
"543 705 LINE",
"489 705 LINE",
"462 355 LINE",
"474 363 LINE",
"458 449 OFFCURVE",
"397 497 OFFCURVE",
"305 497 CURVE SMOOTH",
"175 497 OFFCURVE",
"81 399 OFFCURVE",
"69 247 CURVE SMOOTH",
"57 94 OFFCURVE",
"136 -7 OFFCURVE",
"265 -7 CURVE SMOOTH",
"357 -7 OFFCURVE",
"426 41 OFFCURVE",
"455 127 CURVE",
"445 135 LINE",
"434 0 LINE",
"488 0 LINE"
);
},
{
closed = 1;
nodes = (
"171 42 OFFCURVE",
"116 118 OFFCURVE",
"126 247 CURVE SMOOTH",
"137 375 OFFCURVE",
"203 448 OFFCURVE",
"307 448 CURVE SMOOTH",
"411 448 OFFCURVE",
"463 374 OFFCURVE",
"453 245 CURVE SMOOTH",
"443 116 OFFCURVE",
"379 42 OFFCURVE",
"274 42 CURVE SMOOTH"
);
}
);
width = 570;
},
{
anchors = (
{
name = bottom;
position = "{308, 0}";
},
{
name = center;
position = "{328, 248}";
},
{
name = top;
position = "{347, 495}";
},
{
name = topright;
position = "{638, 705}";
}
);
background = {
anchors = (
{
name = bottom;
position = "{308, 0}";
},
{
name = center;
position = "{328, 248}";
},
{
name = top;
position = "{347, 495}";
},
{
name = topright;
position = "{638, 705}";
}
);
paths = (
{
closed = 1;
nodes = (
"613 705 LINE",
"457 705 LINE",
"432 380 LINE",
"446 399 LINE",
"429 463 OFFCURVE",
"368 503 OFFCURVE",
"290 503 CURVE SMOOTH",
"162 503 OFFCURVE",
"65 404 OFFCURVE",
"53 250 CURVE SMOOTH",
"41 96 OFFCURVE",
"122 -8 OFFCURVE",
"249 -8 CURVE SMOOTH",
"327 -8 OFFCURVE",
"396 32 OFFCURVE",
"423 96 CURVE",
"413 118 LINE",
"404 0 LINE",
"558 0 LINE"
);
},
{
closed = 1;
nodes = (
"237 110 OFFCURVE",
"201 161 OFFCURVE",
"208 250 CURVE SMOOTH",
"215 337 OFFCURVE",
"257 385 OFFCURVE",
"326 385 CURVE SMOOTH",
"395 385 OFFCURVE",
"430 336 OFFCURVE",
"424 248 CURVE SMOOTH",
"417 159 OFFCURVE",
"374 110 OFFCURVE",
"305 110 CURVE SMOOTH"
);
}
);
};
layerId = "E1B555A7-F4E1-459C-9C1A-AE952106EEF9";
paths = (
{
closed = 1;
nodes = (
"613 705 LINE",
"457 705 LINE",
"432 380 LINE",
"446 399 LINE",
"429 463 OFFCURVE",
"368 503 OFFCURVE",
"290 503 CURVE SMOOTH",
"162 503 OFFCURVE",
"65 404 OFFCURVE",
"53 250 CURVE SMOOTH",
"41 96 OFFCURVE",
"122 -8 OFFCURVE",
"249 -8 CURVE SMOOTH",
"327 -8 OFFCURVE",
"396 32 OFFCURVE",
"423 96 CURVE",
"413 118 LINE",
"404 0 LINE",
"558 0 LINE"
);
},
{
closed = 1;
nodes = (
"237 110 OFFCURVE",
"201 161 OFFCURVE",
"208 250 CURVE SMOOTH",
"215 337 OFFCURVE",
"257 385 OFFCURVE",
"326 385 CURVE SMOOTH",
"395 385 OFFCURVE",
"430 336 OFFCURVE",
"424 248 CURVE SMOOTH",
"417 159 OFFCURVE",
"374 110 OFFCURVE",
"305 110 CURVE SMOOTH"
);
}
);
width = 615;
}
);
leftKerningGroup = o;
leftMetricsKey = o;
rightKerningGroup = l;
rightMetricsKey = "=|n";
unicode = 0064;
userData = {
anchors = (
);
b = {
};
com.typemytype.robofont.layerData = {
b = {
anchors = (
);
components = (
);
contours = (
);
lib = {
};
name = d;
unicodes = (
);
width = 1181;
};
};
components = (
);
contours = (
);
lib = {
};
name = d;
unicodes = (
);
width = 1207;
};
},
{
glyphname = eth;
lastChange = "2016-09-13 09:34:46 +0000";
layers = (
{
background = {
paths = (
{
closed = 1;
nodes = (
"417 -7 OFFCURVE",
"502 92 OFFCURVE",
"517 284 CURVE SMOOTH",
"535 502 OFFCURVE",
"436 648 OFFCURVE",
"231 711 CURVE",
"213 668 LINE",
"393 613 OFFCURVE",
"482 481 OFFCURVE",
"465 291 CURVE",
"491 289 LINE",
"477 397 OFFCURVE",
"414 455 OFFCURVE",
"307 455 CURVE SMOOTH",
"174 455 OFFCURVE",
"79 364 OFFCURVE",
"68 224 CURVE SMOOTH",
"57 84 OFFCURVE",
"136 -7 OFFCURVE",
"269 -7 CURVE SMOOTH"
);
},
{
closed = 1;
nodes = (
"169 42 OFFCURVE",
"115 107 OFFCURVE",
"125 224 CURVE SMOOTH",
"134 339 OFFCURVE",
"200 406 OFFCURVE",
"303 406 CURVE SMOOTH",
"406 406 OFFCURVE",
"462 339 OFFCURVE",
"453 224 CURVE SMOOTH",
"444 110 OFFCURVE",
"376 42 OFFCURVE",
"273 42 CURVE SMOOTH"
);
},
{
closed = 1;
nodes = (
"543 631 LINE",
"531 672 LINE",
"210 548 LINE",
"222 507 LINE"
);
}
);
};
guideLines = (
{
angle = 90;
position = "{245, 496}";
},
{
angle = 90;
position = "{573, 496}";
}
);
layerId = "9E718F8A-2CEA-4931-B05D-987794BD97DA";
paths = (
{
closed = 1;
nodes = (
"417 -7 OFFCURVE",
"502 92 OFFCURVE",
"517 284 CURVE SMOOTH",
"535 502 OFFCURVE",
"436 648 OFFCURVE",
"231 711 CURVE",
"213 668 LINE",
"393 613 OFFCURVE",
"482 481 OFFCURVE",
"465 291 CURVE",
"491 289 LINE",
"477 397 OFFCURVE",
"414 455 OFFCURVE",
"307 455 CURVE SMOOTH",
"174 455 OFFCURVE",
"79 364 OFFCURVE",
"68 224 CURVE SMOOTH",
"57 84 OFFCURVE",
"136 -7 OFFCURVE",
"269 -7 CURVE SMOOTH"
);
},
{
closed = 1;
nodes = (
"169 42 OFFCURVE",
"115 107 OFFCURVE",
"125 224 CURVE SMOOTH",
"134 339 OFFCURVE",
"200 406 OFFCURVE",
"303 406 CURVE SMOOTH",
"406 406 OFFCURVE",
"462 339 OFFCURVE",
"453 224 CURVE SMOOTH",
"444 110 OFFCURVE",
"376 42 OFFCURVE",
"273 42 CURVE SMOOTH"
);
},
{
closed = 1;
nodes = (
"543 631 LINE",
"531 672 LINE",
"210 548 LINE",
"222 507 LINE"
);
}
);
width = 545;
},
{
background = {
paths = (
{
closed = 1;
nodes = (
"464 -8 OFFCURVE",
"572 103 OFFCURVE",
"587 298 CURVE SMOOTH",
"602 483 OFFCURVE",
"486 682 OFFCURVE",
"237 716 CURVE",
"195 610 LINE",
"342 590 OFFCURVE",
"456 482 OFFCURVE",
"444 326 CURVE",
"484 321 LINE",
"466 411 OFFCURVE",
"409 455 OFFCURVE",
"310 455 CURVE SMOOTH",
"169 455 OFFCURVE",
"61 360 OFFCURVE",
"51 225 CURVE SMOOTH",
"40 86 OFFCURVE",
"136 -8 OFFCURVE",
"288 -8 CURVE SMOOTH"
);
},
{
closed = 1;
nodes = (
"234 110 OFFCURVE",
"200 149 OFFCURVE",
"206 225 CURVE SMOOTH",
"212 301 OFFCURVE",
"252 340 OFFCURVE",
"322 340 CURVE SMOOTH",
"392 340 OFFCURVE",
"426 301 OFFCURVE",
"420 225 CURVE SMOOTH",
"414 151 OFFCURVE",
"373 110 OFFCURVE",
"304 110 CURVE SMOOTH"
);
},
{
closed = 1;
nodes = (
"604 571 LINE",
"589 650 LINE",
"189 545 LINE",
"204 466 LINE"
);
}
);
};
guideLines = (
{
angle = 90;
position = "{291, 652}";
},
{
angle = 90;
position = "{706, 652}";
}
);
layerId = "E1B555A7-F4E1-459C-9C1A-AE952106EEF9";
paths = (
{
closed = 1;
nodes = (
"464 -8 OFFCURVE",
"572 103 OFFCURVE",
"587 298 CURVE SMOOTH",
"602 483 OFFCURVE",
"486 682 OFFCURVE",
"237 716 CURVE",
"195 610 LINE",
"342 590 OFFCURVE",
"456 482 OFFCURVE",
"444 326 CURVE",
"484 321 LINE",
"466 411 OFFCURVE",
"409 455 OFFCURVE",
"310 455 CURVE SMOOTH",
"169 455 OFFCURVE",
"61 360 OFFCURVE",
"51 225 CURVE SMOOTH",
"40 86 OFFCURVE",
"136 -8 OFFCURVE",
"288 -8 CURVE SMOOTH"
);
},
{
closed = 1;
nodes = (
"234 110 OFFCURVE",
"200 149 OFFCURVE",
"206 225 CURVE SMOOTH",
"212 301 OFFCURVE",
"252 340 OFFCURVE",
"322 340 CURVE SMOOTH",
"392 340 OFFCURVE",
"426 301 OFFCURVE",
"420 225 CURVE SMOOTH",
"414 151 OFFCURVE",
"373 110 OFFCURVE",
"304 110 CURVE SMOOTH"
);
},
{
closed = 1;
nodes = (
"604 571 LINE",
"589 650 LINE",
"189 545 LINE",
"204 466 LINE"
);
}
);
width = 597;
}
);
leftKerningGroup = o;
leftMetricsKey = o;
rightKerningGroup = o;
rightMetricsKey = o;
unicode = 00F0;
userData = {
com.typemytype.robofont.layerData = {
b = {
anchors = (
);
components = (
);
contours = (
);
lib = {
};
name = eth;
unicodes = (
);
width = 1230;
};
};
};
},
{
glyphname = dcaron;
lastChange = "2016-09-13 09:34:46 +0000";
layers = (
{
background = {
components = (
{
name = d;
}
);
paths = (
{
closed = 1;
nodes = (
"638 705 LINE",
"579 705 LINE",
"565 516 LINE",
"598 516 LINE"
);
}
);
};
components = (
{
name = d;
}
);
layerId = "9E718F8A-2CEA-4931-B05D-987794BD97DA";
paths = (
{
closed = 1;
nodes = (
"638 705 LINE",
"579 705 LINE",
"565 516 LINE",
"598 516 LINE"
);
}
);
width = 570;
},
{
background = {
components = (
{
name = d;
}
);
paths = (
{
closed = 1;
nodes = (
"717 705 LINE",
"638 705 LINE",
"623 511 LINE",
"676 511 LINE"
);
}
);
};
components = (
{
name = d;
}
);
layerId = "E1B555A7-F4E1-459C-9C1A-AE952106EEF9";
paths = (
{
closed = 1;
nodes = (
"717 705 LINE",
"638 705 LINE",
"623 511 LINE",
"676 511 LINE"
);
}
);
width = 615;
}
);
leftKerningGroup = o;
leftMetricsKey = d;
widthMetricsKey = d;
rightKerningGroup = lcaron;
unicode = 010F;
},
{
glyphname = dcroat;
lastChange = "2016-09-13 09:34:46 +0000";
layers = (
{
background = {
paths = (
{
closed = 1;
nodes = (
"627 563 LINE",
"631 608 LINE",
"287 608 LINE",
"283 563 LINE"
);
},
{
closed = 1;
nodes = (
"543 705 LINE",
"489 705 LINE",
"462 355 LINE",
"474 363 LINE",
"458 449 OFFCURVE",
"397 497 OFFCURVE",
"305 497 CURVE SMOOTH",
"175 497 OFFCURVE",
"81 399 OFFCURVE",
"69 247 CURVE SMOOTH",
"57 94 OFFCURVE",
"136 -7 OFFCURVE",
"265 -7 CURVE SMOOTH",
"357 -7 OFFCURVE",
"426 41 OFFCURVE",
"455 127 CURVE",
"445 135 LINE",
"434 0 LINE",
"488 0 LINE"
);
},
{
closed = 1;
nodes = (
"171 42 OFFCURVE",
"116 118 OFFCURVE",
"126 247 CURVE SMOOTH",
"137 375 OFFCURVE",
"203 448 OFFCURVE",
"307 448 CURVE SMOOTH",
"411 448 OFFCURVE",
"463 374 OFFCURVE",
"453 245 CURVE SMOOTH",
"443 116 OFFCURVE",
"379 42 OFFCURVE",
"274 42 CURVE SMOOTH"
);
}
);
};
layerId = "9E718F8A-2CEA-4931-B05D-987794BD97DA";
paths = (
{
closed = 1;
nodes = (
"627 563 LINE",
"631 608 LINE",
"287 608 LINE",
"283 563 LINE"
);
},
{
closed = 1;
nodes = (
"543 705 LINE",
"489 705 LINE",
"462 355 LINE",
"474 363 LINE",
"458 449 OFFCURVE",
"397 497 OFFCURVE",
"305 497 CURVE SMOOTH",
"175 497 OFFCURVE",
"81 399 OFFCURVE",
"69 247 CURVE SMOOTH",
"57 94 OFFCURVE",
"136 -7 OFFCURVE",
"265 -7 CURVE SMOOTH",
"357 -7 OFFCURVE",
"426 41 OFFCURVE",
"455 127 CURVE",
"445 135 LINE",
"434 0 LINE",
"488 0 LINE"
);
},
{
closed = 1;
nodes = (
"171 42 OFFCURVE",
"116 118 OFFCURVE",
"126 247 CURVE SMOOTH",
"137 375 OFFCURVE",
"203 448 OFFCURVE",
"307 448 CURVE SMOOTH",
"411 448 OFFCURVE",
"463 374 OFFCURVE",
"453 245 CURVE SMOOTH",
"443 116 OFFCURVE",
"379 42 OFFCURVE",
"274 42 CURVE SMOOTH"
);
}
);
width = 570;
},
{
background = {
paths = (
{
closed = 1;
nodes = (
"685 531 LINE",
"693 639 LINE",
"267 639 LINE",
"259 531 LINE"
);
},
{
closed = 1;
nodes = (
"613 705 LINE",
"457 705 LINE",
"432 380 LINE",
"446 399 LINE",
"429 463 OFFCURVE",
"368 503 OFFCURVE",
"290 503 CURVE SMOOTH",
"162 503 OFFCURVE",
"65 404 OFFCURVE",
"53 250 CURVE SMOOTH",
"41 96 OFFCURVE",
"122 -8 OFFCURVE",
"249 -8 CURVE SMOOTH",
"327 -8 OFFCURVE",
"396 32 OFFCURVE",
"423 96 CURVE",
"413 118 LINE",
"404 0 LINE",
"558 0 LINE"
);
},
{
closed = 1;
nodes = (
"237 110 OFFCURVE",
"201 161 OFFCURVE",
"208 250 CURVE SMOOTH",
"215 337 OFFCURVE",
"257 385 OFFCURVE",
"326 385 CURVE SMOOTH",
"395 385 OFFCURVE",
"430 336 OFFCURVE",
"424 248 CURVE SMOOTH",
"417 159 OFFCURVE",
"374 110 OFFCURVE",
"305 110 CURVE SMOOTH"
);
}
);
};
layerId = "E1B555A7-F4E1-459C-9C1A-AE952106EEF9";
paths = (
{
closed = 1;
nodes = (
"685 531 LINE",
"693 639 LINE",
"267 639 LINE",
"259 531 LINE"
);
},
{
closed = 1;
nodes = (
"613 705 LINE",
"457 705 LINE",
"432 380 LINE",
"446 399 LINE",
"429 463 OFFCURVE",
"368 503 OFFCURVE",
"290 503 CURVE SMOOTH",
"162 503 OFFCURVE",
"65 404 OFFCURVE",
"53 250 CURVE SMOOTH",
"41 96 OFFCURVE",
"122 -8 OFFCURVE",
"249 -8 CURVE SMOOTH",
"327 -8 OFFCURVE",
"396 32 OFFCURVE",
"423 96 CURVE",
"413 118 LINE",
"404 0 LINE",
"558 0 LINE"
);
},
{
closed = 1;
nodes = (
"237 110 OFFCURVE",
"201 161 OFFCURVE",
"208 250 CURVE SMOOTH",
"215 337 OFFCURVE",
"257 385 OFFCURVE",
"326 385 CURVE SMOOTH",
"395 385 OFFCURVE",
"430 336 OFFCURVE",
"424 248 CURVE SMOOTH",
"417 159 OFFCURVE",
"374 110 OFFCURVE",
"305 110 CURVE SMOOTH"
);
}
);
width = 615;
}
);
leftKerningGroup = o;
leftMetricsKey = d;
widthMetricsKey = d;
rightKerningGroup = l;
unicode = 0111;
userData = {
com.typemytype.robofont.layerData = {
b = {
anchors = (
);
components = (
);
contours = (
);
lib = {
};
name = dcroat;
unicodes = (
);
width = 1181;
};
};
};
},
